G04*
G04 #@! TF.GenerationSoftware,Altium Limited,Altium Designer,18.1.6 (161)*
G04*
G04 Layer_Color=65535*
%FSTAX24Y24*%
%MOIN*%
G70*
G01*
G75*
%ADD10C,0.0060*%
%ADD11C,0.0050*%
%ADD12C,0.0070*%
%ADD13C,0.0070*%
%ADD14C,0.0600*%
%ADD15C,0.0040*%
%ADD16C,0.0079*%
%ADD17C,0.0394*%
%ADD18C,0.0079*%
%ADD19C,0.0043*%
%ADD20C,0.0039*%
%ADD21C,0.0100*%
G36*
X0258Y02855D02*
X0263D01*
Y02605D01*
X0258D01*
Y02855D01*
D02*
G37*
G36*
X02555Y028565D02*
D01*
D02*
G37*
G36*
X0268Y02855D02*
X0273D01*
Y02605D01*
X027275Y026075D01*
X0268D01*
Y02855D01*
D02*
G37*
G36*
X0278D02*
X0283D01*
Y02605D01*
X0278D01*
Y02855D01*
D02*
G37*
G36*
X02125Y031325D02*
X02405D01*
Y030775D01*
X024D01*
X02125D01*
Y031325D01*
D02*
G37*
G36*
Y03225D02*
X02405D01*
Y03175D01*
X02125D01*
Y03225D01*
D02*
G37*
G36*
Y0333D02*
X02405D01*
Y0328D01*
X02125D01*
Y0333D01*
D02*
G37*
G36*
Y03425D02*
X02405D01*
Y03375D01*
X02125D01*
Y03425D01*
D02*
G37*
G36*
X0263Y038968D02*
X0258D01*
Y041502D01*
X0263D01*
Y038968D01*
D02*
G37*
G36*
X0283Y03895D02*
X0278D01*
Y0415D01*
X0283D01*
Y03895D01*
D02*
G37*
G36*
X02735D02*
X02685D01*
Y0415D01*
X02735D01*
Y03895D01*
D02*
G37*
G36*
X02405Y0368D02*
X02125D01*
Y0373D01*
X02405D01*
Y0368D01*
D02*
G37*
G36*
Y0358D02*
X02125D01*
Y0363D01*
X02405D01*
Y0358D01*
D02*
G37*
G36*
Y03475D02*
X02125D01*
Y03525D01*
X02405D01*
Y03475D01*
D02*
G37*
G36*
X03135Y038983D02*
X03085D01*
Y041517D01*
X03135D01*
Y038983D01*
D02*
G37*
G36*
X0303Y038973D02*
X0298D01*
Y041507D01*
X0303D01*
Y038973D01*
D02*
G37*
G36*
X0323Y038973D02*
X0318Y038976D01*
X0318Y041507D01*
X0323D01*
X0323Y038973D01*
D02*
G37*
G36*
X0293Y03895D02*
X0288D01*
Y0415D01*
X0293D01*
Y03895D01*
D02*
G37*
G36*
X036225Y0368D02*
X033475D01*
Y0373D01*
X036225D01*
Y0368D01*
D02*
G37*
G36*
X03625Y03625D02*
Y0358D01*
X0335Y0358D01*
Y03625D01*
X03625Y03625D01*
D02*
G37*
G36*
X036225Y03475D02*
X033475D01*
Y03525D01*
X036225D01*
Y03475D01*
D02*
G37*
G36*
X03625Y03375D02*
X0335D01*
Y03425D01*
X03625D01*
Y03375D01*
D02*
G37*
G36*
X036225Y0328D02*
X033475D01*
Y0333D01*
X036225D01*
Y0328D01*
D02*
G37*
G36*
X03625Y03175D02*
X0335D01*
Y03225D01*
X03625D01*
Y03175D01*
D02*
G37*
G36*
Y03075D02*
X0335D01*
Y03125D01*
X03625D01*
Y03075D01*
D02*
G37*
G36*
X0323Y026063D02*
X031813D01*
X0318Y02605D01*
Y028565D01*
X0323D01*
Y026063D01*
D02*
G37*
G36*
X0313Y02605D02*
X0308D01*
Y02855D01*
X0313D01*
Y02605D01*
D02*
G37*
G36*
X0303D02*
X0298D01*
Y02855D01*
X0303D01*
Y02605D01*
D02*
G37*
G36*
X0293D02*
X0288D01*
Y02855D01*
X0293D01*
Y02605D01*
D02*
G37*
G36*
X06005Y01904D02*
X06022Y01885D01*
X06034Y01865D01*
X06041Y01834D01*
X06039Y01806D01*
X06032Y01781D01*
X06023Y01766D01*
X06015Y01756D01*
X06003Y01747D01*
X05995Y0174D01*
Y01787D01*
X06002D01*
X06012Y0179D01*
X06018Y01794D01*
X06024Y01801D01*
X06029Y01808D01*
X06032Y01815D01*
X06033Y01825D01*
X06032Y01835D01*
X06029Y01844D01*
X06024Y01852D01*
X06017Y01857D01*
X06007Y01861D01*
X05995Y01863D01*
Y01909D01*
X06005Y01904D01*
D02*
G37*
G36*
X0633Y01685D02*
X06355D01*
Y01665D01*
X0633D01*
Y0165D01*
X06305Y01675D01*
X0633Y017D01*
Y01685D01*
D02*
G37*
G36*
X04705Y01768D02*
X04698D01*
X04688Y01765D01*
X04682Y01761D01*
X04676Y01754D01*
X04671Y01747D01*
X04668Y0174D01*
X04667Y0173D01*
X04668Y0172D01*
X04671Y01711D01*
X04676Y01703D01*
X04683Y01698D01*
X04693Y01694D01*
X04705Y01692D01*
Y01646D01*
X04695Y01651D01*
X04678Y0167D01*
X04666Y0169D01*
X04659Y01721D01*
X04661Y01749D01*
X04668Y01774D01*
X04677Y01789D01*
X04685Y01799D01*
X04697Y01808D01*
X04705Y01815D01*
Y01768D01*
D02*
G37*
G36*
X028653Y016226D02*
Y015543D01*
X028577Y015569D01*
X02857Y015574D01*
X028567Y015576D01*
X028566D01*
X028563Y015581D01*
X028562Y015586D01*
X02856Y015589D01*
Y01559D01*
Y016001D01*
X028316Y015993D01*
Y015948D01*
X028391Y015918D01*
X028399Y015914D01*
X028402Y015912D01*
X028404Y015911D01*
X028406Y015907D01*
X028409Y015903D01*
Y015898D01*
Y015897D01*
Y01559D01*
X028408Y015585D01*
X028406Y015581D01*
X028405Y015578D01*
X028404Y015576D01*
X028395Y015571D01*
X028391Y015569D01*
X02839D01*
X028315Y015543D01*
Y0155D01*
X028653D01*
Y01527D01*
X017048D01*
X017069Y015271D01*
X017087Y015272D01*
X017094Y015274D01*
X0171D01*
X017104Y015275D01*
X017105D01*
X017126Y015281D01*
X017144Y015289D01*
X017152Y015292D01*
X017158Y015295D01*
X017161Y015297D01*
X017162D01*
X017182Y015311D01*
X017198Y015328D01*
X017205Y015333D01*
X017209Y015339D01*
X017212Y015343D01*
X017214Y015345D01*
X017223Y015356D01*
X017232Y01537D01*
X017245Y015395D01*
X017251Y015406D01*
X017255Y015414D01*
X017257Y015419D01*
X017258Y015422D01*
X017459Y015915D01*
X017465Y015923D01*
X017466Y015925D01*
X017468Y015926D01*
X017476Y015933D01*
X017479Y015936D01*
X01748D01*
X017523Y015969D01*
Y016011D01*
X017308D01*
Y015969D01*
X017375Y015926D01*
X017266Y015658D01*
X017255D01*
X017233Y015723D01*
X017133Y015944D01*
X017201Y015969D01*
Y016011D01*
X016914D01*
Y015969D01*
X016957Y01595D01*
X016965Y015944D01*
X016968Y015943D01*
X016969Y015941D01*
X016973Y015937D01*
X016976Y015933D01*
X016979Y01593D01*
Y015929D01*
X01714Y015569D01*
X017197Y01549D01*
X01719Y015474D01*
X017184Y015463D01*
X01718Y015454D01*
X017179Y015453D01*
Y015451D01*
X017173Y01544D01*
X017169Y015432D01*
X017166Y015425D01*
X017165Y015424D01*
X017161Y015415D01*
X017157Y01541D01*
X017154Y015406D01*
X017152Y015404D01*
X017146Y015396D01*
X017143Y015393D01*
X017141Y015392D01*
X017139Y01539D01*
X017136D01*
X017132Y015389D01*
X017121D01*
X017115Y015388D01*
X017111D01*
X017107Y015389D01*
X017101D01*
X017094Y01539D01*
X017087D01*
X017083Y015392D01*
X01708D01*
X017071Y015393D01*
X017062Y015395D01*
X017057Y015396D01*
X017054D01*
X017044Y015397D01*
X017034Y015399D01*
X017029Y0154D01*
X017026D01*
X017016Y015403D01*
X017008Y015404D01*
X017003Y015406D01*
X017D01*
X016991Y015407D01*
X016986Y015408D01*
X016982Y01541D01*
X016943D01*
Y015285D01*
X016948Y015283D01*
X016955Y015281D01*
X016961Y015279D01*
X016964D01*
X016976Y015278D01*
X016987Y015277D01*
X016994Y015275D01*
X016997D01*
X017009Y015274D01*
X017019Y015272D01*
X017025Y015271D01*
X017028D01*
X017037Y01527D01*
X014883D01*
X014907Y015271D01*
X014929Y015272D01*
X01495Y015275D01*
X014968Y015278D01*
X014982Y015281D01*
X014993Y015282D01*
X015Y015285D01*
X015002D01*
X015022Y01529D01*
X01504Y015297D01*
X015055Y015303D01*
X015069Y01531D01*
X01508Y015315D01*
X015088Y01532D01*
X015094Y015322D01*
X015095Y015324D01*
X015109Y015333D01*
X015122Y015345D01*
X015133Y015354D01*
X015141Y015364D01*
X015148Y015372D01*
X015154Y015379D01*
X015157Y015383D01*
X015158Y015385D01*
X015165Y015399D01*
X01517Y015411D01*
X015175Y015425D01*
X015177Y015436D01*
X015179Y015447D01*
X01518Y015456D01*
Y015461D01*
Y015463D01*
X015179Y015481D01*
X015176Y015497D01*
X015173Y015503D01*
X015172Y015508D01*
X01517Y015511D01*
Y015512D01*
X015162Y015531D01*
X015152Y015544D01*
X015147Y01555D01*
X015144Y015554D01*
X015141Y015556D01*
X01514Y015557D01*
X015132Y015564D01*
X015122Y015571D01*
X015102Y015582D01*
X015094Y015585D01*
X015087Y015587D01*
X015083Y01559D01*
X015082D01*
X015068Y015594D01*
X015052Y015599D01*
X015037Y015601D01*
X015022Y015603D01*
X015009Y015604D01*
X014801D01*
X014791Y015608D01*
X014789Y01561D01*
X014787D01*
X01478Y015615D01*
X014778Y015618D01*
X014776D01*
X014771Y015625D01*
X014769Y015626D01*
Y015628D01*
X014766Y015637D01*
Y01564D01*
Y015642D01*
Y015647D01*
X014768Y015653D01*
X014769Y015655D01*
Y015657D01*
X014773Y015665D01*
X014776Y015668D01*
Y015669D01*
X014782Y015678D01*
X014785Y015679D01*
Y01568D01*
X014791Y015686D01*
X014794Y015687D01*
X014805Y015683D01*
X014816Y015682D01*
X014825Y015679D01*
X014829D01*
X014848Y015678D01*
X014868Y015676D01*
X014909D01*
X014927Y015678D01*
X014944Y01568D01*
X014959Y015683D01*
X014971Y015685D01*
X01498Y015687D01*
X014986Y015689D01*
X014987D01*
X015004Y015694D01*
X015018Y0157D01*
X01503Y015705D01*
X015041Y01571D01*
X01505Y015715D01*
X015057Y015719D01*
X015061Y015721D01*
X015062Y015722D01*
X015073Y01573D01*
X015082Y01574D01*
X01509Y015748D01*
X015097Y015757D01*
X015101Y015764D01*
X015105Y015769D01*
X015108Y015773D01*
Y015775D01*
X015113Y015786D01*
X015118Y015798D01*
X01512Y01581D01*
X015123Y015819D01*
Y015829D01*
X015125Y015836D01*
Y01584D01*
Y015841D01*
Y015853D01*
X015123Y015862D01*
X015122Y015868D01*
Y015871D01*
X01512Y015879D01*
X015118Y015886D01*
X015116Y015891D01*
X015115Y015893D01*
X015112Y015901D01*
X015108Y015907D01*
X015107Y015911D01*
X015105Y015912D01*
X015101Y015918D01*
X015097Y015923D01*
X015094Y015926D01*
X015093Y015927D01*
Y015934D01*
X015205D01*
Y016011D01*
X015027D01*
X015005Y016014D01*
X014994Y016015D01*
X014984Y016016D01*
X014976Y016018D01*
X014969Y016019D01*
X014964D01*
X014939Y016022D01*
X014926Y016023D01*
X014915Y016025D01*
X014872D01*
X014854Y016022D01*
X014837Y01602D01*
X014822Y016018D01*
X014811Y016015D01*
X014801Y016014D01*
X014796Y016011D01*
X014794D01*
X014779Y016005D01*
X014765Y016D01*
X014753Y015994D01*
X014741Y015987D01*
X014733Y015982D01*
X014726Y015977D01*
X014722Y015975D01*
X014721Y015973D01*
X014701Y015954D01*
X014687Y015936D01*
X014682Y015929D01*
X014678Y015922D01*
X014676Y015918D01*
X014675Y015916D01*
X014669Y015904D01*
X014667Y015891D01*
X014664Y015879D01*
X014661Y015868D01*
Y015858D01*
X01466Y015851D01*
Y015846D01*
Y015844D01*
X014661Y015826D01*
X014664Y01581D01*
X014665Y015804D01*
X014667Y0158D01*
X014668Y015797D01*
Y015796D01*
X014676Y01578D01*
X014683Y015769D01*
X014689Y015761D01*
X014692Y01576D01*
Y015758D01*
X014703Y015747D01*
X014712Y015739D01*
X014719Y015732D01*
X014722Y01573D01*
X014733Y015723D01*
X014743Y015718D01*
X014748Y015714D01*
X014751Y015712D01*
Y015705D01*
X01474Y015703D01*
X014729Y015698D01*
X014721Y015696D01*
X014719Y015694D01*
X014718D01*
X014705Y015689D01*
X014696Y015682D01*
X014689Y015676D01*
X014687Y015674D01*
X014686D01*
X014676Y015664D01*
X014669Y015654D01*
X014664Y015646D01*
X014662Y015644D01*
Y015643D01*
X014658Y01563D01*
X014655Y015618D01*
X014654Y015612D01*
Y015608D01*
Y015605D01*
Y015604D01*
X014655Y015592D01*
X014658Y015581D01*
X01466Y015574D01*
X014661Y015572D01*
Y015571D01*
X014668Y01556D01*
X014675Y015551D01*
X01468Y015546D01*
X014682Y015543D01*
X014692Y015535D01*
X0147Y015529D01*
X014707Y015525D01*
X01471Y015524D01*
X014722Y015518D01*
X014733Y015514D01*
X01474Y015512D01*
X014741Y015511D01*
X014743D01*
Y015504D01*
X014725Y0155D01*
X014708Y015496D01*
X014703Y015494D01*
X014698Y015493D01*
X014696Y015492D01*
X014694D01*
X014679Y015485D01*
X014668Y015476D01*
X01466Y015472D01*
X014658Y015469D01*
X014657D01*
X014647Y01546D01*
X014639Y01545D01*
X014635Y015443D01*
X014633Y015442D01*
Y01544D01*
X014629Y015426D01*
X014626Y015413D01*
X014625Y015407D01*
Y015399D01*
X014626Y015388D01*
X014628Y015378D01*
X01463Y015368D01*
X014635Y01536D01*
X014639Y015354D01*
X014642Y015349D01*
X014643Y015346D01*
X014644Y015345D01*
X014653Y015336D01*
X014661Y015328D01*
X014679Y015315D01*
X014686Y01531D01*
X014693Y015307D01*
X014697Y015306D01*
X014698Y015304D01*
X014726Y015293D01*
X01474Y015289D01*
X014753Y015286D01*
X014764Y015283D01*
X014772Y015281D01*
X014779Y015279D01*
X01478D01*
X014816Y015274D01*
X014833Y015272D01*
X01485Y015271D01*
X014864Y01527D01*
X012299D01*
Y0155D01*
X012633D01*
X012662Y015501D01*
X012689Y015503D01*
X012714Y015506D01*
X012734Y01551D01*
X012752Y015514D01*
X012766Y015517D01*
X012771Y015518D01*
X012775D01*
X012776Y015519D01*
X012777D01*
X012801Y015528D01*
X012823Y015537D01*
X012844Y015547D01*
X012861Y015557D01*
X012875Y015567D01*
X012886Y015574D01*
X012891Y015579D01*
X012894Y015581D01*
X012912Y015597D01*
X012927Y015614D01*
X012941Y015632D01*
X012952Y015649D01*
X012961Y015662D01*
X012966Y015675D01*
X01297Y015682D01*
X012972Y015685D01*
X012982Y01571D01*
X012988Y015735D01*
X012994Y01576D01*
X012997Y015782D01*
X013Y015803D01*
X013001Y015819D01*
Y015857D01*
X012998Y01588D01*
X012995Y0159D01*
X012993Y015918D01*
X01299Y015932D01*
X012987Y015943D01*
X012986Y015948D01*
X012984Y015951D01*
X012977Y015969D01*
X01297Y015986D01*
X012963Y016001D01*
X012957Y016014D01*
X01295Y016025D01*
X012944Y016032D01*
X012941Y016037D01*
X01294Y016039D01*
X012929Y016052D01*
X012918Y016064D01*
X012907Y016075D01*
X012897Y016084D01*
X012889Y016091D01*
X012882Y016097D01*
X012876Y0161D01*
X012875Y016101D01*
X012847Y016118D01*
X012834Y016125D01*
X012823Y01613D01*
X012814Y016136D01*
X012805Y016138D01*
X0128Y016141D01*
X012798D01*
X012769Y016151D01*
X012755Y016155D01*
X012744Y016158D01*
X012733Y016159D01*
X012725Y016161D01*
X012719Y016162D01*
X012718D01*
X012689Y016166D01*
X012676Y016168D01*
X012664D01*
X012654Y016169D01*
X012299D01*
Y01627D01*
X027884D01*
X027876Y016269D01*
X027871Y016268D01*
X027869Y016266D01*
X027862Y016263D01*
X027857Y016259D01*
X027853Y016256D01*
X027851Y016255D01*
X027846Y016251D01*
X027841Y016245D01*
X027839Y016241D01*
X027837Y01624D01*
X027834Y016234D01*
X027833Y016229D01*
Y016225D01*
Y016223D01*
X027834Y016211D01*
X027837Y0162D01*
X02784Y016194D01*
X027841Y016191D01*
X027851Y016182D01*
X027861Y016173D01*
X027869Y016166D01*
X027872Y016165D01*
X027873Y016163D01*
X027882Y016158D01*
X02789Y016152D01*
X027896Y016148D01*
X027897Y016147D01*
X027908Y01614D01*
X027918Y016134D01*
X027926Y016129D01*
X027927Y016127D01*
X027929D01*
X027944Y016119D01*
X027958Y016111D01*
X027965Y016107D01*
X027969Y016104D01*
X027972Y016102D01*
X027973Y016101D01*
X027994Y016089D01*
X028014Y016077D01*
X028022Y016072D01*
X028029Y016069D01*
X028033Y016066D01*
X028034Y016065D01*
X028068Y016089D01*
X028052Y016109D01*
X028045Y016118D01*
X028041Y016126D01*
X028036Y016132D01*
X028033Y016136D01*
X028032Y016138D01*
X02803Y01614D01*
X02802Y016155D01*
X028012Y016168D01*
X028007Y016175D01*
X028005Y016177D01*
X027998Y016188D01*
X027993Y016198D01*
X027989Y016204D01*
X027987Y016205D01*
X027982Y016213D01*
X027976Y016222D01*
X027972Y016227D01*
X027971Y016229D01*
X027964Y016237D01*
X027957Y016244D01*
X027952Y016248D01*
X027951Y01625D01*
X027944Y016255D01*
X027937Y016259D01*
X027933Y016261D01*
X027932Y016262D01*
X027925Y016265D01*
X027919Y016266D01*
X027915Y016268D01*
X027914D01*
X027907Y016269D01*
X0279Y01627D01*
X028653D01*
Y016226D01*
D02*
G37*
G36*
X014902Y015961D02*
X014914Y015959D01*
X014921Y015957D01*
X014923Y015955D01*
X014933Y01595D01*
X014941Y015943D01*
X014947Y015937D01*
X014948Y015934D01*
X014955Y015923D01*
X014961Y015911D01*
X014964Y015903D01*
X014965Y0159D01*
Y015898D01*
X014968Y015882D01*
X014971Y015865D01*
Y015858D01*
Y015854D01*
Y01585D01*
Y015848D01*
X014969Y015828D01*
Y015818D01*
X014968Y015811D01*
X014966Y015804D01*
Y0158D01*
X014965Y015797D01*
Y015796D01*
X014959Y01578D01*
X014955Y015769D01*
X01495Y015762D01*
X014948Y01576D01*
X01494Y01575D01*
X014932Y015744D01*
X014926Y01574D01*
X014925Y015739D01*
X014923D01*
X014911Y015736D01*
X0149Y015735D01*
X014891Y015733D01*
X014889D01*
X014878Y015735D01*
X014868Y015736D01*
X014862Y015737D01*
X014859Y015739D01*
X014851Y015744D01*
X014844Y015751D01*
X014839Y015757D01*
X014837Y01576D01*
X01483Y015771D01*
X014826Y015783D01*
X014823Y015791D01*
X014822Y015794D01*
Y015796D01*
X014819Y015814D01*
X014818Y01583D01*
X014816Y015837D01*
Y015843D01*
Y015847D01*
Y015848D01*
X014818Y015871D01*
Y01588D01*
X014819Y015889D01*
X014821Y015894D01*
Y015898D01*
X014822Y015901D01*
Y015903D01*
X014828Y015918D01*
X014833Y015929D01*
X014837Y015934D01*
X014839Y015937D01*
X014847Y015946D01*
X014855Y015952D01*
X014861Y015955D01*
X014864Y015957D01*
X014873Y015959D01*
X014882Y015962D01*
X01489D01*
X014902Y015961D01*
D02*
G37*
G36*
X012636Y016083D02*
X012653Y016082D01*
X012666Y016079D01*
X01268Y016075D01*
X01269Y01607D01*
X012698Y016068D01*
X012704Y016066D01*
X012705Y016065D01*
X012719Y016058D01*
X012733Y01605D01*
X012744Y01604D01*
X012754Y016032D01*
X012762Y016025D01*
X012768Y016018D01*
X012772Y016014D01*
X012773Y016012D01*
X012783Y016D01*
X012791Y015986D01*
X012798Y015972D01*
X012805Y015959D01*
X012809Y015947D01*
X012812Y015939D01*
X012815Y015933D01*
Y01593D01*
X012821Y015912D01*
X012823Y015893D01*
X012826Y015875D01*
X012829Y015857D01*
Y015843D01*
X01283Y01583D01*
Y015823D01*
Y015822D01*
Y015821D01*
Y0158D01*
X012829Y01578D01*
X012827Y015764D01*
X012825Y015748D01*
X012823Y015736D01*
X012821Y015728D01*
X012819Y015721D01*
Y015719D01*
X012815Y015704D01*
X012809Y01569D01*
X012804Y015678D01*
X012798Y015667D01*
X012793Y015658D01*
X012789Y015651D01*
X012786Y015647D01*
X012784Y015646D01*
X012776Y015635D01*
X012766Y015626D01*
X012757Y015618D01*
X012747Y015611D01*
X012739Y015607D01*
X012732Y015603D01*
X012728Y015601D01*
X012726Y0156D01*
X012712Y015594D01*
X012698Y015592D01*
X012684Y015589D01*
X012671Y015586D01*
X012659D01*
X01265Y015585D01*
X012548D01*
Y016084D01*
X012618D01*
X012636Y016083D01*
D02*
G37*
G36*
X012374Y016095D02*
X012382Y016091D01*
X012383Y01609D01*
X012385Y016089D01*
X012387Y016084D01*
X01239Y01608D01*
Y016076D01*
Y016075D01*
Y015594D01*
X012389Y015587D01*
X012387Y015583D01*
X012386Y015581D01*
X012385Y015579D01*
X012378Y015574D01*
X012375Y015572D01*
X012374D01*
X012299Y015543D01*
Y016126D01*
X012374Y016095D01*
D02*
G37*
G36*
X014986Y015492D02*
X014993Y01549D01*
X014995Y015489D01*
X015007Y015485D01*
X015015Y015481D01*
X01502Y015476D01*
X015022Y015475D01*
X015029Y015468D01*
X015033Y015461D01*
X015034Y015456D01*
X015036Y015454D01*
X015039Y015446D01*
X015041Y015438D01*
Y015432D01*
Y015431D01*
X01504Y015413D01*
X015036Y015399D01*
X015033Y015393D01*
X01503Y015389D01*
X015029Y015388D01*
Y015386D01*
X015019Y015374D01*
X015009Y015365D01*
X015001Y015358D01*
X015Y015357D01*
X014998D01*
X014983Y01535D01*
X014969Y015346D01*
X014964Y015343D01*
X014959D01*
X014957Y015342D01*
X014955D01*
X014939Y015339D01*
X014923Y015338D01*
X014908D01*
X014894Y015339D01*
X014882Y01534D01*
X014876D01*
X014872Y015342D01*
X014868D01*
X014851Y015346D01*
X014839Y015351D01*
X014833Y015353D01*
X014829Y015356D01*
X014826Y015357D01*
X014825D01*
X014811Y015365D01*
X014798Y015375D01*
X014791Y015382D01*
X01479Y015383D01*
X014789Y015385D01*
X01478Y015399D01*
X014776Y015413D01*
Y015418D01*
X014775Y015424D01*
Y015426D01*
Y015428D01*
X014776Y015444D01*
X014779Y015456D01*
X014782Y015464D01*
X014783Y015467D01*
X014789Y015478D01*
X014794Y015486D01*
X014798Y015492D01*
X0148Y015493D01*
X014973D01*
X014986Y015492D01*
D02*
G37*
G36*
X026375Y01502D02*
Y014307D01*
X026318Y014331D01*
X02631Y014336D01*
X026307Y014339D01*
X026306D01*
X026303Y014343D01*
X026302Y014347D01*
X0263Y014351D01*
Y014353D01*
Y01477D01*
X026073Y014748D01*
Y014704D01*
X026131Y014679D01*
X026139Y014673D01*
X026142Y014672D01*
X026144Y014671D01*
X026146Y014666D01*
X026149Y014662D01*
Y014658D01*
Y014657D01*
Y014379D01*
X026142Y014369D01*
X026135Y014362D01*
X026131Y014358D01*
X026128Y014357D01*
X02612Y014353D01*
X026112Y014349D01*
X026106Y014347D01*
X026103Y014346D01*
X026094Y014343D01*
X026085Y014342D01*
X02608Y01434D01*
X026077D01*
X026067Y014339D01*
X026052D01*
X026034Y01434D01*
X02602Y014343D01*
X026015Y014344D01*
X02601Y014346D01*
X026009Y014347D01*
X026008D01*
X025996Y014354D01*
X025988Y014362D01*
X025983Y014369D01*
X025981Y014372D01*
X025976Y014386D01*
X025971Y014399D01*
X02597Y014404D01*
X025969Y014408D01*
Y014411D01*
Y014412D01*
X025967Y014432D01*
X025966Y01445D01*
Y014458D01*
Y014464D01*
Y014468D01*
Y014469D01*
Y01477D01*
X025738Y014748D01*
Y014704D01*
X025797Y014679D01*
X025805Y014673D01*
X025806Y014672D01*
X025808Y014671D01*
X02581Y014666D01*
X025813Y014662D01*
Y014658D01*
Y014657D01*
Y01441D01*
Y014393D01*
X025815Y014379D01*
X025817Y014365D01*
X02582Y014354D01*
X025822Y014344D01*
X025824Y014337D01*
X025826Y014333D01*
Y014332D01*
X025837Y01431D01*
X025844Y014301D01*
X025849Y014293D01*
X025854Y014287D01*
X025858Y014283D01*
X02586Y014281D01*
X025862Y014279D01*
X02588Y014265D01*
X025897Y014257D01*
X025903Y014254D01*
X025909Y014251D01*
X025913Y01425D01*
X025915D01*
X025938Y014244D01*
X025949Y014243D01*
X025959Y014242D01*
X025967Y01424D01*
X025995D01*
X026009Y014242D01*
X026013D01*
X026017Y014243D01*
X026021D01*
X026037Y014246D01*
X026051Y01425D01*
X026055Y014251D01*
X026059Y014253D01*
X026062Y014254D01*
X026063D01*
X02608Y014261D01*
X026094Y014269D01*
X026099Y014274D01*
X026103Y014276D01*
X026106Y014279D01*
X026108D01*
X026124Y014293D01*
X026138Y014308D01*
X026144Y014314D01*
X026148Y014319D01*
X026151Y014322D01*
X026152Y014324D01*
X026159D01*
Y01424D01*
X026375Y014262D01*
Y01424D01*
Y01402D01*
X019334D01*
X019355Y014021D01*
X019373Y014022D01*
X01938Y014024D01*
X019385D01*
X01939Y014025D01*
X019391D01*
X019412Y014031D01*
X01943Y014039D01*
X019438Y014042D01*
X019444Y014045D01*
X019447Y014047D01*
X019448D01*
X019467Y014061D01*
X019484Y014078D01*
X019491Y014083D01*
X019495Y014089D01*
X019498Y014093D01*
X019499Y014095D01*
X019509Y014106D01*
X019517Y01412D01*
X019531Y014145D01*
X019537Y014156D01*
X019541Y014164D01*
X019542Y014169D01*
X019544Y014172D01*
X019745Y014665D01*
X01975Y014673D01*
X019752Y014675D01*
X019753Y014676D01*
X019762Y014683D01*
X019764Y014686D01*
X019766D01*
X019809Y014719D01*
Y014761D01*
X019594D01*
Y014719D01*
X01966Y014676D01*
X019552Y014408D01*
X019541D01*
X019519Y014473D01*
X019419Y014694D01*
X019487Y014719D01*
Y014761D01*
X019199D01*
Y014719D01*
X019242Y0147D01*
X019251Y014694D01*
X019254Y014693D01*
X019255Y014691D01*
X019259Y014687D01*
X019262Y014683D01*
X019265Y01468D01*
Y014679D01*
X019426Y014319D01*
X019483Y01424D01*
X019476Y014224D01*
X01947Y014213D01*
X019466Y014204D01*
X019465Y014203D01*
Y014201D01*
X019459Y01419D01*
X019455Y014182D01*
X019452Y014175D01*
X019451Y014174D01*
X019447Y014165D01*
X019442Y01416D01*
X01944Y014156D01*
X019438Y014154D01*
X019431Y014146D01*
X019428Y014143D01*
X019427Y014142D01*
X019424Y01414D01*
X019422D01*
X019417Y014139D01*
X019406D01*
X019401Y014138D01*
X019397D01*
X019392Y014139D01*
X019387D01*
X01938Y01414D01*
X019373D01*
X019369Y014142D01*
X019366D01*
X019356Y014143D01*
X019348Y014145D01*
X019342Y014146D01*
X01934D01*
X01933Y014147D01*
X01932Y014149D01*
X019315Y01415D01*
X019312D01*
X019302Y014153D01*
X019294Y014154D01*
X019288Y014156D01*
X019285D01*
X019277Y014157D01*
X019272Y014158D01*
X019267Y01416D01*
X019229D01*
Y014035D01*
X019234Y014033D01*
X019241Y014031D01*
X019247Y014029D01*
X019249D01*
X019262Y014028D01*
X019273Y014027D01*
X01928Y014025D01*
X019283D01*
X019295Y014024D01*
X019305Y014022D01*
X01931Y014021D01*
X019313D01*
X019323Y01402D01*
X018156D01*
X018179Y014021D01*
X018201Y014022D01*
X018222Y014025D01*
X01824Y014028D01*
X018254Y014031D01*
X018265Y014032D01*
X018272Y014035D01*
X018275D01*
X018294Y01404D01*
X018313Y014047D01*
X018328Y014053D01*
X018342Y01406D01*
X018353Y014065D01*
X018361Y01407D01*
X018367Y014072D01*
X018368Y014074D01*
X018382Y014083D01*
X018394Y014095D01*
X018405Y014104D01*
X018414Y014114D01*
X018421Y014122D01*
X018426Y014129D01*
X018429Y014133D01*
X01843Y014135D01*
X018437Y014149D01*
X018443Y014161D01*
X018447Y014175D01*
X01845Y014186D01*
X018451Y014197D01*
X018453Y014206D01*
Y014211D01*
Y014213D01*
X018451Y014231D01*
X018449Y014247D01*
X018446Y014253D01*
X018444Y014258D01*
X018443Y014261D01*
Y014262D01*
X018435Y014281D01*
X018425Y014294D01*
X018419Y0143D01*
X018417Y014304D01*
X018414Y014306D01*
X018412Y014307D01*
X018404Y014314D01*
X018394Y014321D01*
X018375Y014332D01*
X018367Y014335D01*
X01836Y014337D01*
X018356Y01434D01*
X018354D01*
X01834Y014344D01*
X018325Y014349D01*
X01831Y014351D01*
X018294Y014353D01*
X018282Y014354D01*
X018074D01*
X018064Y014358D01*
X018061Y01436D01*
X01806D01*
X018053Y014365D01*
X01805Y014368D01*
X018049D01*
X018043Y014375D01*
X018042Y014376D01*
Y014378D01*
X018039Y014387D01*
Y01439D01*
Y014392D01*
Y014397D01*
X01804Y014403D01*
X018042Y014405D01*
Y014407D01*
X018046Y014415D01*
X018049Y014418D01*
Y014419D01*
X018054Y014428D01*
X018057Y014429D01*
Y01443D01*
X018064Y014436D01*
X018067Y014437D01*
X018078Y014433D01*
X018089Y014432D01*
X018097Y014429D01*
X018102D01*
X018121Y014428D01*
X01814Y014426D01*
X018182D01*
X0182Y014428D01*
X018217Y01443D01*
X018232Y014433D01*
X018243Y014435D01*
X018253Y014437D01*
X018258Y014439D01*
X01826D01*
X018276Y014444D01*
X01829Y01445D01*
X018303Y014455D01*
X018314Y01446D01*
X018322Y014465D01*
X018329Y014469D01*
X018333Y014471D01*
X018335Y014472D01*
X018346Y01448D01*
X018354Y01449D01*
X018362Y014498D01*
X018369Y014507D01*
X018374Y014514D01*
X018378Y014519D01*
X018381Y014523D01*
Y014525D01*
X018386Y014536D01*
X01839Y014548D01*
X018393Y01456D01*
X018396Y014569D01*
Y014579D01*
X018397Y014586D01*
Y01459D01*
Y014591D01*
Y014603D01*
X018396Y014612D01*
X018394Y014618D01*
Y014621D01*
X018393Y014629D01*
X01839Y014636D01*
X018389Y014641D01*
X018387Y014643D01*
X018385Y014651D01*
X018381Y014657D01*
X018379Y014661D01*
X018378Y014662D01*
X018374Y014668D01*
X018369Y014673D01*
X018367Y014676D01*
X018365Y014677D01*
Y014684D01*
X018478D01*
Y014761D01*
X0183D01*
X018278Y014764D01*
X018267Y014765D01*
X018257Y014766D01*
X018249Y014768D01*
X018242Y014769D01*
X018236D01*
X018211Y014772D01*
X018199Y014773D01*
X018188Y014775D01*
X018145D01*
X018127Y014772D01*
X01811Y01477D01*
X018095Y014768D01*
X018083Y014765D01*
X018074Y014764D01*
X018068Y014761D01*
X018067D01*
X018052Y014755D01*
X018038Y01475D01*
X018025Y014744D01*
X018014Y014737D01*
X018006Y014732D01*
X017999Y014727D01*
X017995Y014725D01*
X017993Y014723D01*
X017974Y014704D01*
X01796Y014686D01*
X017954Y014679D01*
X01795Y014672D01*
X017949Y014668D01*
X017947Y014666D01*
X017942Y014654D01*
X017939Y014641D01*
X017936Y014629D01*
X017934Y014618D01*
Y014608D01*
X017932Y014601D01*
Y014596D01*
Y014594D01*
X017934Y014576D01*
X017936Y01456D01*
X017938Y014554D01*
X017939Y01455D01*
X017941Y014547D01*
Y014546D01*
X017949Y01453D01*
X017956Y014519D01*
X017961Y014511D01*
X017964Y01451D01*
Y014508D01*
X017975Y014497D01*
X017985Y014489D01*
X017992Y014482D01*
X017995Y01448D01*
X018006Y014473D01*
X018015Y014468D01*
X018021Y014464D01*
X018024Y014462D01*
Y014455D01*
X018013Y014453D01*
X018002Y014448D01*
X017993Y014446D01*
X017992Y014444D01*
X01799D01*
X017978Y014439D01*
X017968Y014432D01*
X017961Y014426D01*
X01796Y014424D01*
X017959D01*
X017949Y014414D01*
X017942Y014404D01*
X017936Y014396D01*
X017935Y014394D01*
Y014393D01*
X017931Y01438D01*
X017928Y014368D01*
X017927Y014362D01*
Y014358D01*
Y014355D01*
Y014354D01*
X017928Y014342D01*
X017931Y014331D01*
X017932Y014324D01*
X017934Y014322D01*
Y014321D01*
X017941Y01431D01*
X017947Y014301D01*
X017953Y014296D01*
X017954Y014293D01*
X017964Y014285D01*
X017972Y014279D01*
X017979Y014275D01*
X017982Y014274D01*
X017995Y014268D01*
X018006Y014264D01*
X018013Y014262D01*
X018014Y014261D01*
X018015D01*
Y014254D01*
X017997Y01425D01*
X017981Y014246D01*
X017975Y014244D01*
X017971Y014243D01*
X017968Y014242D01*
X017967D01*
X017952Y014235D01*
X017941Y014226D01*
X017932Y014222D01*
X017931Y014219D01*
X017929D01*
X01792Y01421D01*
X017911Y0142D01*
X017907Y014193D01*
X017906Y014192D01*
Y01419D01*
X017902Y014176D01*
X017899Y014163D01*
X017897Y014157D01*
Y014149D01*
X017899Y014138D01*
X0179Y014128D01*
X017903Y014118D01*
X017907Y01411D01*
X017911Y014104D01*
X017914Y014099D01*
X017916Y014096D01*
X017917Y014095D01*
X017925Y014086D01*
X017934Y014078D01*
X017952Y014065D01*
X017959Y01406D01*
X017966Y014057D01*
X01797Y014056D01*
X017971Y014054D01*
X017999Y014043D01*
X018013Y014039D01*
X018025Y014036D01*
X018036Y014033D01*
X018045Y014031D01*
X018052Y014029D01*
X018053D01*
X018089Y014024D01*
X018106Y014022D01*
X018122Y014021D01*
X018136Y01402D01*
X013559D01*
Y014235D01*
Y014582D01*
X01356Y014551D01*
X013563Y014522D01*
X013567Y014497D01*
X013572Y014475D01*
X013578Y014457D01*
X013582Y014443D01*
X013584Y014439D01*
X013585Y014435D01*
X013586Y014433D01*
Y014432D01*
X013597Y014408D01*
X01361Y014387D01*
X013622Y014368D01*
X013635Y014353D01*
X013646Y01434D01*
X013654Y014331D01*
X01366Y014324D01*
X013663Y014322D01*
X013682Y014307D01*
X0137Y014294D01*
X01372Y014283D01*
X013738Y014274D01*
X013753Y014267D01*
X013764Y014261D01*
X013772Y014258D01*
X013775Y014257D01*
X0138Y01425D01*
X013824Y014244D01*
X013847Y01424D01*
X013868Y014238D01*
X013886Y014236D01*
X0139Y014235D01*
X013913D01*
X01394Y014236D01*
X013954D01*
X013965Y014238D01*
X013975D01*
X013982Y014239D01*
X013989D01*
X014017Y014243D01*
X014029Y014244D01*
X014042Y014246D01*
X01405Y014247D01*
X014058Y014249D01*
X014062Y01425D01*
X014064D01*
X01409Y014254D01*
X014103Y014257D01*
X014114Y01426D01*
X014122Y014261D01*
X014129Y014262D01*
X014133Y014264D01*
X014135D01*
X014158Y014271D01*
X014169Y014274D01*
X014179Y014276D01*
X014186Y014279D01*
X014192Y014281D01*
X014196Y014282D01*
X014197D01*
X014196Y014297D01*
X014194Y014312D01*
X014193Y014319D01*
Y014325D01*
Y014329D01*
Y014331D01*
Y014343D01*
Y014355D01*
Y014368D01*
Y01438D01*
Y01439D01*
Y0144D01*
Y014405D01*
Y014407D01*
Y014479D01*
X014194Y014485D01*
X014196Y014489D01*
X014197Y014492D01*
X014198D01*
X014207Y014497D01*
X014208Y0145D01*
X01421D01*
X014268Y014532D01*
Y014573D01*
X013919D01*
Y014532D01*
X014019Y0145D01*
X014028Y014496D01*
X014029Y014494D01*
X014031Y014493D01*
X014033Y014489D01*
X014036Y014485D01*
Y01448D01*
Y014479D01*
Y014343D01*
X014031Y01434D01*
X014025Y014339D01*
X014019Y014337D01*
X014018Y014336D01*
X01401Y014333D01*
X014003Y014331D01*
X013997Y014329D01*
X013994Y014328D01*
X013985Y014325D01*
X013975Y014322D01*
X013968Y014321D01*
X013965D01*
X013953Y014319D01*
X013942Y014318D01*
X013929D01*
X013911Y014319D01*
X013896Y014321D01*
X013881Y014324D01*
X013868Y014328D01*
X013857Y014332D01*
X01385Y014335D01*
X013845Y014336D01*
X013843Y014337D01*
X013829Y014346D01*
X013817Y014355D01*
X013807Y014365D01*
X013797Y014375D01*
X013789Y014383D01*
X013783Y01439D01*
X013781Y014394D01*
X013779Y014396D01*
X013763Y014425D01*
X013756Y01444D01*
X01375Y014454D01*
X013746Y014467D01*
X013743Y014476D01*
X01374Y014482D01*
Y014485D01*
X013733Y014525D01*
X013731Y014544D01*
X013729Y014562D01*
Y014578D01*
X013728Y014589D01*
Y014597D01*
Y0146D01*
Y014623D01*
X013731Y014644D01*
X013732Y014662D01*
X013735Y014679D01*
X013738Y014691D01*
X013739Y014701D01*
X013742Y014708D01*
Y014709D01*
X013747Y014726D01*
X013754Y014741D01*
X013761Y014755D01*
X013768Y014766D01*
X013774Y014775D01*
X013778Y014782D01*
X013781Y014786D01*
X013782Y014787D01*
X013792Y014798D01*
X013803Y014808D01*
X013814Y014816D01*
X013824Y014823D01*
X013832Y014827D01*
X013839Y014832D01*
X013843Y014834D01*
X013845D01*
X013858Y01484D01*
X013872Y014843D01*
X013885Y014845D01*
X013897Y014848D01*
X013907D01*
X013915Y01485D01*
X013935D01*
X013947Y014848D01*
X013956Y014847D01*
X013958D01*
X013972Y014844D01*
X013986Y014843D01*
X013992Y014841D01*
X013994D01*
X013997Y01484D01*
X013999D01*
X014014Y014837D01*
X014026Y014833D01*
X014032Y014832D01*
X014036D01*
X014037Y01483D01*
X014039D01*
X014053Y014826D01*
X014064Y014822D01*
X014072Y014819D01*
X014074Y014818D01*
X014075D01*
X014083Y014812D01*
X014086Y014811D01*
X014087Y014809D01*
X014092Y014807D01*
X014094Y014802D01*
X014096Y0148D01*
Y014798D01*
X014118Y014709D01*
X014189D01*
Y0149D01*
X014172Y014904D01*
X014157Y014908D01*
X014151Y014909D01*
X014146D01*
X014143Y014911D01*
X014142D01*
X014122Y014915D01*
X014104Y014919D01*
X014096Y01492D01*
X01409D01*
X014086Y014922D01*
X014085D01*
X014061Y014926D01*
X014049Y014927D01*
X014037Y014929D01*
X014028D01*
X014021Y01493D01*
X014014D01*
X013983Y014933D01*
X013968D01*
X013954Y014934D01*
X013924D01*
X013894Y014933D01*
X013867Y01493D01*
X013842Y014926D01*
X013821Y014922D01*
X013803Y014918D01*
X013789Y014913D01*
X013783Y014912D01*
X013779Y014911D01*
X013778Y014909D01*
X013777D01*
X013753Y0149D01*
X013731Y014887D01*
X013711Y014876D01*
X013695Y014865D01*
X013681Y014854D01*
X01367Y014845D01*
X013664Y01484D01*
X013661Y014839D01*
X013645Y01482D01*
X013629Y014802D01*
X013616Y014783D01*
X013604Y014766D01*
X013596Y014751D01*
X013591Y014739D01*
X013586Y01473D01*
X013585Y014729D01*
Y014727D01*
X013577Y014702D01*
X01357Y014677D01*
X013566Y014654D01*
X013561Y01463D01*
X01356Y014611D01*
X013559Y014596D01*
Y014934D01*
Y015181D01*
X020257D01*
X020253Y015165D01*
X020247Y015152D01*
X020242Y015145D01*
X02024Y015142D01*
X020231Y015136D01*
X020221Y015131D01*
X020214Y01513D01*
X020211D01*
X020204Y015131D01*
X020197Y015133D01*
X020192Y015134D01*
X020189D01*
X020178Y01514D01*
X020168Y015145D01*
X02016Y015149D01*
X020157Y015151D01*
X020156D01*
X020139Y015159D01*
X020127Y015165D01*
X020121Y015166D01*
X020117Y015167D01*
X020114Y015169D01*
X020113D01*
X020099Y015173D01*
X020088Y015174D01*
X020081Y015176D01*
X020078D01*
X020061Y015174D01*
X020048Y01517D01*
X020042Y015169D01*
X020038Y015166D01*
X020035Y015165D01*
X020034D01*
X020018Y015155D01*
X020007Y015145D01*
X019999Y015137D01*
X019998Y015134D01*
X019996Y015133D01*
X019985Y015117D01*
X019977Y015102D01*
X019974Y015095D01*
X019971Y01509D01*
X01997Y015087D01*
Y015086D01*
X019964Y015065D01*
X019959Y015047D01*
X019957Y015038D01*
Y015033D01*
X019956Y015029D01*
Y015027D01*
X020011D01*
X020016Y015044D01*
X020023Y015056D01*
X020027Y015065D01*
X020029Y015068D01*
X020035Y015073D01*
X020041Y015076D01*
X02005Y015081D01*
X020057Y015083D01*
X02006D01*
X020066Y015081D01*
X020072Y01508D01*
X020078Y015079D01*
X020081Y015077D01*
X020093Y015072D01*
X020104Y015068D01*
X020113Y015062D01*
X020114Y015061D01*
X020116D01*
X020125Y015055D01*
X020132Y015051D01*
X020138Y015048D01*
X020139Y015047D01*
X020147Y015044D01*
X020153Y015041D01*
X020157Y01504D01*
X020159D01*
X020165Y015038D01*
X020171Y015037D01*
X020175Y015036D01*
X020193D01*
X02021Y015037D01*
X020224Y015041D01*
X020229Y015043D01*
X020234Y015044D01*
X020235Y015045D01*
X020236D01*
X02025Y015055D01*
X020263Y015065D01*
X02027Y015073D01*
X020272Y015074D01*
Y015076D01*
X020282Y015093D01*
X02029Y015108D01*
X020293Y015113D01*
X020296Y015119D01*
X020297Y015122D01*
Y015123D01*
X020304Y015144D01*
X020308Y015163D01*
X02031Y01517D01*
Y015176D01*
X020311Y01518D01*
Y015181D01*
X026375D01*
Y01502D01*
D02*
G37*
G36*
X018175Y014711D02*
X018186Y014709D01*
X018193Y014707D01*
X018196Y014705D01*
X018206Y0147D01*
X018214Y014693D01*
X01822Y014687D01*
X018221Y014684D01*
X018228Y014673D01*
X018233Y014661D01*
X018236Y014653D01*
X018238Y01465D01*
Y014648D01*
X01824Y014632D01*
X018243Y014615D01*
Y014608D01*
Y014604D01*
Y0146D01*
Y014598D01*
X018242Y014578D01*
Y014568D01*
X01824Y014561D01*
X018239Y014554D01*
Y01455D01*
X018238Y014547D01*
Y014546D01*
X018232Y01453D01*
X018228Y014519D01*
X018222Y014512D01*
X018221Y01451D01*
X018213Y0145D01*
X018204Y014494D01*
X018199Y01449D01*
X018197Y014489D01*
X018196D01*
X018183Y014486D01*
X018172Y014485D01*
X018164Y014483D01*
X018161D01*
X01815Y014485D01*
X01814Y014486D01*
X018135Y014487D01*
X018132Y014489D01*
X018124Y014494D01*
X018117Y014501D01*
X018111Y014507D01*
X01811Y01451D01*
X018103Y014521D01*
X018099Y014533D01*
X018096Y014541D01*
X018095Y014544D01*
Y014546D01*
X018092Y014564D01*
X01809Y01458D01*
X018089Y014587D01*
Y014593D01*
Y014597D01*
Y014598D01*
X01809Y014621D01*
Y01463D01*
X018092Y014639D01*
X018093Y014644D01*
Y014648D01*
X018095Y014651D01*
Y014653D01*
X0181Y014668D01*
X018106Y014679D01*
X01811Y014684D01*
X018111Y014687D01*
X01812Y014696D01*
X018128Y014702D01*
X018133Y014705D01*
X018136Y014707D01*
X018146Y014709D01*
X018154Y014712D01*
X018163D01*
X018175Y014711D01*
D02*
G37*
G36*
X018258Y014242D02*
X018265Y01424D01*
X018268Y014239D01*
X018279Y014235D01*
X018288Y014231D01*
X018293Y014226D01*
X018294Y014225D01*
X018301Y014218D01*
X018306Y014211D01*
X018307Y014206D01*
X018308Y014204D01*
X018311Y014196D01*
X018314Y014188D01*
Y014182D01*
Y014181D01*
X018313Y014163D01*
X018308Y014149D01*
X018306Y014143D01*
X018303Y014139D01*
X018301Y014138D01*
Y014136D01*
X018292Y014124D01*
X018282Y014115D01*
X018274Y014108D01*
X018272Y014107D01*
X018271D01*
X018256Y0141D01*
X018242Y014096D01*
X018236Y014093D01*
X018232D01*
X018229Y014092D01*
X018228D01*
X018211Y014089D01*
X018196Y014088D01*
X018181D01*
X018167Y014089D01*
X018154Y01409D01*
X018149D01*
X018145Y014092D01*
X01814D01*
X018124Y014096D01*
X018111Y014101D01*
X018106Y014103D01*
X018102Y014106D01*
X018099Y014107D01*
X018097D01*
X018083Y014115D01*
X018071Y014125D01*
X018064Y014132D01*
X018063Y014133D01*
X018061Y014135D01*
X018053Y014149D01*
X018049Y014163D01*
Y014168D01*
X018047Y014174D01*
Y014176D01*
Y014178D01*
X018049Y014194D01*
X018052Y014206D01*
X018054Y014214D01*
X018056Y014217D01*
X018061Y014228D01*
X018067Y014236D01*
X018071Y014242D01*
X018072Y014243D01*
X018246D01*
X018258Y014242D01*
D02*
G37*
G36*
X041367Y014822D02*
Y014293D01*
X041263Y014326D01*
X041254Y014329D01*
X041252Y014332D01*
X04125D01*
X041247Y014337D01*
X041246Y014343D01*
Y014347D01*
Y014349D01*
Y014675D01*
Y014689D01*
Y0147D01*
Y014708D01*
Y014709D01*
Y014711D01*
X041247Y014725D01*
Y014737D01*
Y014747D01*
Y014748D01*
Y01475D01*
Y014764D01*
Y014776D01*
Y014784D01*
Y014786D01*
Y014787D01*
X041249Y0148D01*
Y014811D01*
X04125Y014819D01*
Y01482D01*
Y014822D01*
X041147D01*
X040955Y014736D01*
Y014687D01*
X041089Y014704D01*
X041099D01*
X041092Y014639D01*
Y014349D01*
X041091Y014342D01*
X041089Y014336D01*
X041088Y014333D01*
X041086Y014332D01*
X041082Y014329D01*
X041078Y014328D01*
X041075Y014326D01*
X041074D01*
X040964Y014293D01*
Y01425D01*
X041367D01*
Y014235D01*
X038309D01*
X03833Y014238D01*
X038348Y014239D01*
X038365Y014242D01*
X038378Y014244D01*
X038388Y014246D01*
X038394Y014249D01*
X038396D01*
X038414Y014254D01*
X038431Y01426D01*
X038446Y014265D01*
X038459Y014271D01*
X03847Y014276D01*
X038477Y014281D01*
X038482Y014283D01*
X038484Y014285D01*
X038498Y014294D01*
X03851Y014304D01*
X038523Y014314D01*
X038532Y014322D01*
X038539Y014331D01*
X038545Y014336D01*
X038549Y01434D01*
X03855Y014342D01*
X03857Y014367D01*
X038578Y014379D01*
X038585Y01439D01*
X038591Y0144D01*
X038595Y014407D01*
X038596Y014412D01*
X038598Y014414D01*
X038609Y014443D01*
X038614Y014457D01*
X038617Y014469D01*
X03862Y01448D01*
X038623Y014489D01*
X038624Y014494D01*
Y014496D01*
X03863Y014529D01*
X038631Y014543D01*
Y014557D01*
X038632Y014568D01*
Y014585D01*
X038631Y014612D01*
X03863Y014637D01*
X038625Y014661D01*
X038623Y014682D01*
X038619Y0147D01*
X038614Y014712D01*
X038613Y014721D01*
X038612Y014723D01*
X038603Y014747D01*
X038594Y014768D01*
X038582Y014787D01*
X038571Y014804D01*
X038563Y014816D01*
X038555Y014826D01*
X038549Y014833D01*
X038548Y014834D01*
X038531Y014851D01*
X038513Y014866D01*
X038495Y014879D01*
X038478Y014888D01*
X038463Y014897D01*
X038452Y014904D01*
X038444Y014907D01*
X038442Y014908D01*
X038441D01*
X038416Y014916D01*
X038389Y014923D01*
X038365Y014927D01*
X03834Y014932D01*
X038319Y014933D01*
X03831D01*
X038303Y014934D01*
X038288D01*
X038259Y014933D01*
X038231Y01493D01*
X038206Y014926D01*
X038184Y014922D01*
X038166Y014916D01*
X038152Y014912D01*
X038144Y014909D01*
X038142Y014908D01*
X038141D01*
X038117Y014898D01*
X038097Y014886D01*
X038079Y014875D01*
X038063Y014862D01*
X038051Y014852D01*
X038041Y014844D01*
X038034Y014839D01*
X038033Y014836D01*
X038017Y014818D01*
X038004Y0148D01*
X037991Y014782D01*
X037983Y014764D01*
X037974Y014748D01*
X037969Y014737D01*
X037966Y014729D01*
X037965Y014727D01*
Y014726D01*
X037956Y014701D01*
X037951Y014677D01*
X037947Y014654D01*
X037944Y014632D01*
X037943Y014612D01*
X037941Y014598D01*
Y014585D01*
X037943Y014555D01*
X037945Y014528D01*
X037948Y014503D01*
X037952Y01448D01*
X037956Y014462D01*
X037961Y014448D01*
X037962Y01444D01*
X037963Y014439D01*
Y014437D01*
X037973Y014414D01*
X037984Y014393D01*
X037995Y014374D01*
X038005Y014357D01*
X038015Y014344D01*
X038023Y014335D01*
X038029Y014329D01*
X03803Y014326D01*
X038048Y014311D01*
X038066Y014297D01*
X038084Y014285D01*
X038101Y014276D01*
X038116Y014268D01*
X038127Y014262D01*
X038135Y01426D01*
X038138Y014258D01*
X038163Y01425D01*
X03819Y014244D01*
X038215Y01424D01*
X038237Y014238D01*
X038258Y014236D01*
X038273Y014235D01*
X037149D01*
Y01425D01*
X037483D01*
X037512Y014251D01*
X037539Y014253D01*
X037564Y014256D01*
X037584Y01426D01*
X037602Y014264D01*
X037616Y014267D01*
X037621Y014268D01*
X037625D01*
X037626Y014269D01*
X037627D01*
X037651Y014278D01*
X037673Y014287D01*
X037694Y014297D01*
X037711Y014307D01*
X037725Y014317D01*
X037736Y014324D01*
X037741Y014329D01*
X037744Y014331D01*
X037762Y014347D01*
X037777Y014364D01*
X037791Y014382D01*
X037802Y014399D01*
X037811Y014412D01*
X037816Y014425D01*
X03782Y014432D01*
X037822Y014435D01*
X037832Y01446D01*
X037838Y014485D01*
X037844Y01451D01*
X037847Y014532D01*
X03785Y014553D01*
X037851Y014569D01*
Y014607D01*
X037848Y01463D01*
X037845Y01465D01*
X037843Y014668D01*
X03784Y014682D01*
X037837Y014693D01*
X037836Y014698D01*
X037834Y014701D01*
X037827Y014719D01*
X03782Y014736D01*
X037813Y014751D01*
X037807Y014764D01*
X0378Y014775D01*
X037794Y014782D01*
X037791Y014787D01*
X03779Y014789D01*
X037779Y014802D01*
X037768Y014814D01*
X037757Y014825D01*
X037747Y014834D01*
X037739Y014841D01*
X037732Y014847D01*
X037726Y01485D01*
X037725Y014851D01*
X037697Y014868D01*
X037684Y014875D01*
X037673Y01488D01*
X037664Y014886D01*
X037655Y014888D01*
X03765Y014891D01*
X037648D01*
X037619Y014901D01*
X037605Y014905D01*
X037594Y014908D01*
X037583Y014909D01*
X037575Y014911D01*
X037569Y014912D01*
X037568D01*
X037539Y014916D01*
X037526Y014918D01*
X037514D01*
X037504Y014919D01*
X037149D01*
Y015284D01*
X038016D01*
X038011Y015283D01*
X038005Y015281D01*
X038004Y01528D01*
X037998Y015276D01*
X037993Y015272D01*
X03799Y015269D01*
X037988Y015267D01*
X037981Y015256D01*
X03798Y015252D01*
X037979Y015251D01*
X037976Y015244D01*
X037974Y015238D01*
Y015234D01*
Y015233D01*
X037976Y015222D01*
X037979Y015212D01*
X03798Y015205D01*
X037981Y015202D01*
X037988Y015192D01*
X037995Y015184D01*
X038002Y015177D01*
X038005Y015176D01*
Y015174D01*
X03811Y015081D01*
X038145Y015101D01*
X038094Y015235D01*
X03809Y015245D01*
X038086Y015252D01*
X038081Y015258D01*
X03808Y015259D01*
X038074Y015266D01*
X038069Y01527D01*
X038065Y015273D01*
X038063Y015274D01*
X038056Y015279D01*
X038051Y01528D01*
X038045Y015281D01*
X038044D01*
X038037Y015283D01*
X03803Y015284D01*
X041367D01*
Y014822D01*
D02*
G37*
G36*
X037486Y014833D02*
X037503Y014832D01*
X037516Y014829D01*
X03753Y014825D01*
X03754Y01482D01*
X037548Y014818D01*
X037554Y014816D01*
X037555Y014815D01*
X037569Y014808D01*
X037583Y0148D01*
X037594Y01479D01*
X037604Y014782D01*
X037612Y014775D01*
X037618Y014768D01*
X037622Y014764D01*
X037623Y014762D01*
X037633Y01475D01*
X037641Y014736D01*
X037648Y014722D01*
X037655Y014709D01*
X037659Y014697D01*
X037662Y014689D01*
X037665Y014683D01*
Y01468D01*
X037671Y014662D01*
X037673Y014643D01*
X037676Y014625D01*
X037679Y014607D01*
Y014593D01*
X03768Y01458D01*
Y014573D01*
Y014572D01*
Y014571D01*
Y01455D01*
X037679Y01453D01*
X037677Y014514D01*
X037675Y014498D01*
X037673Y014486D01*
X037671Y014478D01*
X037669Y014471D01*
Y014469D01*
X037665Y014454D01*
X037659Y01444D01*
X037654Y014428D01*
X037648Y014417D01*
X037643Y014408D01*
X037639Y014401D01*
X037636Y014397D01*
X037634Y014396D01*
X037626Y014385D01*
X037616Y014376D01*
X037607Y014368D01*
X037597Y014361D01*
X037589Y014357D01*
X037582Y014353D01*
X037578Y014351D01*
X037576Y01435D01*
X037562Y014344D01*
X037548Y014342D01*
X037534Y014339D01*
X037521Y014336D01*
X037509D01*
X0375Y014335D01*
X037398D01*
Y014558D01*
X03754D01*
Y014637D01*
X037398D01*
Y014834D01*
X037468D01*
X037486Y014833D01*
D02*
G37*
G36*
X038296Y014851D02*
X038312Y01485D01*
X038326Y014847D01*
X038337Y014843D01*
X038346Y014839D01*
X038353Y014836D01*
X038358Y014834D01*
X038359Y014833D01*
X038371Y014825D01*
X038383Y014816D01*
X038392Y014807D01*
X038401Y014798D01*
X038408Y01479D01*
X038412Y014783D01*
X038414Y014779D01*
X038416Y014777D01*
X038424Y014764D01*
X038431Y014748D01*
X038437Y014733D01*
X038441Y014719D01*
X038445Y014707D01*
X038448Y014697D01*
X038449Y014691D01*
Y014689D01*
X038456Y014648D01*
X038458Y014628D01*
X038459Y014609D01*
X03846Y014593D01*
Y01458D01*
Y014572D01*
Y014571D01*
Y014569D01*
Y014548D01*
X038459Y014529D01*
X038458Y014511D01*
X038455Y014496D01*
X038453Y014483D01*
X038451Y014473D01*
X038449Y014468D01*
Y014465D01*
X038445Y014448D01*
X038441Y014433D01*
X038435Y014419D01*
X03843Y014408D01*
X038426Y014399D01*
X038421Y014392D01*
X03842Y014387D01*
X038419Y014386D01*
X03841Y014375D01*
X038402Y014364D01*
X038392Y014355D01*
X038384Y014349D01*
X038377Y014342D01*
X038371Y014337D01*
X038367Y014336D01*
X038366Y014335D01*
X038353Y014329D01*
X038342Y014325D01*
X03833Y014321D01*
X038319Y014319D01*
X038309Y014318D01*
X038301Y014317D01*
X038294D01*
X038277Y014318D01*
X03826Y014319D01*
X038247Y014322D01*
X038235Y014326D01*
X038226Y014331D01*
X038217Y014333D01*
X038213Y014335D01*
X038212Y014336D01*
X038199Y014344D01*
X03819Y014353D01*
X03818Y014362D01*
X038172Y014371D01*
X038165Y014379D01*
X03816Y014386D01*
X038158Y01439D01*
X038156Y014392D01*
X038148Y014407D01*
X038142Y014422D01*
X038135Y014436D01*
X038131Y014451D01*
X038127Y014464D01*
X038126Y014473D01*
X038123Y014479D01*
Y014482D01*
X038117Y014523D01*
X038116Y014543D01*
X038115Y014561D01*
X038113Y014578D01*
Y01459D01*
Y014598D01*
Y0146D01*
Y014601D01*
Y014621D01*
X038115Y014639D01*
X038116Y014654D01*
X038117Y014669D01*
X038119Y014682D01*
X03812Y01469D01*
X038122Y014697D01*
Y014698D01*
X038126Y014715D01*
X03813Y01473D01*
X038135Y014744D01*
X03814Y014757D01*
X038144Y014766D01*
X038148Y014773D01*
X038149Y014777D01*
X038151Y014779D01*
X038159Y014791D01*
X038167Y014801D01*
X038176Y014811D01*
X038184Y014818D01*
X038191Y014823D01*
X038197Y014827D01*
X038201Y01483D01*
X038202Y014832D01*
X038215Y014839D01*
X038227Y014844D01*
X038241Y014847D01*
X038253Y01485D01*
X038263Y014851D01*
X038273Y014852D01*
X03828D01*
X038296Y014851D01*
D02*
G37*
G36*
X037224Y014845D02*
X037232Y014841D01*
X037233Y01484D01*
X037235Y014839D01*
X037237Y014834D01*
X03724Y01483D01*
Y014826D01*
Y014825D01*
Y014637D01*
X037154D01*
Y014558D01*
X03724D01*
Y014344D01*
X037239Y014337D01*
X037237Y014333D01*
X037236Y014331D01*
X037235Y014329D01*
X037228Y014324D01*
X037225Y014322D01*
X037224D01*
X037149Y014293D01*
Y014876D01*
X037224Y014845D01*
D02*
G37*
%LPC*%
G36*
X028488Y016226D02*
X028474D01*
X02846Y016225D01*
X028448Y016223D01*
X02844Y016222D01*
X028438Y01622D01*
X028437D01*
X028426Y016216D01*
X028416Y016212D01*
X028409Y016208D01*
X028406Y016206D01*
X028398Y016198D01*
X028391Y01619D01*
X028387Y016184D01*
X028386Y016183D01*
Y016182D01*
X028381Y01617D01*
X028379Y016161D01*
X028377Y016152D01*
Y016151D01*
Y01615D01*
X028379Y016137D01*
X028381Y016126D01*
X028384Y016119D01*
X028386Y016118D01*
Y016116D01*
X028394Y016107D01*
X028401Y016098D01*
X028406Y016093D01*
X028409Y016091D01*
X02842Y016084D01*
X02843Y016079D01*
X028437Y016075D01*
X028438Y016073D01*
X02844D01*
X028452Y01607D01*
X028463Y016069D01*
X028472Y016068D01*
X028474D01*
X028488Y016069D01*
X028501Y01607D01*
X028509Y016072D01*
X02851Y016073D01*
X028512D01*
X028526Y016079D01*
X028535Y016084D01*
X028542Y01609D01*
X028545Y016091D01*
X028555Y016101D01*
X028562Y016111D01*
X028566Y016118D01*
X028567Y016119D01*
Y01612D01*
X028573Y016133D01*
X028574Y016144D01*
X028576Y016152D01*
Y016154D01*
Y016155D01*
X028574Y016168D01*
X028573Y016177D01*
X02857Y016183D01*
X028569Y016186D01*
X028563Y016195D01*
X028556Y016202D01*
X028551Y016206D01*
X028548Y016208D01*
X028537Y016213D01*
X028527Y016218D01*
X028519Y016219D01*
X028517Y01622D01*
X028516D01*
X028502Y016223D01*
X028488Y016226D01*
D02*
G37*
G36*
X014406D02*
X014392D01*
X014378Y016225D01*
X014365Y016223D01*
X014357Y016222D01*
X014356Y01622D01*
X014354D01*
X014343Y016216D01*
X014333Y016212D01*
X014326Y016208D01*
X014324Y016206D01*
X014315Y016198D01*
X014308Y01619D01*
X014304Y016184D01*
X014303Y016183D01*
Y016182D01*
X014299Y01617D01*
X014296Y016161D01*
X014295Y016152D01*
Y016151D01*
Y01615D01*
X014296Y016137D01*
X014299Y016126D01*
X014302Y016119D01*
X014303Y016118D01*
Y016116D01*
X014311Y016107D01*
X014318Y016098D01*
X014324Y016093D01*
X014326Y016091D01*
X014338Y016084D01*
X014347Y016079D01*
X014354Y016075D01*
X014356Y016073D01*
X014357D01*
X01437Y01607D01*
X014381Y016069D01*
X014389Y016068D01*
X014392D01*
X014406Y016069D01*
X014418Y01607D01*
X014426Y016072D01*
X014428Y016073D01*
X014429D01*
X014443Y016079D01*
X014453Y016084D01*
X01446Y01609D01*
X014462Y016091D01*
X014472Y016101D01*
X014479Y016111D01*
X014483Y016118D01*
X014485Y016119D01*
Y01612D01*
X01449Y016133D01*
X014492Y016144D01*
X014493Y016152D01*
Y016154D01*
Y016155D01*
X014492Y016168D01*
X01449Y016177D01*
X014487Y016183D01*
X014486Y016186D01*
X014481Y016195D01*
X014474Y016202D01*
X014468Y016206D01*
X014465Y016208D01*
X014454Y016213D01*
X014444Y016218D01*
X014436Y016219D01*
X014435Y01622D01*
X014433D01*
X014419Y016223D01*
X014406Y016226D01*
D02*
G37*
G36*
X024408Y016169D02*
X023752D01*
Y015969D01*
X023823D01*
X023845Y016068D01*
X023848Y016073D01*
X02385Y016077D01*
X023852Y016079D01*
Y01608D01*
X023856Y016083D01*
X023862Y016086D01*
X024001D01*
Y015594D01*
X023999Y015589D01*
X023998Y015583D01*
X023997Y015582D01*
X023995Y015581D01*
X023988Y015575D01*
X023986Y015574D01*
X023984Y015572D01*
X023905Y015543D01*
Y0155D01*
X024255D01*
Y015543D01*
X024176Y015572D01*
X024169Y015576D01*
X024166Y015579D01*
X024165D01*
X024162Y015583D01*
X02416Y015589D01*
Y015593D01*
Y015594D01*
Y016086D01*
X024295D01*
X024299Y016084D01*
X024303Y016083D01*
X024305Y016082D01*
X024306Y01608D01*
X02431Y016076D01*
X024312Y016072D01*
X024313Y016069D01*
Y016068D01*
X024337Y015969D01*
X024408D01*
Y016169D01*
D02*
G37*
G36*
X021344Y016025D02*
X021316D01*
X021303Y016023D01*
X021298D01*
X021294Y016022D01*
X02129D01*
X021275Y016019D01*
X021261Y016015D01*
X021255Y016014D01*
X021251Y016012D01*
X021248Y016011D01*
X021247D01*
X021232Y016004D01*
X021218Y015996D01*
X021212Y015991D01*
X021208Y015989D01*
X021205Y015987D01*
X021204Y015986D01*
X021187Y015972D01*
X021173Y015957D01*
X021168Y01595D01*
X021164Y015946D01*
X021161Y015941D01*
X02116Y01594D01*
X021153D01*
Y01602D01*
X020935Y015998D01*
Y015954D01*
X020993Y015929D01*
X021001Y015923D01*
X021004Y015922D01*
X021006Y015921D01*
X021008Y015916D01*
X021011Y015912D01*
Y015908D01*
Y015907D01*
Y015589D01*
X02101Y015583D01*
X021008Y015578D01*
X021007Y015576D01*
X021006Y015575D01*
X021001Y015572D01*
X020997Y015569D01*
X020994Y015568D01*
X020993Y015567D01*
X020935Y015543D01*
Y0155D01*
X021223D01*
Y015543D01*
X02118Y015567D01*
X021175Y015571D01*
X021171Y015574D01*
X021168Y015575D01*
X021167D01*
X021164Y015579D01*
X021162Y015583D01*
Y015587D01*
Y015589D01*
Y015884D01*
X021169Y015894D01*
X021175Y015901D01*
X02118Y015905D01*
X021182Y015907D01*
X021192Y015912D01*
X021198Y015916D01*
X021204Y015918D01*
X021207Y015919D01*
X021217Y015922D01*
X021225Y015923D01*
X02123Y015925D01*
X021233D01*
X021243Y015926D01*
X02126D01*
X021278Y015925D01*
X021293Y015922D01*
X021297Y015919D01*
X021301Y015918D01*
X021303Y015916D01*
X021304D01*
X021316Y015909D01*
X021325Y015901D01*
X02133Y015894D01*
X021332Y015893D01*
Y015891D01*
X021337Y015878D01*
X021341Y015865D01*
X021343Y015858D01*
X021344Y015854D01*
Y015851D01*
Y01585D01*
X021346Y015832D01*
X021347Y015814D01*
Y015805D01*
Y0158D01*
Y015796D01*
Y015794D01*
Y01559D01*
X021346Y015583D01*
X021344Y015579D01*
X021343Y015576D01*
X021341Y015575D01*
X021333Y015569D01*
X02133Y015568D01*
X021329Y015567D01*
X021283Y015543D01*
Y0155D01*
X021569D01*
Y015543D01*
X021518Y015567D01*
X021512Y015569D01*
X021508Y015572D01*
X021505Y015575D01*
X021504D01*
X021501Y015579D01*
X0215Y015585D01*
Y015589D01*
Y01559D01*
Y015854D01*
Y015871D01*
X021497Y015884D01*
X021495Y015897D01*
X021493Y015909D01*
X02149Y015918D01*
X021489Y015925D01*
X021486Y015929D01*
Y01593D01*
X021475Y015952D01*
X021469Y015962D01*
X021464Y015971D01*
X021458Y015976D01*
X021454Y01598D01*
X021451Y015983D01*
X02145Y015984D01*
X021432Y015998D01*
X021415Y016008D01*
X021408Y016011D01*
X021402Y016014D01*
X021398Y016015D01*
X021397D01*
X021373Y01602D01*
X021362Y016022D01*
X021353Y016023D01*
X021344Y016025D01*
D02*
G37*
G36*
X019594D02*
X019566D01*
X019552Y016023D01*
X019548D01*
X019544Y016022D01*
X01954D01*
X019525Y016019D01*
X019511Y016015D01*
X019505Y016014D01*
X019501Y016012D01*
X019498Y016011D01*
X019497D01*
X019482Y016004D01*
X019468Y015996D01*
X019462Y015991D01*
X019458Y015989D01*
X019455Y015987D01*
X019454Y015986D01*
X019437Y015972D01*
X019423Y015957D01*
X019418Y01595D01*
X019413Y015946D01*
X019411Y015941D01*
X019409Y01594D01*
X019402D01*
Y01602D01*
X019184Y015998D01*
Y015954D01*
X019243Y015929D01*
X019251Y015923D01*
X019254Y015922D01*
X019255Y015921D01*
X019258Y015916D01*
X019261Y015912D01*
Y015908D01*
Y015907D01*
Y015589D01*
X019259Y015583D01*
X019258Y015578D01*
X019257Y015576D01*
X019255Y015575D01*
X019251Y015572D01*
X019247Y015569D01*
X019244Y015568D01*
X019243Y015567D01*
X019184Y015543D01*
Y0155D01*
X019473D01*
Y015543D01*
X01943Y015567D01*
X019425Y015571D01*
X01942Y015574D01*
X019418Y015575D01*
X019416D01*
X019413Y015579D01*
X019412Y015583D01*
Y015587D01*
Y015589D01*
Y015884D01*
X019419Y015894D01*
X019425Y015901D01*
X01943Y015905D01*
X019432Y015907D01*
X019441Y015912D01*
X019448Y015916D01*
X019454Y015918D01*
X019457Y015919D01*
X019466Y015922D01*
X019475Y015923D01*
X01948Y015925D01*
X019483D01*
X019493Y015926D01*
X019509D01*
X019527Y015925D01*
X019543Y015922D01*
X019547Y015919D01*
X019551Y015918D01*
X019552Y015916D01*
X019554D01*
X019566Y015909D01*
X019575Y015901D01*
X01958Y015894D01*
X019581Y015893D01*
Y015891D01*
X019587Y015878D01*
X019591Y015865D01*
X019593Y015858D01*
X019594Y015854D01*
Y015851D01*
Y01585D01*
X019595Y015832D01*
X019597Y015814D01*
Y015805D01*
Y0158D01*
Y015796D01*
Y015794D01*
Y01559D01*
X019595Y015583D01*
X019594Y015579D01*
X019593Y015576D01*
X019591Y015575D01*
X019583Y015569D01*
X01958Y015568D01*
X019579Y015567D01*
X019533Y015543D01*
Y0155D01*
X019819D01*
Y015543D01*
X019767Y015567D01*
X019762Y015569D01*
X019758Y015572D01*
X019755Y015575D01*
X019754D01*
X019751Y015579D01*
X019749Y015585D01*
Y015589D01*
Y01559D01*
Y015854D01*
Y015871D01*
X019747Y015884D01*
X019745Y015897D01*
X019742Y015909D01*
X01974Y015918D01*
X019738Y015925D01*
X019736Y015929D01*
Y01593D01*
X019724Y015952D01*
X019719Y015962D01*
X019713Y015971D01*
X019708Y015976D01*
X019704Y01598D01*
X019701Y015983D01*
X019699Y015984D01*
X019681Y015998D01*
X019665Y016008D01*
X019658Y016011D01*
X019652Y016014D01*
X019648Y016015D01*
X019647D01*
X019623Y01602D01*
X019612Y016022D01*
X019602Y016023D01*
X019594Y016025D01*
D02*
G37*
G36*
X015676D02*
X015648D01*
X015634Y016023D01*
X01563D01*
X015626Y016022D01*
X015621D01*
X015606Y016019D01*
X015592Y016015D01*
X015587Y016014D01*
X015583Y016012D01*
X01558Y016011D01*
X015578D01*
X015563Y016004D01*
X015549Y015996D01*
X015544Y015991D01*
X01554Y015989D01*
X015537Y015987D01*
X015535Y015986D01*
X015519Y015972D01*
X015505Y015957D01*
X015499Y01595D01*
X015495Y015946D01*
X015492Y015941D01*
X015491Y01594D01*
X015484D01*
Y01602D01*
X015266Y015998D01*
Y015954D01*
X015324Y015929D01*
X015333Y015923D01*
X015336Y015922D01*
X015337Y015921D01*
X01534Y015916D01*
X015343Y015912D01*
Y015908D01*
Y015907D01*
Y015589D01*
X015341Y015583D01*
X01534Y015578D01*
X015338Y015576D01*
X015337Y015575D01*
X015333Y015572D01*
X015329Y015569D01*
X015326Y015568D01*
X015324Y015567D01*
X015266Y015543D01*
Y0155D01*
X015555D01*
Y015543D01*
X015512Y015567D01*
X015506Y015571D01*
X015502Y015574D01*
X015499Y015575D01*
X015498D01*
X015495Y015579D01*
X015494Y015583D01*
Y015587D01*
Y015589D01*
Y015884D01*
X015501Y015894D01*
X015506Y015901D01*
X015512Y015905D01*
X015513Y015907D01*
X015523Y015912D01*
X01553Y015916D01*
X015535Y015918D01*
X015538Y015919D01*
X015548Y015922D01*
X015556Y015923D01*
X015562Y015925D01*
X015565D01*
X015574Y015926D01*
X015591D01*
X015609Y015925D01*
X015624Y015922D01*
X015628Y015919D01*
X015633Y015918D01*
X015634Y015916D01*
X015635D01*
X015648Y015909D01*
X015656Y015901D01*
X015662Y015894D01*
X015663Y015893D01*
Y015891D01*
X015669Y015878D01*
X015673Y015865D01*
X015674Y015858D01*
X015676Y015854D01*
Y015851D01*
Y01585D01*
X015677Y015832D01*
X015678Y015814D01*
Y015805D01*
Y0158D01*
Y015796D01*
Y015794D01*
Y01559D01*
X015677Y015583D01*
X015676Y015579D01*
X015674Y015576D01*
X015673Y015575D01*
X015665Y015569D01*
X015662Y015568D01*
X01566Y015567D01*
X015615Y015543D01*
Y0155D01*
X0159D01*
Y015543D01*
X015849Y015567D01*
X015844Y015569D01*
X015839Y015572D01*
X015837Y015575D01*
X015835D01*
X015832Y015579D01*
X015831Y015585D01*
Y015589D01*
Y01559D01*
Y015854D01*
Y015871D01*
X015828Y015884D01*
X015827Y015897D01*
X015824Y015909D01*
X015821Y015918D01*
X01582Y015925D01*
X015817Y015929D01*
Y01593D01*
X015806Y015952D01*
X015801Y015962D01*
X015795Y015971D01*
X015789Y015976D01*
X015785Y01598D01*
X015782Y015983D01*
X015781Y015984D01*
X015763Y015998D01*
X015746Y016008D01*
X015739Y016011D01*
X015734Y016014D01*
X01573Y016015D01*
X015728D01*
X015705Y01602D01*
X015694Y016022D01*
X015684Y016023D01*
X015676Y016025D01*
D02*
G37*
G36*
X026959Y016169D02*
X026617D01*
Y016126D01*
X026691Y016095D01*
X026699Y016091D01*
X026702Y01609D01*
X026703Y016089D01*
X026706Y016084D01*
X026709Y01608D01*
Y016076D01*
Y016075D01*
Y015889D01*
X026433D01*
Y016075D01*
X026434Y01608D01*
X026435Y016084D01*
X026437Y016087D01*
X026446Y016093D01*
X026449Y016095D01*
X026451D01*
X026524Y016126D01*
Y016169D01*
X026183D01*
Y016126D01*
X026258Y016095D01*
X026266Y016091D01*
X026267Y01609D01*
X026269Y016089D01*
X026272Y016084D01*
X026274Y01608D01*
Y016076D01*
Y016075D01*
Y015594D01*
X026273Y015587D01*
X026272Y015583D01*
X02627Y015581D01*
X026269Y015579D01*
X026262Y015574D01*
X026259Y015572D01*
X026258D01*
X026183Y015543D01*
Y0155D01*
X026524D01*
Y015543D01*
X026451Y015574D01*
X026445Y015576D01*
X026441Y015578D01*
X026438Y015581D01*
X026437D01*
X026434Y015585D01*
X026433Y01559D01*
Y015594D01*
Y015596D01*
Y015808D01*
X026709D01*
Y015596D01*
X026707Y015589D01*
X026706Y015585D01*
X026705Y015582D01*
X026703Y015581D01*
X026699Y015578D01*
X026695Y015575D01*
X026692Y015574D01*
X026691D01*
X026617Y015543D01*
Y0155D01*
X026959D01*
Y015543D01*
X026885Y015572D01*
X026877Y015578D01*
X026874Y015581D01*
X026873D01*
X02687Y015585D01*
X026868Y015589D01*
X026867Y015593D01*
Y015594D01*
Y016075D01*
X026868Y016082D01*
X02687Y016086D01*
X026871Y016087D01*
X026873Y016089D01*
X026881Y016094D01*
X026884Y016095D01*
X026885D01*
X026959Y016126D01*
Y016169D01*
D02*
G37*
G36*
X013963Y016025D02*
X013945D01*
X01391Y016023D01*
X013893Y01602D01*
X01388Y016019D01*
X013868Y016016D01*
X01386Y016014D01*
X013853Y016012D01*
X013852D01*
X013835Y016007D01*
X013821Y016001D01*
X013807Y015996D01*
X013796Y01599D01*
X013787Y015986D01*
X01378Y015982D01*
X013775Y015979D01*
X013774Y015977D01*
X013752Y015959D01*
X013742Y015951D01*
X013735Y015943D01*
X013728Y015934D01*
X013724Y015929D01*
X013721Y015925D01*
X01372Y015923D01*
X013713Y015912D01*
X013709Y0159D01*
X013705Y015889D01*
X013703Y015878D01*
X013702Y015868D01*
X0137Y015861D01*
Y015855D01*
Y015854D01*
X013702Y015837D01*
X013705Y015822D01*
X013706Y015816D01*
X013707Y015812D01*
X013709Y01581D01*
Y015808D01*
X013716Y015793D01*
X013724Y01578D01*
X01373Y015772D01*
X013732Y015771D01*
Y015769D01*
X013746Y015757D01*
X013759Y015746D01*
X013764Y015742D01*
X013769Y015739D01*
X013771Y015737D01*
X013773Y015736D01*
X013792Y015726D01*
X013812Y015719D01*
X013818Y015717D01*
X013825Y015714D01*
X01383Y015712D01*
X013831D01*
X013848Y015708D01*
X013864Y015704D01*
X01387Y015703D01*
X013875Y015701D01*
X013878Y0157D01*
X01388D01*
X013899Y015696D01*
X013914Y015693D01*
X013921Y015692D01*
X013925Y01569D01*
X013928Y015689D01*
X01393D01*
X013942Y015685D01*
X013952Y01568D01*
X013959Y015678D01*
X013961Y015676D01*
X013971Y015672D01*
X013979Y015668D01*
X013985Y015664D01*
X013986Y015662D01*
X013993Y015657D01*
X013998Y015651D01*
X013999Y015647D01*
X014Y015646D01*
X014003Y015637D01*
X014004Y01563D01*
Y015625D01*
Y015622D01*
X014003Y015611D01*
X014002Y015603D01*
X013999Y015597D01*
X013998Y015594D01*
X013992Y015586D01*
X013986Y015581D01*
X013982Y015576D01*
X013979Y015575D01*
X013971Y015569D01*
X013963Y015565D01*
X013956Y015564D01*
X013954Y015562D01*
X013953D01*
X013942Y01556D01*
X013931Y015558D01*
X013907D01*
X013895Y01556D01*
X013886Y015561D01*
X013884D01*
X013871Y015564D01*
X013862Y015567D01*
X013855Y015568D01*
X013853Y015569D01*
X013852D01*
X013841Y015574D01*
X013832Y015578D01*
X013827Y015581D01*
X013824Y015582D01*
X013816Y015587D01*
X01381Y015592D01*
X013805Y015594D01*
X013803Y015596D01*
X013799Y015599D01*
X013798Y0156D01*
X013793Y015604D01*
X013792Y015605D01*
X013789Y01561D01*
X013788Y015611D01*
X013787Y015617D01*
X013785Y015619D01*
X013771Y015661D01*
X013694D01*
Y015521D01*
X013707Y015517D01*
X013721Y015512D01*
X013727Y015511D01*
X013731Y01551D01*
X013734Y015508D01*
X013735D01*
X013753Y015504D01*
X01377Y015501D01*
X013777Y0155D01*
X013782D01*
X013785Y015499D01*
X013787D01*
X013807Y015496D01*
X013825Y015493D01*
X013832D01*
X013838Y015492D01*
X013843D01*
X013866Y015489D01*
X013877D01*
X013885Y015488D01*
X013905D01*
X013939Y015489D01*
X013956Y01549D01*
X01397Y015493D01*
X013981Y015494D01*
X013989Y015496D01*
X013996Y015497D01*
X013998D01*
X014014Y015501D01*
X014029Y015506D01*
X014043Y015511D01*
X014054Y015517D01*
X014064Y015521D01*
X014071Y015525D01*
X014075Y015526D01*
X014077Y015528D01*
X014089Y015536D01*
X0141Y015546D01*
X01411Y015554D01*
X014117Y015564D01*
X014124Y015571D01*
X014128Y015576D01*
X014131Y015581D01*
X014132Y015582D01*
X014139Y015594D01*
X014145Y015608D01*
X014149Y015622D01*
X014152Y015635D01*
X014153Y015644D01*
X014154Y015654D01*
Y015661D01*
X014153Y015679D01*
X01415Y015694D01*
X014149Y0157D01*
X014147Y015704D01*
X014146Y015707D01*
Y015708D01*
X014139Y015723D01*
X014131Y015736D01*
X014125Y015744D01*
X014124Y015746D01*
X014122Y015747D01*
X01411Y01576D01*
X014097Y015769D01*
X014092Y015773D01*
X014088Y015776D01*
X014085Y015779D01*
X014084D01*
X014066Y015789D01*
X014047Y015796D01*
X014039Y015798D01*
X014034Y0158D01*
X014029Y015801D01*
X014028D01*
X014011Y015807D01*
X013996Y01581D01*
X013991Y015812D01*
X013985D01*
X013982Y015814D01*
X013981D01*
X013963Y015819D01*
X013948Y015823D01*
X013941Y015825D01*
X013936Y015826D01*
X013934Y015828D01*
X013932D01*
X013918Y015832D01*
X013907Y015836D01*
X013899Y015839D01*
X013898Y01584D01*
X013896D01*
X013885Y015846D01*
X013877Y01585D01*
X013871Y015854D01*
X01387Y015855D01*
X013863Y015862D01*
X013859Y015869D01*
X013856Y015873D01*
X013855Y015875D01*
X013852Y015883D01*
X01385Y015891D01*
X013849Y015897D01*
Y0159D01*
X01385Y015908D01*
X013852Y015915D01*
X013853Y015919D01*
Y015921D01*
X013857Y015927D01*
X013862Y015933D01*
X013864Y015936D01*
X013866Y015937D01*
X013873Y015943D01*
X013881Y015947D01*
X013886Y015948D01*
X013888Y01595D01*
X013899Y015952D01*
X013909Y015954D01*
X01393D01*
X013939Y015952D01*
X013945Y015951D01*
X013948D01*
X013959Y015948D01*
X013967Y015947D01*
X013973Y015946D01*
X013975Y015944D01*
X013984Y015941D01*
X013992Y015937D01*
X013998Y015936D01*
X013999Y015934D01*
X014006Y015932D01*
X014013Y015927D01*
X014016Y015926D01*
X014017Y015925D01*
X014025Y015919D01*
X014027Y015918D01*
X014028Y015916D01*
X014035Y015909D01*
X014036Y015907D01*
Y015905D01*
X01405Y015861D01*
X014127D01*
Y016001D01*
X014113Y016004D01*
X014102Y016007D01*
X014092Y016009D01*
X014089D01*
X014074Y016014D01*
X014061Y016016D01*
X014056D01*
X014052Y016018D01*
X014047D01*
X014031Y016019D01*
X014016Y01602D01*
X014009Y016022D01*
X013999D01*
X013979Y016023D01*
X013963Y016025D01*
D02*
G37*
G36*
X027983D02*
X027941D01*
X027929Y016023D01*
X027919D01*
X027911Y016022D01*
X027904D01*
X0279Y01602D01*
X027898D01*
X027876Y016018D01*
X027866Y016015D01*
X027858Y016014D01*
X027851Y016012D01*
X027846D01*
X027841Y016011D01*
X02784D01*
X027821Y016007D01*
X027804Y016002D01*
X027798Y016D01*
X027793Y015998D01*
X02779Y015997D01*
X027789D01*
X027771Y015991D01*
X027754Y015987D01*
X027748Y015986D01*
X027743Y015984D01*
X02774Y015983D01*
X027739D01*
Y015861D01*
X027773D01*
X027785Y015868D01*
X027796Y015875D01*
X027805Y01588D01*
X027807Y015883D01*
X027808D01*
X027825Y015894D01*
X02784Y015904D01*
X027846Y015908D01*
X027851Y015911D01*
X027854Y015914D01*
X027855D01*
X027873Y015925D01*
X027889Y015933D01*
X027896Y015936D01*
X0279Y015939D01*
X027903Y01594D01*
X027904D01*
X027922Y015947D01*
X027936Y015951D01*
X027941Y015952D01*
X027948D01*
X027964Y015951D01*
X027975Y01595D01*
X027982Y015947D01*
X027984Y015946D01*
X027994Y01594D01*
X028002Y015933D01*
X028007Y015927D01*
X028008Y015925D01*
X028015Y015915D01*
X028019Y015904D01*
X02802Y015896D01*
X028022Y015894D01*
Y015893D01*
X028025Y015879D01*
X028026Y015865D01*
Y015858D01*
Y015854D01*
Y015851D01*
Y01585D01*
Y015812D01*
X02802D01*
X028015Y015814D01*
X028008D01*
X028Y015815D01*
X027991D01*
X027986Y015816D01*
X027983D01*
X027973Y015818D01*
X027966D01*
X027961Y015819D01*
X027958D01*
X02795Y015821D01*
X027941D01*
X027923Y015819D01*
X027905Y015818D01*
X027898Y015816D01*
X027893D01*
X02789Y015815D01*
X027889D01*
X027869Y015811D01*
X027851Y015807D01*
X027844Y015804D01*
X027839Y015803D01*
X027836Y015801D01*
X027834D01*
X027815Y015793D01*
X027798Y015785D01*
X027793Y015782D01*
X027787Y015779D01*
X027785Y015778D01*
X027783Y015776D01*
X027766Y015765D01*
X027753Y015754D01*
X027747Y015748D01*
X027743Y015746D01*
X027741Y015743D01*
X02774Y015742D01*
X027728Y015726D01*
X027719Y015711D01*
X027715Y015705D01*
X027712Y0157D01*
X027711Y015697D01*
Y015696D01*
X027704Y015675D01*
X027701Y015657D01*
X0277Y015649D01*
Y015637D01*
X027701Y015618D01*
X027705Y0156D01*
X027707Y015593D01*
X027708Y015587D01*
X02771Y015585D01*
Y015583D01*
X027719Y015565D01*
X027729Y01555D01*
X027733Y015544D01*
X027737Y01554D01*
X027739Y015537D01*
X02774Y015536D01*
X027755Y015522D01*
X027771Y015511D01*
X027778Y015508D01*
X027783Y015506D01*
X027786Y015503D01*
X027787D01*
X02781Y015496D01*
X02783Y015492D01*
X027839D01*
X027846Y01549D01*
X027851D01*
X027866Y015492D01*
X02788Y015493D01*
X027886D01*
X02789Y015494D01*
X027894D01*
X027912Y015497D01*
X027926Y015501D01*
X027933Y015503D01*
X027937Y015504D01*
X02794Y015506D01*
X027941D01*
X027958Y015512D01*
X027973Y015521D01*
X027979Y015525D01*
X027983Y015528D01*
X027986Y015531D01*
X027987D01*
X028004Y015546D01*
X028016Y01556D01*
X028022Y015567D01*
X028026Y015572D01*
X028027Y015575D01*
X028029Y015576D01*
X028036D01*
X028037Y015561D01*
X02804Y015549D01*
X028041Y01554D01*
X028043Y015539D01*
Y015537D01*
X02805Y015526D01*
X028057Y015518D01*
X028062Y015511D01*
X028065Y01551D01*
X028077Y015504D01*
X028089Y015499D01*
X028098Y015497D01*
X0281Y015496D01*
X028101D01*
X028119Y015493D01*
X028136Y015492D01*
X028143Y01549D01*
X028154D01*
X028165Y015492D01*
X028175Y015493D01*
X028183Y015494D01*
X028186D01*
X028198Y015497D01*
X028209Y015501D01*
X028218Y015503D01*
X028219Y015504D01*
X02822D01*
X028233Y015508D01*
X028243Y015512D01*
X02825Y015515D01*
X028252Y015517D01*
X028262Y015522D01*
X02827Y015526D01*
X028276Y015529D01*
X028277Y015531D01*
Y015579D01*
X028261D01*
X028252Y015578D01*
X028245Y015575D01*
X02824Y015574D01*
X028237D01*
X028229Y015572D01*
X028215D01*
X028205Y015574D01*
X028202Y015575D01*
X028201D01*
X028194Y015581D01*
X028191Y015582D01*
X02819Y015583D01*
X028184Y015592D01*
X028182Y015594D01*
Y015596D01*
X02818Y015603D01*
X028179Y015608D01*
Y015612D01*
Y015614D01*
Y015859D01*
X028177Y015878D01*
X028176Y015894D01*
X028173Y015908D01*
X02817Y015921D01*
X028166Y01593D01*
X028163Y015937D01*
X028162Y015941D01*
X028161Y015943D01*
X028154Y015954D01*
X028145Y015964D01*
X028138Y015973D01*
X02813Y01598D01*
X028123Y015986D01*
X028119Y01599D01*
X028115Y015991D01*
X028113Y015993D01*
X028091Y016004D01*
X028069Y016012D01*
X028059Y016015D01*
X028052Y016016D01*
X028047Y016018D01*
X028045D01*
X028018Y016022D01*
X028004Y016023D01*
X027993D01*
X027983Y016025D01*
D02*
G37*
G36*
X01885D02*
X018808D01*
X018796Y016023D01*
X018786D01*
X018778Y016022D01*
X018771D01*
X018767Y01602D01*
X018765D01*
X018743Y016018D01*
X018733Y016015D01*
X018725Y016014D01*
X018718Y016012D01*
X018713D01*
X018708Y016011D01*
X018707D01*
X018688Y016007D01*
X018671Y016002D01*
X018665Y016D01*
X01866Y015998D01*
X018657Y015997D01*
X018656D01*
X018638Y015991D01*
X018621Y015987D01*
X018615Y015986D01*
X01861Y015984D01*
X018607Y015983D01*
X018606D01*
Y015861D01*
X01864D01*
X018651Y015868D01*
X018663Y015875D01*
X018672Y01588D01*
X018674Y015883D01*
X018675D01*
X018692Y015894D01*
X018707Y015904D01*
X018713Y015908D01*
X018718Y015911D01*
X018721Y015914D01*
X018722D01*
X01874Y015925D01*
X018756Y015933D01*
X018763Y015936D01*
X018767Y015939D01*
X018769Y01594D01*
X018771D01*
X018789Y015947D01*
X018803Y015951D01*
X018808Y015952D01*
X018815D01*
X018831Y015951D01*
X018842Y01595D01*
X018849Y015947D01*
X018851Y015946D01*
X018861Y01594D01*
X018869Y015933D01*
X018874Y015927D01*
X018875Y015925D01*
X018882Y015915D01*
X018886Y015904D01*
X018887Y015896D01*
X018889Y015894D01*
Y015893D01*
X018892Y015879D01*
X018893Y015865D01*
Y015858D01*
Y015854D01*
Y015851D01*
Y01585D01*
Y015812D01*
X018887D01*
X018882Y015814D01*
X018875D01*
X018867Y015815D01*
X018858D01*
X018853Y015816D01*
X01885D01*
X01884Y015818D01*
X018833D01*
X018828Y015819D01*
X018825D01*
X018817Y015821D01*
X018808D01*
X01879Y015819D01*
X018772Y015818D01*
X018765Y015816D01*
X01876D01*
X018757Y015815D01*
X018756D01*
X018736Y015811D01*
X018718Y015807D01*
X018711Y015804D01*
X018706Y015803D01*
X018703Y015801D01*
X018701D01*
X018682Y015793D01*
X018665Y015785D01*
X01866Y015782D01*
X018654Y015779D01*
X018651Y015778D01*
X01865Y015776D01*
X018633Y015765D01*
X01862Y015754D01*
X018614Y015748D01*
X01861Y015746D01*
X018608Y015743D01*
X018607Y015742D01*
X018595Y015726D01*
X018586Y015711D01*
X018582Y015705D01*
X018579Y0157D01*
X018578Y015697D01*
Y015696D01*
X018571Y015675D01*
X018568Y015657D01*
X018567Y015649D01*
Y015637D01*
X018568Y015618D01*
X018572Y0156D01*
X018574Y015593D01*
X018575Y015587D01*
X018577Y015585D01*
Y015583D01*
X018586Y015565D01*
X018596Y01555D01*
X0186Y015544D01*
X018604Y01554D01*
X018606Y015537D01*
X018607Y015536D01*
X018622Y015522D01*
X018638Y015511D01*
X018645Y015508D01*
X01865Y015506D01*
X018653Y015503D01*
X018654D01*
X018676Y015496D01*
X018697Y015492D01*
X018706D01*
X018713Y01549D01*
X018718D01*
X018733Y015492D01*
X018747Y015493D01*
X018753D01*
X018757Y015494D01*
X018761D01*
X018779Y015497D01*
X018793Y015501D01*
X0188Y015503D01*
X018804Y015504D01*
X018807Y015506D01*
X018808D01*
X018825Y015512D01*
X01884Y015521D01*
X018846Y015525D01*
X01885Y015528D01*
X018853Y015531D01*
X018854D01*
X018871Y015546D01*
X018883Y01556D01*
X018889Y015567D01*
X018893Y015572D01*
X018894Y015575D01*
X018896Y015576D01*
X018903D01*
X018904Y015561D01*
X018907Y015549D01*
X018908Y01554D01*
X01891Y015539D01*
Y015537D01*
X018917Y015526D01*
X018924Y015518D01*
X018929Y015511D01*
X018932Y01551D01*
X018944Y015504D01*
X018955Y015499D01*
X018965Y015497D01*
X018967Y015496D01*
X018968D01*
X018986Y015493D01*
X019003Y015492D01*
X01901Y01549D01*
X019021D01*
X019032Y015492D01*
X019042Y015493D01*
X01905Y015494D01*
X019053D01*
X019065Y015497D01*
X019076Y015501D01*
X019085Y015503D01*
X019086Y015504D01*
X019087D01*
X0191Y015508D01*
X01911Y015512D01*
X019116Y015515D01*
X019119Y015517D01*
X019129Y015522D01*
X019137Y015526D01*
X019143Y015529D01*
X019144Y015531D01*
Y015579D01*
X019128D01*
X019119Y015578D01*
X019112Y015575D01*
X019107Y015574D01*
X019104D01*
X019096Y015572D01*
X019082D01*
X019072Y015574D01*
X019069Y015575D01*
X019068D01*
X019061Y015581D01*
X019058Y015582D01*
X019057Y015583D01*
X019051Y015592D01*
X019048Y015594D01*
Y015596D01*
X019047Y015603D01*
X019046Y015608D01*
Y015612D01*
Y015614D01*
Y015859D01*
X019044Y015878D01*
X019043Y015894D01*
X01904Y015908D01*
X019037Y015921D01*
X019033Y01593D01*
X01903Y015937D01*
X019029Y015941D01*
X019028Y015943D01*
X019021Y015954D01*
X019012Y015964D01*
X019005Y015973D01*
X018997Y01598D01*
X01899Y015986D01*
X018986Y01599D01*
X018982Y015991D01*
X01898Y015993D01*
X018958Y016004D01*
X018936Y016012D01*
X018926Y016015D01*
X018919Y016016D01*
X018914Y016018D01*
X018912D01*
X018885Y016022D01*
X018871Y016023D01*
X01886D01*
X01885Y016025D01*
D02*
G37*
G36*
X025714Y01602D02*
X025486Y015998D01*
Y015954D01*
X025544Y015929D01*
X025553Y015923D01*
X025555Y015922D01*
X025557Y015921D01*
X02556Y015916D01*
X025562Y015912D01*
Y015908D01*
Y015907D01*
Y015629D01*
X025555Y015619D01*
X025548Y015612D01*
X025544Y015608D01*
X025542Y015607D01*
X025533Y015603D01*
X025525Y015599D01*
X025519Y015597D01*
X025517Y015596D01*
X025507Y015593D01*
X025498Y015592D01*
X025493Y01559D01*
X02549D01*
X02548Y015589D01*
X025465D01*
X025447Y01559D01*
X025433Y015593D01*
X025428Y015594D01*
X025424Y015596D01*
X025422Y015597D01*
X025421D01*
X02541Y015604D01*
X025401Y015612D01*
X025396Y015619D01*
X025394Y015622D01*
X025389Y015636D01*
X025385Y015649D01*
X025383Y015654D01*
X025382Y015658D01*
Y015661D01*
Y015662D01*
X025381Y015682D01*
X025379Y0157D01*
Y015708D01*
Y015714D01*
Y015718D01*
Y015719D01*
Y01602D01*
X025151Y015998D01*
Y015954D01*
X02521Y015929D01*
X025218Y015923D01*
X02522Y015922D01*
X025221Y015921D01*
X025224Y015916D01*
X025226Y015912D01*
Y015908D01*
Y015907D01*
Y01566D01*
Y015643D01*
X025228Y015629D01*
X025231Y015615D01*
X025233Y015604D01*
X025235Y015594D01*
X025238Y015587D01*
X025239Y015583D01*
Y015582D01*
X02525Y01556D01*
X025257Y015551D01*
X025263Y015543D01*
X025267Y015537D01*
X025271Y015533D01*
X025274Y015531D01*
X025275Y015529D01*
X025293Y015515D01*
X02531Y015507D01*
X025317Y015504D01*
X025322Y015501D01*
X025326Y0155D01*
X025328D01*
X025351Y015494D01*
X025362Y015493D01*
X025372Y015492D01*
X025381Y01549D01*
X025408D01*
X025422Y015492D01*
X025426D01*
X02543Y015493D01*
X025435D01*
X02545Y015496D01*
X025464Y0155D01*
X025468Y015501D01*
X025472Y015503D01*
X025475Y015504D01*
X025476D01*
X025493Y015511D01*
X025507Y015519D01*
X025512Y015524D01*
X025517Y015526D01*
X025519Y015529D01*
X025521D01*
X025537Y015543D01*
X025551Y015558D01*
X025557Y015564D01*
X025561Y015569D01*
X025564Y015572D01*
X025565Y015574D01*
X025572D01*
Y01549D01*
X025789Y015512D01*
Y015557D01*
X025732Y015581D01*
X025723Y015586D01*
X025721Y015589D01*
X025719D01*
X025716Y015593D01*
X025715Y015597D01*
X025714Y015601D01*
Y015603D01*
Y01602D01*
D02*
G37*
G36*
X024692Y016219D02*
X024459D01*
Y016175D01*
X024523Y01614D01*
X024531Y016134D01*
X024534Y016133D01*
X024535Y016132D01*
X024538Y016127D01*
X024541Y016123D01*
Y01612D01*
Y016119D01*
Y015589D01*
Y015583D01*
X024539Y015578D01*
X024538Y015576D01*
X024537Y015575D01*
X024532Y015572D01*
X024528Y015569D01*
X024524Y015568D01*
X024523Y015567D01*
X024464Y015543D01*
Y0155D01*
X024752D01*
Y015543D01*
X02471Y015567D01*
X024705Y015571D01*
X0247Y015574D01*
X024698Y015575D01*
X024696D01*
X024693Y015579D01*
X024692Y015583D01*
Y015587D01*
Y015589D01*
Y015884D01*
X024699Y015894D01*
X024705Y015901D01*
X02471Y015905D01*
X024711Y015907D01*
X024721Y015912D01*
X024728Y015916D01*
X024734Y015918D01*
X024736Y015919D01*
X024746Y015922D01*
X024755Y015923D01*
X02476Y015925D01*
X024763D01*
X024773Y015926D01*
X024786D01*
X024806Y015925D01*
X02482Y015922D01*
X024825Y015921D01*
X024829Y015919D01*
X024831Y015918D01*
X024832D01*
X024845Y015911D01*
X024853Y015903D01*
X024859Y015896D01*
X02486Y015894D01*
Y015893D01*
X024866Y01588D01*
X02487Y015866D01*
X024871Y015861D01*
X024873Y015857D01*
Y015854D01*
Y015853D01*
X024875Y015833D01*
X024877Y015814D01*
Y015807D01*
Y0158D01*
Y015796D01*
Y015794D01*
Y01559D01*
X024875Y015583D01*
X024874Y015579D01*
X024873Y015576D01*
X024871Y015575D01*
X024864Y015569D01*
X024861Y015568D01*
X02486Y015567D01*
X024813Y015543D01*
Y0155D01*
X0251D01*
Y015543D01*
X025047Y015567D01*
X025042Y015569D01*
X025038Y015572D01*
X025035Y015575D01*
X025034D01*
X025031Y015579D01*
X025029Y015585D01*
Y015589D01*
Y01559D01*
Y015854D01*
Y015871D01*
X025027Y015886D01*
X025025Y015898D01*
X025022Y015909D01*
X02502Y015919D01*
X025018Y015926D01*
X025015Y01593D01*
Y015932D01*
X02501Y015944D01*
X025004Y015954D01*
X024999Y015964D01*
X024993Y015971D01*
X024988Y015976D01*
X024984Y01598D01*
X024981Y015983D01*
X024979Y015984D01*
X024961Y015998D01*
X024943Y016008D01*
X024935Y016011D01*
X024929Y016014D01*
X024925Y016015D01*
X024924D01*
X0249Y01602D01*
X024889Y016022D01*
X024879Y016023D01*
X024871Y016025D01*
X024843D01*
X024831Y016023D01*
X024825Y016022D01*
X024821D01*
X024818Y01602D01*
X024817D01*
X0248Y016018D01*
X024786Y016014D01*
X024781Y016011D01*
X024777Y016009D01*
X024774Y016008D01*
X024773D01*
X024756Y016D01*
X024742Y01599D01*
X024736Y015987D01*
X024732Y015983D01*
X02473Y015982D01*
X024728Y01598D01*
X024713Y015965D01*
X0247Y01595D01*
X024695Y015943D01*
X024691Y015939D01*
X024689Y015934D01*
X024688Y015933D01*
X024692Y015976D01*
Y016219D01*
D02*
G37*
G36*
X022971Y016184D02*
X022954D01*
X022921Y016183D01*
X022906Y01618D01*
X022892Y016179D01*
X022881Y016176D01*
X022872Y016173D01*
X022867Y016172D01*
X022865D01*
X022852Y016166D01*
X022838Y016161D01*
X022825Y016155D01*
X022815Y01615D01*
X022807Y016145D01*
X0228Y016141D01*
X022796Y016138D01*
X022795Y016137D01*
X022775Y01612D01*
X022761Y016104D01*
X022756Y016097D01*
X022752Y016093D01*
X02275Y016089D01*
X022749Y016087D01*
X022743Y016076D01*
X022739Y016066D01*
X022735Y016045D01*
X022734Y016037D01*
X022732Y01603D01*
Y016026D01*
Y016025D01*
Y016014D01*
X022734Y016002D01*
Y015996D01*
Y015994D01*
Y015993D01*
X022735Y01598D01*
X022738Y015969D01*
X022741Y015959D01*
X022742Y015958D01*
Y015957D01*
X022749Y015941D01*
X022757Y015929D01*
X02276Y015923D01*
X022763Y015919D01*
X022766Y015916D01*
Y015915D01*
X022779Y015898D01*
X022795Y015883D01*
X022802Y015876D01*
X022807Y015871D01*
X02281Y015868D01*
X022811Y015866D01*
X022709Y015803D01*
X022702Y015794D01*
X022696Y015785D01*
X022692Y015778D01*
X022691Y015776D01*
Y015775D01*
X022686Y015764D01*
X022682Y015753D01*
X022679Y015744D01*
X022678Y015743D01*
Y015742D01*
X022674Y015728D01*
X022673Y015717D01*
X02267Y015708D01*
Y015707D01*
Y015705D01*
X022668Y015693D01*
X022667Y015682D01*
Y015671D01*
X022668Y015655D01*
X02267Y015642D01*
X022673Y015628D01*
X022675Y015617D01*
X022678Y015608D01*
X022679Y0156D01*
X022682Y015596D01*
Y015594D01*
X022696Y015571D01*
X022703Y015561D01*
X022711Y015553D01*
X022717Y015546D01*
X022722Y01554D01*
X022725Y015537D01*
X022727Y015536D01*
X02275Y015521D01*
X022771Y01551D01*
X022781Y015506D01*
X022788Y015503D01*
X022793Y0155D01*
X022795D01*
X022825Y015492D01*
X02284Y015489D01*
X022853Y015488D01*
X022865D01*
X022874Y015486D01*
X022897D01*
X022911Y015488D01*
X022924Y015489D01*
X022933Y01549D01*
X022942D01*
X022949Y015492D01*
X022953Y015493D01*
X022954D01*
X022977Y015499D01*
X022986Y015501D01*
X022995Y015504D01*
X023001Y015506D01*
X023007Y015508D01*
X02301Y01551D01*
X023011D01*
X023029Y015519D01*
X023043Y015529D01*
X023049Y015533D01*
X023053Y015536D01*
X023056Y015537D01*
X023057Y015539D01*
X023072Y015553D01*
X023086Y015565D01*
X02309Y015571D01*
X023094Y015575D01*
X023097Y015578D01*
X023099Y015579D01*
X023125Y015553D01*
X023138Y01554D01*
X023147Y015532D01*
X023153Y015525D01*
X023156Y015524D01*
X023165Y015517D01*
X023174Y015512D01*
X023179Y01551D01*
X023182Y015508D01*
X023192Y015506D01*
X0232Y015503D01*
X023207Y015501D01*
X02321D01*
X023222Y0155D01*
X023411D01*
Y015543D01*
X023332Y015567D01*
X023325Y015569D01*
X023322Y015571D01*
X023321D01*
X023314Y015576D01*
X023311Y015578D01*
X02331D01*
X023303Y015583D01*
X0233Y015586D01*
X023299D01*
X023293Y015592D01*
X023292Y015594D01*
X02329D01*
X02321Y015669D01*
X023219Y015682D01*
X023226Y015692D01*
X023232Y015698D01*
X023235Y015701D01*
X023243Y015714D01*
X023251Y015723D01*
X023257Y01573D01*
X023258Y015733D01*
X023267Y015746D01*
X023274Y015755D01*
X023279Y015762D01*
X02328Y015765D01*
X023289Y015778D01*
X023294Y015787D01*
X023299Y015794D01*
X0233Y015797D01*
X023305Y015805D01*
X023311Y015811D01*
X023315Y015815D01*
X023317Y015816D01*
X023324Y015822D01*
X023329Y015826D01*
X023333Y015828D01*
X023335Y015829D01*
X023392Y015853D01*
Y015894D01*
X023147D01*
Y015853D01*
X023218Y015823D01*
X023217Y015816D01*
X023215Y01581D01*
X023214Y015805D01*
X023212Y015804D01*
X02321Y015797D01*
X023207Y015789D01*
X023206Y015785D01*
X023204Y015782D01*
X0232Y015772D01*
X023194Y015762D01*
X02319Y015755D01*
X023189Y015754D01*
Y015753D01*
X023181Y01574D01*
X023174Y015728D01*
X023171Y015722D01*
X023168Y015718D01*
X023165Y015715D01*
Y015714D01*
X023017Y015858D01*
X023129Y015925D01*
X02314Y015943D01*
X023149Y015959D01*
X023151Y015966D01*
X023154Y015972D01*
X023156Y015976D01*
Y015977D01*
X023162Y016001D01*
X023164Y016012D01*
X023165Y016022D01*
X023167Y016032D01*
Y016039D01*
Y016043D01*
Y016044D01*
Y016055D01*
X023164Y016066D01*
X023161Y016076D01*
X023158Y016084D01*
X023156Y016091D01*
X023153Y016097D01*
X023151Y0161D01*
X02315Y016101D01*
X023136Y016119D01*
X023122Y016133D01*
X023115Y016138D01*
X02311Y016143D01*
X023107Y016144D01*
X023106Y016145D01*
X023083Y016158D01*
X023063Y016168D01*
X023053Y01617D01*
X023046Y016173D01*
X02304Y016175D01*
X023039D01*
X02301Y01618D01*
X022995Y016182D01*
X022982Y016183D01*
X022971Y016184D01*
D02*
G37*
G36*
X021856Y016219D02*
X021623D01*
Y016175D01*
X021687Y01614D01*
X021695Y016134D01*
X021698Y016133D01*
X0217Y016132D01*
X021702Y016127D01*
X021705Y016123D01*
Y01612D01*
Y016119D01*
Y015589D01*
Y015583D01*
X021704Y015578D01*
X021702Y015576D01*
X021701Y015575D01*
X021697Y015572D01*
X021693Y015569D01*
X021688Y015568D01*
X021687Y015567D01*
X021629Y015543D01*
Y0155D01*
X021916D01*
Y015543D01*
X021874Y015567D01*
X021869Y015571D01*
X021865Y015574D01*
X021862Y015575D01*
X021861D01*
X021858Y015579D01*
X021856Y015583D01*
Y015587D01*
Y015589D01*
Y015884D01*
X021863Y015894D01*
X021869Y015901D01*
X021874Y015905D01*
X021876Y015907D01*
X021886Y015912D01*
X021892Y015916D01*
X021898Y015918D01*
X021901Y015919D01*
X021911Y015922D01*
X021919Y015923D01*
X021924Y015925D01*
X021927D01*
X021937Y015926D01*
X021951D01*
X02197Y015925D01*
X021984Y015922D01*
X02199Y015921D01*
X021994Y015919D01*
X021995Y015918D01*
X021997D01*
X022009Y015911D01*
X022017Y015903D01*
X022023Y015896D01*
X022024Y015894D01*
Y015893D01*
X02203Y01588D01*
X022034Y015866D01*
X022035Y015861D01*
X022037Y015857D01*
Y015854D01*
Y015853D01*
X02204Y015833D01*
X022041Y015814D01*
Y015807D01*
Y0158D01*
Y015796D01*
Y015794D01*
Y01559D01*
X02204Y015583D01*
X022038Y015579D01*
X022037Y015576D01*
X022035Y015575D01*
X022028Y015569D01*
X022026Y015568D01*
X022024Y015567D01*
X021977Y015543D01*
Y0155D01*
X022264D01*
Y015543D01*
X022212Y015567D01*
X022206Y015569D01*
X022202Y015572D01*
X022199Y015575D01*
X022198D01*
X022195Y015579D01*
X022194Y015585D01*
Y015589D01*
Y01559D01*
Y015854D01*
Y015871D01*
X022191Y015886D01*
X02219Y015898D01*
X022187Y015909D01*
X022184Y015919D01*
X022183Y015926D01*
X02218Y01593D01*
Y015932D01*
X022174Y015944D01*
X022169Y015954D01*
X022163Y015964D01*
X022158Y015971D01*
X022152Y015976D01*
X022148Y01598D01*
X022145Y015983D01*
X022144Y015984D01*
X022126Y015998D01*
X022108Y016008D01*
X022099Y016011D01*
X022094Y016014D01*
X02209Y016015D01*
X022088D01*
X022065Y01602D01*
X022053Y016022D01*
X022044Y016023D01*
X022035Y016025D01*
X022008D01*
X021995Y016023D01*
X02199Y016022D01*
X021985D01*
X021983Y01602D01*
X021981D01*
X021965Y016018D01*
X021951Y016014D01*
X021945Y016011D01*
X021941Y016009D01*
X021938Y016008D01*
X021937D01*
X02192Y016D01*
X021906Y01599D01*
X021901Y015987D01*
X021897Y015983D01*
X021894Y015982D01*
X021892Y01598D01*
X021877Y015965D01*
X021865Y01595D01*
X021859Y015943D01*
X021855Y015939D01*
X021854Y015934D01*
X021852Y015933D01*
X021856Y015976D01*
Y016219D01*
D02*
G37*
G36*
X020602Y016179D02*
X020477D01*
X020421Y016066D01*
X020232Y015592D01*
X020225Y015581D01*
X020219Y015572D01*
X020213Y015568D01*
X020212Y015567D01*
X02021D01*
X020162Y015543D01*
Y0155D01*
X020402D01*
Y015543D01*
X020323Y015575D01*
X020374Y015707D01*
X020614D01*
X02067Y015572D01*
X020593Y015543D01*
Y0155D01*
X020899D01*
Y015543D01*
X020847Y015564D01*
X020843Y015567D01*
X020839Y015569D01*
X020836Y015572D01*
X020835Y015574D01*
X020829Y015583D01*
X020828Y015587D01*
Y015589D01*
X020602Y016179D01*
D02*
G37*
G36*
X018241Y016169D02*
X017899D01*
Y016126D01*
X017974Y016095D01*
X017982Y016091D01*
X017984Y01609D01*
X017985Y016089D01*
X017988Y016084D01*
X017991Y01608D01*
Y016076D01*
Y016075D01*
Y015594D01*
X017989Y015587D01*
X017988Y015583D01*
X017987Y015581D01*
X017985Y015579D01*
X017978Y015574D01*
X017976Y015572D01*
X017974D01*
X017899Y015543D01*
Y0155D01*
X018486D01*
Y015744D01*
X018414D01*
X018389Y015604D01*
X018386Y015597D01*
X018385Y015596D01*
Y015594D01*
X018382Y01559D01*
X018381Y015589D01*
X018377Y015587D01*
X018375Y015586D01*
X018149D01*
Y016075D01*
X01815Y016082D01*
X018152Y016086D01*
X018153Y016087D01*
X018155Y016089D01*
X018163Y016094D01*
X018166Y016095D01*
X018167D01*
X018241Y016126D01*
Y016169D01*
D02*
G37*
G36*
X014478Y016001D02*
X014233Y015993D01*
Y015948D01*
X014308Y015918D01*
X014317Y015914D01*
X01432Y015912D01*
X014321Y015911D01*
X014324Y015907D01*
X014326Y015903D01*
Y015898D01*
Y015897D01*
Y01559D01*
X014325Y015585D01*
X014324Y015581D01*
X014322Y015578D01*
X014321Y015576D01*
X014313Y015571D01*
X014308Y015569D01*
X014307D01*
X014232Y015543D01*
Y0155D01*
X014571D01*
Y015543D01*
X014494Y015569D01*
X014487Y015574D01*
X014485Y015576D01*
X014483D01*
X014481Y015581D01*
X014479Y015586D01*
X014478Y015589D01*
Y01559D01*
Y016001D01*
D02*
G37*
G36*
X013367Y016025D02*
X013358D01*
X013335Y016023D01*
X013315Y016022D01*
X013295Y016018D01*
X01328Y016015D01*
X013266Y016011D01*
X013255Y016007D01*
X013249Y016005D01*
X013247Y016004D01*
X013229Y015996D01*
X013213Y015986D01*
X013198Y015976D01*
X013186Y015966D01*
X013176Y015958D01*
X013169Y015951D01*
X013163Y015947D01*
X013162Y015946D01*
X013149Y015932D01*
X013138Y015916D01*
X01313Y015903D01*
X013122Y015889D01*
X013116Y015878D01*
X013112Y015868D01*
X013109Y015862D01*
X013108Y015859D01*
X013101Y01584D01*
X013097Y015822D01*
X013093Y015804D01*
X013091Y015787D01*
X01309Y015772D01*
X013088Y015761D01*
Y015751D01*
X01309Y015728D01*
X013091Y015707D01*
X013094Y015687D01*
X013098Y015671D01*
X013102Y015657D01*
X013105Y015646D01*
X013106Y01564D01*
X013108Y015637D01*
X013116Y015619D01*
X013126Y015604D01*
X013136Y01559D01*
X013144Y015578D01*
X013152Y015568D01*
X013159Y015561D01*
X013163Y015557D01*
X013165Y015556D01*
X013179Y015544D01*
X013194Y015533D01*
X013208Y015525D01*
X01322Y015518D01*
X013233Y015512D01*
X013241Y015508D01*
X013247Y015507D01*
X013249Y015506D01*
X013269Y0155D01*
X013287Y015496D01*
X013306Y015493D01*
X013323Y015492D01*
X013337Y01549D01*
X013348Y015489D01*
X013358D01*
X013384Y01549D01*
X013395Y015492D01*
X013406Y015493D01*
X013415D01*
X013421Y015494D01*
X013426Y015496D01*
X013427D01*
X013452Y015501D01*
X013463Y015504D01*
X013473Y015507D01*
X013481Y01551D01*
X013487Y015512D01*
X013491Y015514D01*
X013492D01*
X013514Y015522D01*
X013524Y015526D01*
X013533Y015531D01*
X013539Y015533D01*
X013545Y015536D01*
X013548Y015539D01*
X013549D01*
X013569Y015549D01*
X013584Y015558D01*
X013589Y015561D01*
X013594Y015564D01*
X013596Y015567D01*
X013598D01*
Y015629D01*
X013571D01*
X013562Y015624D01*
X013552Y015619D01*
X013545Y015617D01*
X013544Y015615D01*
X013542D01*
X01353Y015611D01*
X013519Y015608D01*
X01351Y015605D01*
X013509Y015604D01*
X013508D01*
X013492Y0156D01*
X013478Y015597D01*
X013473Y015596D01*
X013469D01*
X013466Y015594D01*
X013465D01*
X013448Y015593D01*
X013433Y015592D01*
X013416D01*
X013387Y015593D01*
X01336Y015597D01*
X013338Y015604D01*
X01332Y015611D01*
X013305Y015618D01*
X013295Y015625D01*
X01329Y015629D01*
X013287Y01563D01*
X013272Y015647D01*
X013262Y015665D01*
X013254Y015685D01*
X013248Y015704D01*
X013245Y015721D01*
X013244Y015735D01*
X013242Y01574D01*
Y015744D01*
Y015746D01*
Y015747D01*
X013594D01*
X013595Y015751D01*
Y015755D01*
Y01576D01*
Y015761D01*
X013596Y015768D01*
Y015775D01*
Y01578D01*
Y015782D01*
X013598Y01579D01*
Y015798D01*
Y015804D01*
Y015805D01*
X013599Y015812D01*
Y015836D01*
X013596Y01585D01*
X013594Y015864D01*
X013591Y015875D01*
X013588Y015884D01*
X013585Y015893D01*
X013584Y015897D01*
X013583Y015898D01*
X013576Y015912D01*
X013569Y015925D01*
X01356Y015936D01*
X013552Y015946D01*
X013545Y015952D01*
X013539Y015958D01*
X013535Y015962D01*
X013534Y015964D01*
X013509Y015982D01*
X013496Y01599D01*
X013485Y015997D01*
X013474Y016001D01*
X013466Y016005D01*
X01346Y016007D01*
X013459Y016008D01*
X013442Y016014D01*
X013424Y016018D01*
X013408Y01602D01*
X013392Y016023D01*
X013378D01*
X013367Y016025D01*
D02*
G37*
G36*
X027342D02*
X027331D01*
X027307Y016023D01*
X027285Y016022D01*
X027264Y016018D01*
X027247Y016015D01*
X027233Y016011D01*
X027222Y016007D01*
X027215Y016005D01*
X027213Y016004D01*
X027195Y015996D01*
X027177Y015987D01*
X027163Y015977D01*
X027149Y015969D01*
X027139Y015961D01*
X027131Y015954D01*
X027125Y01595D01*
X027124Y015948D01*
X027111Y015934D01*
X0271Y015921D01*
X027091Y015907D01*
X027082Y015893D01*
X027077Y015882D01*
X027072Y015872D01*
X02707Y015866D01*
X027068Y015864D01*
X027061Y015844D01*
X027057Y015826D01*
X027053Y015807D01*
X027052Y01579D01*
X02705Y015776D01*
X027049Y015764D01*
Y015754D01*
X02705Y01573D01*
X027052Y01571D01*
X027054Y01569D01*
X027059Y015674D01*
X027063Y01566D01*
X027066Y015649D01*
X027067Y015643D01*
X027068Y01564D01*
X027077Y015622D01*
X027086Y015605D01*
X027096Y015592D01*
X027104Y015579D01*
X027113Y015569D01*
X02712Y015562D01*
X027124Y015557D01*
X027125Y015556D01*
X027139Y015544D01*
X027154Y015533D01*
X027168Y015525D01*
X027182Y015518D01*
X027193Y015511D01*
X027203Y015507D01*
X027209Y015506D01*
X027211Y015504D01*
X027231Y015499D01*
X02725Y015494D01*
X02727Y015492D01*
X027288Y01549D01*
X027303Y015489D01*
X027314Y015488D01*
X027325D01*
X027349Y015489D01*
X027371Y01549D01*
X02739Y015493D01*
X027408Y015497D01*
X027422Y015501D01*
X027433Y015504D01*
X027439Y015506D01*
X027442Y015507D01*
X027461Y015515D01*
X027478Y015524D01*
X027493Y015533D01*
X027506Y015542D01*
X027517Y01555D01*
X027524Y015557D01*
X027529Y015561D01*
X027531Y015562D01*
X027543Y015576D01*
X027554Y015592D01*
X027564Y015605D01*
X027572Y015618D01*
X027578Y01563D01*
X027582Y015639D01*
X027585Y015644D01*
X027586Y015647D01*
X027593Y015667D01*
X027597Y015686D01*
X027601Y015704D01*
X027603Y015721D01*
X027604Y015736D01*
X027605Y015747D01*
Y015778D01*
X027603Y015797D01*
X0276Y015814D01*
X027597Y01583D01*
X027594Y015843D01*
X027592Y015853D01*
X02759Y015858D01*
X027589Y015861D01*
X027582Y015879D01*
X027574Y015894D01*
X027565Y015909D01*
X027557Y015922D01*
X02755Y015932D01*
X027543Y015939D01*
X027539Y015944D01*
X027537Y015946D01*
X027524Y015958D01*
X02751Y015969D01*
X027496Y015979D01*
X027482Y015987D01*
X027469Y015994D01*
X02746Y015998D01*
X027454Y016001D01*
X027451Y016002D01*
X027432Y016009D01*
X027411Y016015D01*
X02739Y016019D01*
X027372Y016022D01*
X027356Y016023D01*
X027342Y016025D01*
D02*
G37*
G36*
X01649Y016219D02*
X016257D01*
Y016175D01*
X016321Y01614D01*
X016329Y016134D01*
X016332Y016133D01*
X016334Y016132D01*
X016336Y016127D01*
X016339Y016123D01*
Y01612D01*
Y016119D01*
Y015537D01*
X016357Y015529D01*
X016374Y015524D01*
X016381Y015521D01*
X016386Y015518D01*
X016389Y015517D01*
X01639D01*
X01641Y01551D01*
X016428Y015506D01*
X016435Y015504D01*
X01644Y015503D01*
X016445Y015501D01*
X016446D01*
X016468Y015497D01*
X016479Y015496D01*
X016489Y015494D01*
X016497Y015493D01*
X016503D01*
X016507Y015492D01*
X016508D01*
X016532Y015489D01*
X016543D01*
X016554Y015488D01*
X016575D01*
X0166Y015489D01*
X016624Y015492D01*
X016644Y015494D01*
X016662Y015499D01*
X016676Y015503D01*
X016687Y015507D01*
X016694Y015508D01*
X016697Y01551D01*
X016717Y015519D01*
X016735Y015529D01*
X01675Y01554D01*
X016762Y01555D01*
X016774Y015558D01*
X01678Y015565D01*
X016786Y015571D01*
X016787Y015572D01*
X0168Y015587D01*
X016811Y015604D01*
X016821Y015619D01*
X016828Y015633D01*
X016835Y015646D01*
X016839Y015655D01*
X01684Y015661D01*
X016842Y015664D01*
X016848Y015683D01*
X016853Y015704D01*
X016857Y015722D01*
X016858Y01574D01*
X01686Y015754D01*
X016861Y015767D01*
Y015796D01*
X016858Y015814D01*
X016857Y01583D01*
X016854Y015846D01*
X016851Y015858D01*
X01685Y015866D01*
X016847Y015873D01*
Y015875D01*
X016842Y015891D01*
X016835Y015907D01*
X016828Y015921D01*
X016822Y015932D01*
X016817Y015941D01*
X016811Y015948D01*
X016808Y015952D01*
X016807Y015954D01*
X016797Y015966D01*
X016786Y015976D01*
X016776Y015984D01*
X016765Y015993D01*
X016757Y015998D01*
X01675Y016002D01*
X016744Y016004D01*
X016743Y016005D01*
X016729Y016012D01*
X016714Y016016D01*
X0167Y01602D01*
X016686Y016022D01*
X016675Y016023D01*
X016667Y016025D01*
X016647D01*
X016635Y016023D01*
X016626Y016022D01*
X016622D01*
X016607Y016019D01*
X016592Y016015D01*
X016586Y016012D01*
X016582Y016011D01*
X016579Y016009D01*
X016578D01*
X01656Y016001D01*
X016545Y015991D01*
X016539Y015987D01*
X016533Y015983D01*
X016531Y015982D01*
X016529Y01598D01*
X016521Y015972D01*
X016513Y015964D01*
X016499Y015946D01*
X016493Y015939D01*
X016489Y015932D01*
X016488Y015927D01*
X016486Y015926D01*
X01649Y015976D01*
Y016219D01*
D02*
G37*
%LPD*%
G36*
X028026Y015628D02*
X028019Y015618D01*
X028012Y015611D01*
X028008Y015605D01*
X028005Y015604D01*
X027997Y015599D01*
X02799Y015594D01*
X027984Y015592D01*
X027982Y01559D01*
X027972Y015586D01*
X027964Y015585D01*
X027958Y015582D01*
X027955D01*
X027947Y015581D01*
X027939Y015579D01*
X027922D01*
X027914Y015581D01*
X027908Y015582D01*
X027905D01*
X027897Y015586D01*
X027889Y01559D01*
X027883Y015593D01*
X027882Y015594D01*
X027875Y015603D01*
X027869Y01561D01*
X027865Y015615D01*
X027864Y015618D01*
X027859Y01563D01*
X027858Y015643D01*
X027857Y015647D01*
Y015651D01*
Y015654D01*
Y015655D01*
X027858Y015675D01*
X027864Y015689D01*
X027865Y015694D01*
X027868Y015698D01*
X027869Y0157D01*
Y015701D01*
X02788Y015714D01*
X027891Y015723D01*
X0279Y015729D01*
X027903Y01573D01*
X027904D01*
X027922Y015737D01*
X027939Y015743D01*
X027946Y015744D01*
X027951D01*
X027955Y015746D01*
X027957D01*
X027982Y015748D01*
X027993Y01575D01*
X028004Y015751D01*
X028026D01*
Y015628D01*
D02*
G37*
G36*
X018893D02*
X018886Y015618D01*
X018879Y015611D01*
X018875Y015605D01*
X018872Y015604D01*
X018864Y015599D01*
X018857Y015594D01*
X018851Y015592D01*
X018849Y01559D01*
X018839Y015586D01*
X018831Y015585D01*
X018825Y015582D01*
X018822D01*
X018814Y015581D01*
X018806Y015579D01*
X018789D01*
X018781Y015581D01*
X018775Y015582D01*
X018772D01*
X018764Y015586D01*
X018756Y01559D01*
X01875Y015593D01*
X018749Y015594D01*
X018742Y015603D01*
X018736Y01561D01*
X018732Y015615D01*
X018731Y015618D01*
X018726Y01563D01*
X018725Y015643D01*
X018724Y015647D01*
Y015651D01*
Y015654D01*
Y015655D01*
X018725Y015675D01*
X018731Y015689D01*
X018732Y015694D01*
X018735Y015698D01*
X018736Y0157D01*
Y015701D01*
X018747Y015714D01*
X018758Y015723D01*
X018767Y015729D01*
X018769Y01573D01*
X018771D01*
X018789Y015737D01*
X018806Y015743D01*
X018813Y015744D01*
X018818D01*
X018822Y015746D01*
X018824D01*
X018849Y015748D01*
X01886Y01575D01*
X018871Y015751D01*
X018893D01*
Y015628D01*
D02*
G37*
G36*
X022971Y016108D02*
X022981Y016105D01*
X022988Y016102D01*
X02299Y016101D01*
X023Y016095D01*
X023007Y01609D01*
X023011Y016084D01*
X023013Y016083D01*
X02302Y016075D01*
X023024Y016066D01*
X023025Y016061D01*
X023026Y016058D01*
X023029Y016048D01*
X023031Y016039D01*
Y016033D01*
Y01603D01*
Y016015D01*
X023029Y016002D01*
X023028Y015993D01*
Y015991D01*
Y01599D01*
X023025Y015977D01*
X023022Y015968D01*
X02302Y015961D01*
X023018Y015959D01*
Y015958D01*
X023013Y015947D01*
X023007Y015937D01*
X023001Y015932D01*
X023Y015929D01*
X022992Y015919D01*
X022983Y015909D01*
X022977Y015904D01*
X022975Y015901D01*
X022974D01*
X022958Y015915D01*
X022947Y015926D01*
X022939Y015934D01*
X022938Y015936D01*
X022936Y015937D01*
X022925Y01595D01*
X022917Y015959D01*
X022911Y015966D01*
X02291Y015969D01*
X022903Y01598D01*
X022897Y01599D01*
X022895Y015997D01*
X022893Y016D01*
X02289Y016011D01*
X022889Y016022D01*
X022888Y016029D01*
Y01603D01*
Y016032D01*
X022889Y016043D01*
X02289Y016052D01*
X022892Y016058D01*
Y016061D01*
X022896Y01607D01*
X0229Y016079D01*
X022903Y016084D01*
X022904Y016086D01*
X022911Y016093D01*
X02292Y016098D01*
X022925Y016101D01*
X022927Y016102D01*
X022938Y016107D01*
X022947Y016108D01*
X022956Y016109D01*
X022958D01*
X022971Y016108D01*
D02*
G37*
G36*
X023053Y015624D02*
X023043Y015617D01*
X023036Y015611D01*
X023031Y015608D01*
X023028Y015607D01*
X02302Y015603D01*
X023011Y015599D01*
X023006Y015597D01*
X023003Y015596D01*
X022993Y015593D01*
X022983Y015592D01*
X022977Y01559D01*
X022974D01*
X022961Y015589D01*
X022936D01*
X02292Y01559D01*
X022906Y015593D01*
X0229D01*
X022896Y015594D01*
X022895Y015596D01*
X022893D01*
X022879Y015603D01*
X022868Y01561D01*
X022861Y015615D01*
X02286Y015618D01*
X022859D01*
X022849Y01563D01*
X02284Y015642D01*
X022835Y015651D01*
X022834Y015653D01*
Y015654D01*
X022829Y015671D01*
X022827Y015687D01*
X022825Y015693D01*
Y015698D01*
Y015701D01*
Y015703D01*
Y015715D01*
X022827Y015726D01*
Y015735D01*
Y015736D01*
Y015737D01*
X022828Y01575D01*
X022829Y01576D01*
X022832Y015765D01*
Y015768D01*
X022835Y015779D01*
X022839Y015787D01*
X02284Y015793D01*
X022842Y015796D01*
X022846Y015804D01*
X022852Y015812D01*
X022856Y015818D01*
X022857Y015819D01*
X023053Y015624D01*
D02*
G37*
G36*
X02052Y015952D02*
X020584Y015789D01*
X020407D01*
X020492Y016015D01*
X020503D01*
X02052Y015952D01*
D02*
G37*
G36*
X013366D02*
X01338Y01595D01*
X013385Y015947D01*
X01339Y015946D01*
X013391Y015944D01*
X013392D01*
X013405Y015937D01*
X013413Y015927D01*
X01342Y015921D01*
X013421Y015919D01*
Y015918D01*
X013428Y015904D01*
X013434Y015891D01*
X013435Y015884D01*
X013437Y01588D01*
X013438Y015878D01*
Y015876D01*
X013441Y015858D01*
X013444Y01584D01*
Y015833D01*
Y015828D01*
Y015823D01*
Y015822D01*
X013242D01*
X013245Y015844D01*
X013247Y015853D01*
X013248Y015861D01*
X013249Y015868D01*
X013251Y015873D01*
X013252Y015876D01*
Y015878D01*
X013261Y015894D01*
X013267Y015908D01*
X013273Y015916D01*
X013276Y015918D01*
Y015919D01*
X013287Y01593D01*
X013297Y015939D01*
X013305Y015943D01*
X013306Y015944D01*
X013308D01*
X013322Y01595D01*
X013334Y015952D01*
X01334Y015954D01*
X013348D01*
X013366Y015952D01*
D02*
G37*
G36*
X027336Y015951D02*
X027346Y01595D01*
X027356Y015947D01*
X027364Y015944D01*
X027371Y01594D01*
X027375Y015937D01*
X027378Y015936D01*
X027379Y015934D01*
X027394Y015921D01*
X027407Y015907D01*
X027411Y0159D01*
X027414Y015894D01*
X027417Y015891D01*
Y01589D01*
X027425Y015868D01*
X027432Y015847D01*
X027433Y015839D01*
X027435Y015832D01*
X027436Y015826D01*
Y015825D01*
X02744Y015797D01*
X027442Y015783D01*
Y015772D01*
X027443Y015762D01*
Y015754D01*
Y015748D01*
Y015747D01*
X027442Y015722D01*
Y015711D01*
X02744Y015701D01*
X027439Y015692D01*
Y015685D01*
X027438Y01568D01*
Y015679D01*
X027433Y015655D01*
X027431Y015646D01*
X027426Y015637D01*
X027424Y015629D01*
X027422Y015624D01*
X027419Y015621D01*
Y015619D01*
X027408Y015601D01*
X027397Y015587D01*
X027393Y015583D01*
X027389Y015579D01*
X027386Y015578D01*
X027385Y015576D01*
X027376Y015571D01*
X027368Y015567D01*
X02735Y015562D01*
X027342Y015561D01*
X027336Y01556D01*
X027331D01*
X027318Y015561D01*
X027308Y015562D01*
X027299Y015565D01*
X02729Y015569D01*
X027283Y015572D01*
X027278Y015575D01*
X027275Y015576D01*
X027274Y015578D01*
X027258Y015593D01*
X027246Y015608D01*
X027242Y015615D01*
X027239Y015621D01*
X027236Y015624D01*
Y015625D01*
X027228Y015649D01*
X027225Y01566D01*
X027222Y015669D01*
X027221Y015679D01*
X02722Y015686D01*
X027218Y01569D01*
Y015692D01*
X027215Y015719D01*
X027214Y015732D01*
Y015743D01*
X027213Y015753D01*
Y01576D01*
Y015765D01*
Y015767D01*
X027214Y015791D01*
Y015801D01*
X027215Y015812D01*
Y015819D01*
X027217Y015826D01*
Y01583D01*
Y015832D01*
X027222Y015855D01*
X027225Y015865D01*
X027228Y015875D01*
X027231Y015882D01*
X027233Y015887D01*
X027235Y01589D01*
Y015891D01*
X027246Y015909D01*
X027257Y015925D01*
X027263Y015929D01*
X027267Y015933D01*
X027268Y015934D01*
X02727Y015936D01*
X027278Y015941D01*
X027288Y015946D01*
X027306Y015951D01*
X027313D01*
X027318Y015952D01*
X027324D01*
X027336Y015951D01*
D02*
G37*
G36*
X016603Y01593D02*
X016613Y015929D01*
X016621Y015926D01*
X016626Y015923D01*
X016632Y015921D01*
X016635Y015919D01*
X016636Y015918D01*
X016651Y015905D01*
X016664Y015893D01*
X016668Y015887D01*
X016671Y015882D01*
X016674Y015879D01*
Y015878D01*
X016683Y015858D01*
X01669Y015839D01*
X016693Y01583D01*
X016694Y015823D01*
X016696Y015819D01*
Y015818D01*
X0167Y015793D01*
X016701Y01578D01*
Y015769D01*
X016703Y015758D01*
Y015751D01*
Y015746D01*
Y015744D01*
X016701Y015718D01*
X0167Y015705D01*
X016699Y015694D01*
X016697Y015686D01*
X016696Y015679D01*
X016694Y015675D01*
Y015674D01*
X016687Y01565D01*
X016685Y01564D01*
X016681Y015632D01*
X016678Y015624D01*
X016675Y015618D01*
X016674Y015615D01*
X016672Y015614D01*
X016661Y015597D01*
X016649Y015585D01*
X016643Y015581D01*
X016639Y015578D01*
X016636Y015575D01*
X016635D01*
X016615Y015567D01*
X016597Y015562D01*
X01659D01*
X016583Y015561D01*
X016572D01*
X016567Y015562D01*
X01656D01*
X016551Y015564D01*
X016545Y015565D01*
X016539Y015568D01*
X016536D01*
X016526Y015572D01*
X01652Y015575D01*
X016514Y015578D01*
X016511Y015579D01*
X016503Y015585D01*
X016496Y01559D01*
X016492Y015594D01*
X01649Y015596D01*
Y015883D01*
X016497Y015893D01*
X016503Y0159D01*
X016508Y015905D01*
X01651Y015907D01*
X01652Y015914D01*
X016526Y015918D01*
X016532Y015921D01*
X016535Y015922D01*
X016543Y015926D01*
X016551Y015929D01*
X016557Y01593D01*
X016558D01*
X016567Y015932D01*
X016574Y015933D01*
X016592D01*
X016603Y01593D01*
D02*
G37*
%LPC*%
G36*
X026141Y01502D02*
X026126D01*
X026119Y015019D01*
X026113Y015018D01*
X026112D01*
X026105Y015016D01*
X026098Y015015D01*
X026092Y015013D01*
X026091Y015012D01*
X026084Y015008D01*
X026077Y015004D01*
X026073Y015001D01*
X026071Y015D01*
X026064Y014993D01*
X026058Y014986D01*
X026053Y014981D01*
X026052Y014979D01*
X026046Y01497D01*
X026041Y014963D01*
X026037Y014958D01*
X026035Y014955D01*
X026028Y014947D01*
X026023Y014937D01*
X026017Y01493D01*
X026016Y014929D01*
Y014927D01*
X026008Y014915D01*
X025999Y014902D01*
X025995Y014898D01*
X025992Y014894D01*
X025991Y014891D01*
X02599Y01489D01*
X025978Y014873D01*
X025967Y014857D01*
X025962Y01485D01*
X025959Y014844D01*
X025956Y01484D01*
X025955Y014839D01*
X025988Y014815D01*
X026013Y014829D01*
X026023Y014836D01*
X026033Y014841D01*
X02604Y014845D01*
X026045Y014848D01*
X026048Y014851D01*
X026049D01*
X026066Y014862D01*
X02608Y01487D01*
X026085Y014873D01*
X026089Y014876D01*
X026091Y014877D01*
X026092D01*
X026105Y014886D01*
X026114Y014891D01*
X02612Y014895D01*
X026123Y014897D01*
X026133Y014902D01*
X026141Y014908D01*
X026146Y014912D01*
X026149Y014913D01*
X026156Y014919D01*
X026163Y014923D01*
X026166Y014926D01*
X026167Y014927D01*
X026173Y014933D01*
X026177Y014937D01*
X026178Y01494D01*
X02618Y014941D01*
X026184Y014947D01*
X026185Y014951D01*
X026187Y014954D01*
Y014955D01*
X026188Y014962D01*
X026189Y014968D01*
Y014972D01*
Y014973D01*
Y014979D01*
X026188Y014984D01*
X026187Y014988D01*
X026185Y01499D01*
X026181Y014997D01*
X026177Y015001D01*
X026174Y015004D01*
X026173Y015005D01*
X026162Y015013D01*
X026157Y015015D01*
X026156Y015016D01*
X026149Y015019D01*
X026141Y01502D01*
D02*
G37*
G36*
X022359D02*
X022343D01*
X022335Y015019D01*
X022329Y015018D01*
X022328Y015016D01*
X022321Y015013D01*
X022315Y015009D01*
X022311Y015006D01*
X02231Y015005D01*
X022304Y015001D01*
X0223Y014995D01*
X022297Y014991D01*
X022296Y01499D01*
X022293Y014984D01*
X022292Y014979D01*
Y014975D01*
Y014973D01*
X022293Y014961D01*
X022296Y01495D01*
X022299Y014944D01*
X0223Y014941D01*
X02231Y014932D01*
X02232Y014923D01*
X022328Y014916D01*
X022331Y014915D01*
X022332Y014913D01*
X02234Y014908D01*
X022349Y014902D01*
X022354Y014898D01*
X022356Y014897D01*
X022367Y01489D01*
X022377Y014884D01*
X022385Y014879D01*
X022386Y014877D01*
X022388D01*
X022403Y014869D01*
X022417Y014861D01*
X022424Y014857D01*
X022428Y014854D01*
X022431Y014852D01*
X022432Y014851D01*
X022453Y014839D01*
X022472Y014827D01*
X022481Y014822D01*
X022488Y014819D01*
X022492Y014816D01*
X022493Y014815D01*
X022526Y014839D01*
X022511Y014859D01*
X022504Y014868D01*
X0225Y014876D01*
X022495Y014882D01*
X022492Y014886D01*
X02249Y014888D01*
X022489Y01489D01*
X022479Y014905D01*
X022471Y014918D01*
X022465Y014925D01*
X022464Y014927D01*
X022457Y014938D01*
X022452Y014948D01*
X022447Y014954D01*
X022446Y014955D01*
X02244Y014963D01*
X022435Y014972D01*
X022431Y014977D01*
X022429Y014979D01*
X022422Y014987D01*
X022415Y014994D01*
X022411Y014998D01*
X02241Y015D01*
X022403Y015005D01*
X022396Y015009D01*
X022392Y015011D01*
X02239Y015012D01*
X022384Y015015D01*
X022378Y015016D01*
X022374Y015018D01*
X022372D01*
X022365Y015019D01*
X022359Y01502D01*
D02*
G37*
G36*
X020142Y015013D02*
X020134D01*
X020117Y015012D01*
X020104Y015009D01*
X020099Y015006D01*
X020095Y015005D01*
X020093Y015004D01*
X020092D01*
X020079Y014995D01*
X02007Y014984D01*
X020063Y014976D01*
X020061Y014975D01*
X02006Y014973D01*
X019963Y014839D01*
X019996Y014815D01*
X020134Y014911D01*
X02027Y014815D01*
X020304Y014839D01*
X020207Y014973D01*
X020196Y014986D01*
X020185Y014995D01*
X020177Y015001D01*
X020175Y015002D01*
X020174D01*
X02016Y015009D01*
X020147Y015012D01*
X020142Y015013D01*
D02*
G37*
G36*
X023071Y014775D02*
X023043D01*
X023029Y014773D01*
X023025D01*
X023021Y014772D01*
X023016D01*
X023001Y014769D01*
X022987Y014765D01*
X022982Y014764D01*
X022978Y014762D01*
X022975Y014761D01*
X022973D01*
X022958Y014754D01*
X022944Y014746D01*
X022939Y014741D01*
X022935Y014739D01*
X022932Y014737D01*
X02293Y014736D01*
X022914Y014722D01*
X0229Y014707D01*
X022894Y0147D01*
X02289Y014696D01*
X022887Y014691D01*
X022886Y01469D01*
X022879D01*
Y01477D01*
X022661Y014748D01*
Y014704D01*
X022719Y014679D01*
X022728Y014673D01*
X022731Y014672D01*
X022732Y014671D01*
X022735Y014666D01*
X022737Y014662D01*
Y014658D01*
Y014657D01*
Y014339D01*
X022736Y014333D01*
X022735Y014328D01*
X022733Y014326D01*
X022732Y014325D01*
X022728Y014322D01*
X022724Y014319D01*
X022721Y014318D01*
X022719Y014317D01*
X022661Y014293D01*
Y01425D01*
X02295D01*
Y014293D01*
X022907Y014317D01*
X022901Y014321D01*
X022897Y014324D01*
X022894Y014325D01*
X022893D01*
X02289Y014329D01*
X022889Y014333D01*
Y014337D01*
Y014339D01*
Y014634D01*
X022896Y014644D01*
X022901Y014651D01*
X022907Y014655D01*
X022908Y014657D01*
X022918Y014662D01*
X022925Y014666D01*
X02293Y014668D01*
X022933Y014669D01*
X022943Y014672D01*
X022951Y014673D01*
X022957Y014675D01*
X02296D01*
X022969Y014676D01*
X022986D01*
X023004Y014675D01*
X023019Y014672D01*
X023023Y014669D01*
X023028Y014668D01*
X023029Y014666D01*
X02303D01*
X023043Y014659D01*
X023051Y014651D01*
X023057Y014644D01*
X023058Y014643D01*
Y014641D01*
X023064Y014628D01*
X023068Y014615D01*
X023069Y014608D01*
X023071Y014604D01*
Y014601D01*
Y0146D01*
X023072Y014582D01*
X023073Y014564D01*
Y014555D01*
Y01455D01*
Y014546D01*
Y014544D01*
Y01434D01*
X023072Y014333D01*
X023071Y014329D01*
X023069Y014326D01*
X023068Y014325D01*
X023059Y014319D01*
X023057Y014318D01*
X023055Y014317D01*
X02301Y014293D01*
Y01425D01*
X023295D01*
Y014293D01*
X023244Y014317D01*
X023239Y014319D01*
X023234Y014322D01*
X023232Y014325D01*
X02323D01*
X023227Y014329D01*
X023226Y014335D01*
Y014339D01*
Y01434D01*
Y014604D01*
Y014621D01*
X023223Y014634D01*
X023222Y014647D01*
X023219Y014659D01*
X023216Y014668D01*
X023215Y014675D01*
X023212Y014679D01*
Y01468D01*
X023201Y014702D01*
X023195Y014712D01*
X02319Y014721D01*
X023184Y014726D01*
X02318Y01473D01*
X023177Y014733D01*
X023176Y014734D01*
X023158Y014748D01*
X023141Y014758D01*
X023134Y014761D01*
X023129Y014764D01*
X023125Y014765D01*
X023123D01*
X0231Y01477D01*
X023089Y014772D01*
X023079Y014773D01*
X023071Y014775D01*
D02*
G37*
G36*
X020859D02*
X020832D01*
X020818Y014773D01*
X020814D01*
X02081Y014772D01*
X020805D01*
X02079Y014769D01*
X020776Y014765D01*
X020771Y014764D01*
X020766Y014762D01*
X020764Y014761D01*
X020762D01*
X020747Y014754D01*
X020733Y014746D01*
X020728Y014741D01*
X020723Y014739D01*
X020721Y014737D01*
X020719Y014736D01*
X020703Y014722D01*
X020689Y014707D01*
X020683Y0147D01*
X020679Y014696D01*
X020676Y014691D01*
X020675Y01469D01*
X020668D01*
Y01477D01*
X02045Y014748D01*
Y014704D01*
X020508Y014679D01*
X020517Y014673D01*
X020519Y014672D01*
X020521Y014671D01*
X020524Y014666D01*
X020526Y014662D01*
Y014658D01*
Y014657D01*
Y014339D01*
X020525Y014333D01*
X020524Y014328D01*
X020522Y014326D01*
X020521Y014325D01*
X020517Y014322D01*
X020512Y014319D01*
X02051Y014318D01*
X020508Y014317D01*
X02045Y014293D01*
Y01425D01*
X020739D01*
Y014293D01*
X020696Y014317D01*
X02069Y014321D01*
X020686Y014324D01*
X020683Y014325D01*
X020682D01*
X020679Y014329D01*
X020678Y014333D01*
Y014337D01*
Y014339D01*
Y014634D01*
X020685Y014644D01*
X02069Y014651D01*
X020696Y014655D01*
X020697Y014657D01*
X020707Y014662D01*
X020714Y014666D01*
X020719Y014668D01*
X020722Y014669D01*
X020732Y014672D01*
X02074Y014673D01*
X020746Y014675D01*
X020748D01*
X020758Y014676D01*
X020775D01*
X020793Y014675D01*
X020808Y014672D01*
X020812Y014669D01*
X020816Y014668D01*
X020818Y014666D01*
X020819D01*
X020832Y014659D01*
X02084Y014651D01*
X020846Y014644D01*
X020847Y014643D01*
Y014641D01*
X020853Y014628D01*
X020857Y014615D01*
X020858Y014608D01*
X020859Y014604D01*
Y014601D01*
Y0146D01*
X020861Y014582D01*
X020862Y014564D01*
Y014555D01*
Y01455D01*
Y014546D01*
Y014544D01*
Y01434D01*
X020861Y014333D01*
X020859Y014329D01*
X020858Y014326D01*
X020857Y014325D01*
X020848Y014319D01*
X020846Y014318D01*
X020844Y014317D01*
X020798Y014293D01*
Y01425D01*
X021084D01*
Y014293D01*
X021033Y014317D01*
X021027Y014319D01*
X021023Y014322D01*
X02102Y014325D01*
X021019D01*
X021016Y014329D01*
X021015Y014335D01*
Y014339D01*
Y01434D01*
Y014604D01*
Y014621D01*
X021012Y014634D01*
X021011Y014647D01*
X021008Y014659D01*
X021005Y014668D01*
X021004Y014675D01*
X021001Y014679D01*
Y01468D01*
X02099Y014702D01*
X020984Y014712D01*
X020979Y014721D01*
X020973Y014726D01*
X020969Y01473D01*
X020966Y014733D01*
X020965Y014734D01*
X020947Y014748D01*
X02093Y014758D01*
X020923Y014761D01*
X020918Y014764D01*
X020914Y014765D01*
X020912D01*
X020889Y01477D01*
X020878Y014772D01*
X020868Y014773D01*
X020859Y014775D01*
D02*
G37*
G36*
X015863Y014919D02*
X015521D01*
Y014876D01*
X015595Y014845D01*
X015603Y014841D01*
X015606Y01484D01*
X015607Y014839D01*
X01561Y014834D01*
X015613Y01483D01*
Y014826D01*
Y014825D01*
Y014639D01*
X015337D01*
Y014825D01*
X015338Y01483D01*
X015339Y014834D01*
X015341Y014837D01*
X015351Y014843D01*
X015353Y014845D01*
X015355D01*
X015428Y014876D01*
Y014919D01*
X015087D01*
Y014876D01*
X015162Y014845D01*
X01517Y014841D01*
X015171Y01484D01*
X015173Y014839D01*
X015176Y014834D01*
X015178Y01483D01*
Y014826D01*
Y014825D01*
Y014344D01*
X015177Y014337D01*
X015176Y014333D01*
X015174Y014331D01*
X015173Y014329D01*
X015166Y014324D01*
X015163Y014322D01*
X015162D01*
X015087Y014293D01*
Y01425D01*
X015428D01*
Y014293D01*
X015355Y014324D01*
X015349Y014326D01*
X015345Y014328D01*
X015342Y014331D01*
X015341D01*
X015338Y014335D01*
X015337Y01434D01*
Y014344D01*
Y014346D01*
Y014558D01*
X015613D01*
Y014346D01*
X015611Y014339D01*
X01561Y014335D01*
X015609Y014332D01*
X015607Y014331D01*
X015603Y014328D01*
X015599Y014325D01*
X015596Y014324D01*
X015595D01*
X015521Y014293D01*
Y01425D01*
X015863D01*
Y014293D01*
X015789Y014322D01*
X015781Y014328D01*
X015778Y014331D01*
X015777D01*
X015774Y014335D01*
X015772Y014339D01*
X015771Y014343D01*
Y014344D01*
Y014825D01*
X015772Y014832D01*
X015774Y014836D01*
X015775Y014837D01*
X015777Y014839D01*
X015785Y014844D01*
X015788Y014845D01*
X015789D01*
X015863Y014876D01*
Y014919D01*
D02*
G37*
G36*
X024745D02*
X024384D01*
Y014876D01*
X024459Y014845D01*
X024467Y014841D01*
X024468Y01484D01*
X02447Y014839D01*
X024472Y014834D01*
X024475Y01483D01*
Y014826D01*
Y014825D01*
Y014344D01*
Y014339D01*
X024474Y014333D01*
X024472Y014332D01*
X024471Y014331D01*
X024467Y014328D01*
X024463Y014325D01*
X02446Y014324D01*
X024459Y014322D01*
X024384Y014293D01*
Y01425D01*
X024729D01*
Y014293D01*
X024652Y014322D01*
X024643Y014326D01*
X02464Y014329D01*
X024639D01*
X024636Y014333D01*
X024635Y014339D01*
X024633Y014343D01*
Y014344D01*
Y014521D01*
X024642Y014515D01*
X024652Y014511D01*
X024657Y014508D01*
X02466Y014507D01*
X024671Y014503D01*
X024681Y0145D01*
X024688Y014497D01*
X02469Y014496D01*
X024701Y014493D01*
X024711Y01449D01*
X024718Y014489D01*
X024721D01*
X024732Y014487D01*
X024749D01*
X024768Y014489D01*
X024785Y01449D01*
X024801Y014493D01*
X024815Y014496D01*
X024826Y014498D01*
X024836Y0145D01*
X024842Y014503D01*
X024843D01*
X02486Y01451D01*
X024874Y014517D01*
X024886Y014525D01*
X024897Y014533D01*
X024906Y014539D01*
X024912Y014544D01*
X024917Y014548D01*
X024918Y01455D01*
X024929Y014562D01*
X024939Y014575D01*
X024947Y014586D01*
X024954Y014598D01*
X02496Y014608D01*
X024964Y014616D01*
X024965Y014622D01*
X024967Y014623D01*
X024972Y01464D01*
X024978Y014658D01*
X02498Y014675D01*
X024982Y01469D01*
X024983Y014704D01*
X024985Y014714D01*
Y014723D01*
X024983Y014741D01*
X024982Y014759D01*
X024978Y014775D01*
X024975Y014787D01*
X024971Y014798D01*
X024967Y014805D01*
X024965Y014811D01*
X024964Y014812D01*
X024955Y014826D01*
X024947Y014837D01*
X024937Y014848D01*
X024929Y014857D01*
X024921Y014864D01*
X024914Y014869D01*
X02491Y014872D01*
X024908Y014873D01*
X024881Y014888D01*
X024867Y014894D01*
X024854Y0149D01*
X024843Y014904D01*
X024835Y014907D01*
X024829Y014908D01*
X024826D01*
X02479Y014915D01*
X024774Y014916D01*
X024758Y014918D01*
X024745Y014919D01*
D02*
G37*
G36*
X017825D02*
X01755D01*
Y014876D01*
X017624Y014841D01*
X017632Y014837D01*
X017634Y014836D01*
X017635Y014834D01*
X017638Y014832D01*
X017641Y014827D01*
Y014823D01*
Y014822D01*
Y014461D01*
X017631D01*
X017598Y014519D01*
X01732Y014919D01*
X01707D01*
Y014876D01*
X017147Y014845D01*
X017155Y014841D01*
X017156Y01484D01*
X017158Y014839D01*
X01716Y014834D01*
X017163Y01483D01*
Y014826D01*
Y014825D01*
Y014347D01*
X017162Y014342D01*
X01716Y014336D01*
X017159Y014335D01*
X017158Y014333D01*
X017151Y014328D01*
X017148Y014326D01*
X017147D01*
X017072Y014293D01*
Y01425D01*
X017346D01*
Y014293D01*
X017274Y014326D01*
X017267Y014331D01*
X017265Y014333D01*
X017263D01*
X01726Y014337D01*
X017259Y014342D01*
X017258Y014346D01*
Y014347D01*
Y014747D01*
X017267D01*
X017299Y014689D01*
X01761Y014246D01*
X01772D01*
X017734Y014351D01*
Y014822D01*
X017735Y014827D01*
X017736Y014832D01*
X017738Y014834D01*
X017739D01*
X017748Y01484D01*
X017749Y014841D01*
X01775D01*
X017825Y014876D01*
Y014919D01*
D02*
G37*
G36*
X015037D02*
X014795D01*
Y014876D01*
X014872Y014843D01*
X014704Y014403D01*
X014693D01*
X014679Y014462D01*
X014526Y014845D01*
X014602Y014876D01*
Y014919D01*
X014296D01*
Y014876D01*
X014346Y014854D01*
X014351Y014851D01*
X014355Y014847D01*
X014357Y014844D01*
X014358Y014843D01*
X014365Y014834D01*
X014366Y014832D01*
Y01483D01*
X014602Y01424D01*
X014723D01*
X014776Y01435D01*
X014965Y014829D01*
X01497Y014837D01*
X014972Y01484D01*
X014973Y014841D01*
X014979Y014845D01*
X014983Y014848D01*
X014985Y014851D01*
X014987D01*
X015037Y014876D01*
Y014919D01*
D02*
G37*
G36*
X019086Y01477D02*
X018858Y014748D01*
Y014704D01*
X018916Y014679D01*
X018925Y014673D01*
X018927Y014672D01*
X018929Y014671D01*
X018932Y014666D01*
X018934Y014662D01*
Y014658D01*
Y014657D01*
Y014379D01*
X018927Y014369D01*
X01892Y014362D01*
X018916Y014358D01*
X018914Y014357D01*
X018905Y014353D01*
X018897Y014349D01*
X018891Y014347D01*
X018889Y014346D01*
X018879Y014343D01*
X01887Y014342D01*
X018865Y01434D01*
X018862D01*
X018852Y014339D01*
X018837D01*
X018819Y01434D01*
X018805Y014343D01*
X0188Y014344D01*
X018796Y014346D01*
X018794Y014347D01*
X018793D01*
X018782Y014354D01*
X018773Y014362D01*
X018768Y014369D01*
X018766Y014372D01*
X018761Y014386D01*
X018757Y014399D01*
X018755Y014404D01*
X018754Y014408D01*
Y014411D01*
Y014412D01*
X018752Y014432D01*
X018751Y01445D01*
Y014458D01*
Y014464D01*
Y014468D01*
Y014469D01*
Y01477D01*
X018523Y014748D01*
Y014704D01*
X018582Y014679D01*
X01859Y014673D01*
X018591Y014672D01*
X018593Y014671D01*
X018596Y014666D01*
X018598Y014662D01*
Y014658D01*
Y014657D01*
Y01441D01*
Y014393D01*
X0186Y014379D01*
X018603Y014365D01*
X018605Y014354D01*
X018607Y014344D01*
X01861Y014337D01*
X018611Y014333D01*
Y014332D01*
X018622Y01431D01*
X018629Y014301D01*
X018635Y014293D01*
X018639Y014287D01*
X018643Y014283D01*
X018646Y014281D01*
X018647Y014279D01*
X018665Y014265D01*
X018682Y014257D01*
X018689Y014254D01*
X018694Y014251D01*
X018698Y01425D01*
X0187D01*
X018723Y014244D01*
X018734Y014243D01*
X018744Y014242D01*
X018752Y01424D01*
X01878D01*
X018794Y014242D01*
X018798D01*
X018802Y014243D01*
X018807D01*
X018822Y014246D01*
X018836Y01425D01*
X01884Y014251D01*
X018844Y014253D01*
X018847Y014254D01*
X018848D01*
X018865Y014261D01*
X018879Y014269D01*
X018884Y014274D01*
X018889Y014276D01*
X018891Y014279D01*
X018893D01*
X018909Y014293D01*
X018923Y014308D01*
X018929Y014314D01*
X018933Y014319D01*
X018936Y014322D01*
X018937Y014324D01*
X018944D01*
Y01424D01*
X019161Y014262D01*
Y014307D01*
X019104Y014331D01*
X019095Y014336D01*
X019093Y014339D01*
X019091D01*
X019088Y014343D01*
X019087Y014347D01*
X019086Y014351D01*
Y014353D01*
Y01477D01*
D02*
G37*
G36*
X025279Y014969D02*
X025046D01*
Y014925D01*
X02511Y01489D01*
X025118Y014884D01*
X025121Y014883D01*
X025122Y014882D01*
X025125Y014877D01*
X025128Y014873D01*
Y01487D01*
Y014869D01*
Y014339D01*
Y014333D01*
X025126Y014328D01*
X025125Y014326D01*
X025123Y014325D01*
X025119Y014322D01*
X025115Y014319D01*
X025111Y014318D01*
X02511Y014317D01*
X025051Y014293D01*
Y01425D01*
X025339D01*
Y014293D01*
X025297Y014317D01*
X025291Y014321D01*
X025287Y014324D01*
X025284Y014325D01*
X025283D01*
X02528Y014329D01*
X025279Y014333D01*
Y014337D01*
Y014339D01*
Y014634D01*
X025286Y014644D01*
X025291Y014651D01*
X025297Y014655D01*
X025298Y014657D01*
X025308Y014662D01*
X025315Y014666D01*
X025321Y014668D01*
X025323Y014669D01*
X025333Y014672D01*
X025341Y014673D01*
X025347Y014675D01*
X02535D01*
X025359Y014676D01*
X025373D01*
X025393Y014675D01*
X025407Y014672D01*
X025412Y014671D01*
X025416Y014669D01*
X025418Y014668D01*
X025419D01*
X025432Y014661D01*
X02544Y014653D01*
X025445Y014646D01*
X025447Y014644D01*
Y014643D01*
X025452Y01463D01*
X025457Y014616D01*
X025458Y014611D01*
X025459Y014607D01*
Y014604D01*
Y014603D01*
X025462Y014583D01*
X025463Y014564D01*
Y014557D01*
Y01455D01*
Y014546D01*
Y014544D01*
Y01434D01*
X025462Y014333D01*
X025461Y014329D01*
X025459Y014326D01*
X025458Y014325D01*
X025451Y014319D01*
X025448Y014318D01*
X025447Y014317D01*
X0254Y014293D01*
Y01425D01*
X025687D01*
Y014293D01*
X025634Y014317D01*
X025629Y014319D01*
X025624Y014322D01*
X025622Y014325D01*
X02562D01*
X025618Y014329D01*
X025616Y014335D01*
Y014339D01*
Y01434D01*
Y014604D01*
Y014621D01*
X025613Y014636D01*
X025612Y014648D01*
X025609Y014659D01*
X025606Y014669D01*
X025605Y014676D01*
X025602Y01468D01*
Y014682D01*
X025597Y014694D01*
X025591Y014704D01*
X025586Y014714D01*
X02558Y014721D01*
X025575Y014726D01*
X02557Y01473D01*
X025568Y014733D01*
X025566Y014734D01*
X025548Y014748D01*
X02553Y014758D01*
X025522Y014761D01*
X025516Y014764D01*
X025512Y014765D01*
X025511D01*
X025487Y01477D01*
X025476Y014772D01*
X025466Y014773D01*
X025458Y014775D01*
X02543D01*
X025418Y014773D01*
X025412Y014772D01*
X025408D01*
X025405Y01477D01*
X025404D01*
X025387Y014768D01*
X025373Y014764D01*
X025368Y014761D01*
X025364Y014759D01*
X025361Y014758D01*
X025359D01*
X025343Y01475D01*
X025329Y01474D01*
X025323Y014737D01*
X025319Y014733D01*
X025316Y014732D01*
X025315Y01473D01*
X0253Y014715D01*
X025287Y0147D01*
X025282Y014693D01*
X025277Y014689D01*
X025276Y014684D01*
X025275Y014683D01*
X025279Y014726D01*
Y014969D01*
D02*
G37*
G36*
X023583D02*
X02335D01*
Y014925D01*
X023413Y01489D01*
X023422Y014884D01*
X023425Y014883D01*
X023426Y014882D01*
X023429Y014877D01*
X023431Y014873D01*
Y01487D01*
Y014869D01*
Y014339D01*
Y014333D01*
X02343Y014328D01*
X023429Y014326D01*
X023427Y014325D01*
X023423Y014322D01*
X023419Y014319D01*
X023415Y014318D01*
X023413Y014317D01*
X023355Y014293D01*
Y01425D01*
X023642D01*
Y014293D01*
X023601Y014317D01*
X023595Y014321D01*
X023591Y014324D01*
X023588Y014325D01*
X023587D01*
X023584Y014329D01*
X023583Y014333D01*
Y014337D01*
Y014339D01*
Y014634D01*
X02359Y014644D01*
X023595Y014651D01*
X023601Y014655D01*
X023602Y014657D01*
X023612Y014662D01*
X023619Y014666D01*
X023624Y014668D01*
X023627Y014669D01*
X023637Y014672D01*
X023645Y014673D01*
X023651Y014675D01*
X023654D01*
X023663Y014676D01*
X023677D01*
X023697Y014675D01*
X02371Y014672D01*
X023716Y014671D01*
X02372Y014669D01*
X023722Y014668D01*
X023723D01*
X023735Y014661D01*
X023744Y014653D01*
X023749Y014646D01*
X023751Y014644D01*
Y014643D01*
X023756Y01463D01*
X02376Y014616D01*
X023762Y014611D01*
X023763Y014607D01*
Y014604D01*
Y014603D01*
X023766Y014583D01*
X023767Y014564D01*
Y014557D01*
Y01455D01*
Y014546D01*
Y014544D01*
Y01434D01*
X023766Y014333D01*
X023765Y014329D01*
X023763Y014326D01*
X023762Y014325D01*
X023755Y014319D01*
X023752Y014318D01*
X023751Y014317D01*
X023703Y014293D01*
Y01425D01*
X023991D01*
Y014293D01*
X023938Y014317D01*
X023933Y014319D01*
X023928Y014322D01*
X023926Y014325D01*
X023924D01*
X023921Y014329D01*
X02392Y014335D01*
Y014339D01*
Y01434D01*
Y014604D01*
Y014621D01*
X023917Y014636D01*
X023916Y014648D01*
X023913Y014659D01*
X02391Y014669D01*
X023909Y014676D01*
X023906Y01468D01*
Y014682D01*
X023901Y014694D01*
X023895Y014704D01*
X023889Y014714D01*
X023884Y014721D01*
X023878Y014726D01*
X023874Y01473D01*
X023871Y014733D01*
X02387Y014734D01*
X023852Y014748D01*
X023834Y014758D01*
X023826Y014761D01*
X02382Y014764D01*
X023816Y014765D01*
X023815D01*
X023791Y01477D01*
X02378Y014772D01*
X02377Y014773D01*
X023762Y014775D01*
X023734D01*
X023722Y014773D01*
X023716Y014772D01*
X023712D01*
X023709Y01477D01*
X023708D01*
X023691Y014768D01*
X023677Y014764D01*
X023672Y014761D01*
X023667Y014759D01*
X023665Y014758D01*
X023663D01*
X023647Y01475D01*
X023633Y01474D01*
X023627Y014737D01*
X023623Y014733D01*
X02362Y014732D01*
X023619Y01473D01*
X023604Y014715D01*
X023591Y0147D01*
X023586Y014693D01*
X023581Y014689D01*
X02358Y014684D01*
X023579Y014683D01*
X023583Y014726D01*
Y014969D01*
D02*
G37*
G36*
X022507Y014751D02*
X022263Y014743D01*
Y014698D01*
X022338Y014668D01*
X022346Y014664D01*
X022349Y014662D01*
X02235Y014661D01*
X022353Y014657D01*
X022356Y014653D01*
Y014648D01*
Y014647D01*
Y01434D01*
X022354Y014335D01*
X022353Y014331D01*
X022352Y014328D01*
X02235Y014326D01*
X022342Y014321D01*
X022338Y014319D01*
X022336D01*
X022261Y014293D01*
Y01425D01*
X0226D01*
Y014293D01*
X022524Y014319D01*
X022517Y014324D01*
X022514Y014326D01*
X022513D01*
X02251Y014331D01*
X022508Y014336D01*
X022507Y014339D01*
Y01434D01*
Y014751D01*
D02*
G37*
G36*
X021834Y014919D02*
X021479D01*
Y014876D01*
X021553Y014845D01*
X021562Y014841D01*
X021563Y01484D01*
X021565Y014839D01*
X021567Y014834D01*
X02157Y01483D01*
Y014826D01*
Y014825D01*
Y014637D01*
X021484D01*
Y014558D01*
X02157D01*
Y014344D01*
X021569Y014337D01*
X021567Y014333D01*
X021566Y014331D01*
X021565Y014329D01*
X021558Y014324D01*
X021555Y014322D01*
X021553D01*
X021479Y014293D01*
Y01425D01*
X021813D01*
X021842Y014251D01*
X021869Y014253D01*
X021894Y014256D01*
X021914Y01426D01*
X021932Y014264D01*
X021946Y014267D01*
X02195Y014268D01*
X021955D01*
X021956Y014269D01*
X021957D01*
X021981Y014278D01*
X022003Y014287D01*
X022024Y014297D01*
X022041Y014307D01*
X022055Y014317D01*
X022066Y014324D01*
X022071Y014329D01*
X022074Y014331D01*
X022092Y014347D01*
X022107Y014364D01*
X022121Y014382D01*
X022132Y014399D01*
X022141Y014412D01*
X022146Y014425D01*
X02215Y014432D01*
X022152Y014435D01*
X022161Y01446D01*
X022168Y014485D01*
X022174Y01451D01*
X022177Y014532D01*
X022179Y014553D01*
X022181Y014569D01*
Y014607D01*
X022178Y01463D01*
X022175Y01465D01*
X022173Y014668D01*
X02217Y014682D01*
X022167Y014693D01*
X022166Y014698D01*
X022164Y014701D01*
X022157Y014719D01*
X02215Y014736D01*
X022143Y014751D01*
X022136Y014764D01*
X02213Y014775D01*
X022124Y014782D01*
X022121Y014787D01*
X02212Y014789D01*
X022109Y014802D01*
X022098Y014814D01*
X022086Y014825D01*
X022077Y014834D01*
X022068Y014841D01*
X022061Y014847D01*
X022056Y01485D01*
X022055Y014851D01*
X022027Y014868D01*
X022014Y014875D01*
X022003Y01488D01*
X021993Y014886D01*
X021985Y014888D01*
X02198Y014891D01*
X021978D01*
X021949Y014901D01*
X021935Y014905D01*
X021924Y014908D01*
X021913Y014909D01*
X021905Y014911D01*
X021899Y014912D01*
X021898D01*
X021869Y014916D01*
X021856Y014918D01*
X021844D01*
X021834Y014919D01*
D02*
G37*
G36*
X016315D02*
X01596D01*
Y014876D01*
X016035Y014845D01*
X016043Y014841D01*
X016045Y01484D01*
X016046Y014839D01*
X016049Y014834D01*
X016051Y01483D01*
Y014826D01*
Y014825D01*
Y014344D01*
X01605Y014337D01*
X016049Y014333D01*
X016047Y014331D01*
X016046Y014329D01*
X016039Y014324D01*
X016036Y014322D01*
X016035D01*
X01596Y014293D01*
Y01425D01*
X016294D01*
X016323Y014251D01*
X01635Y014253D01*
X016375Y014256D01*
X016396Y01426D01*
X016414Y014264D01*
X016428Y014267D01*
X016432Y014268D01*
X016436D01*
X016437Y014269D01*
X016439D01*
X016462Y014278D01*
X016485Y014287D01*
X016505Y014297D01*
X016522Y014307D01*
X016536Y014317D01*
X016547Y014324D01*
X016553Y014329D01*
X016555Y014331D01*
X016573Y014347D01*
X016589Y014364D01*
X016602Y014382D01*
X016614Y014399D01*
X016622Y014412D01*
X016627Y014425D01*
X016632Y014432D01*
X016633Y014435D01*
X016643Y01446D01*
X01665Y014485D01*
X016655Y01451D01*
X016658Y014532D01*
X016661Y014553D01*
X016662Y014569D01*
Y014607D01*
X016659Y01463D01*
X016657Y01465D01*
X016654Y014668D01*
X016651Y014682D01*
X016648Y014693D01*
X016647Y014698D01*
X016646Y014701D01*
X016639Y014719D01*
X016632Y014736D01*
X016625Y014751D01*
X016618Y014764D01*
X016611Y014775D01*
X016605Y014782D01*
X016602Y014787D01*
X016601Y014789D01*
X01659Y014802D01*
X016579Y014814D01*
X016568Y014825D01*
X016558Y014834D01*
X01655Y014841D01*
X016543Y014847D01*
X016537Y01485D01*
X016536Y014851D01*
X016508Y014868D01*
X016496Y014875D01*
X016485Y01488D01*
X016475Y014886D01*
X016466Y014888D01*
X016461Y014891D01*
X01646D01*
X01643Y014901D01*
X016416Y014905D01*
X016405Y014908D01*
X016394Y014909D01*
X016386Y014911D01*
X01638Y014912D01*
X016379D01*
X01635Y014916D01*
X016337Y014918D01*
X016325D01*
X016315Y014919D01*
D02*
G37*
G36*
X020142Y014775D02*
X020132D01*
X02011Y014773D01*
X020089Y014772D01*
X02007Y014768D01*
X020054Y014765D01*
X020041Y014761D01*
X020029Y014757D01*
X020024Y014755D01*
X020021Y014754D01*
X020003Y014746D01*
X019988Y014736D01*
X019973Y014726D01*
X01996Y014716D01*
X01995Y014708D01*
X019943Y014701D01*
X019938Y014697D01*
X019936Y014696D01*
X019924Y014682D01*
X019913Y014666D01*
X019905Y014653D01*
X019896Y014639D01*
X019891Y014628D01*
X019886Y014618D01*
X019884Y014612D01*
X019882Y014609D01*
X019875Y01459D01*
X019871Y014572D01*
X019867Y014554D01*
X019866Y014537D01*
X019864Y014522D01*
X019863Y014511D01*
Y014501D01*
X019864Y014478D01*
X019866Y014457D01*
X019868Y014437D01*
X019873Y014421D01*
X019877Y014407D01*
X01988Y014396D01*
X019881Y01439D01*
X019882Y014387D01*
X019891Y014369D01*
X0199Y014354D01*
X01991Y01434D01*
X019918Y014328D01*
X019927Y014318D01*
X019934Y014311D01*
X019938Y014307D01*
X019939Y014306D01*
X019953Y014294D01*
X019968Y014283D01*
X019982Y014275D01*
X019995Y014268D01*
X020007Y014262D01*
X020016Y014258D01*
X020021Y014257D01*
X020024Y014256D01*
X020043Y01425D01*
X020061Y014246D01*
X020081Y014243D01*
X020097Y014242D01*
X020111Y01424D01*
X020122Y014239D01*
X020132D01*
X020159Y01424D01*
X02017Y014242D01*
X020181Y014243D01*
X020189D01*
X020196Y014244D01*
X0202Y014246D01*
X020202D01*
X020227Y014251D01*
X020238Y014254D01*
X020247Y014257D01*
X020256Y01426D01*
X020261Y014262D01*
X020265Y014264D01*
X020267D01*
X020289Y014272D01*
X020299Y014276D01*
X020307Y014281D01*
X020314Y014283D01*
X02032Y014286D01*
X020322Y014289D01*
X020324D01*
X020343Y014299D01*
X020358Y014308D01*
X020364Y014311D01*
X020368Y014314D01*
X020371Y014317D01*
X020372D01*
Y014379D01*
X020346D01*
X020336Y014374D01*
X020326Y014369D01*
X02032Y014367D01*
X020318Y014365D01*
X020317D01*
X020304Y014361D01*
X020293Y014358D01*
X020285Y014355D01*
X020283Y014354D01*
X020282D01*
X020267Y01435D01*
X020253Y014347D01*
X020247Y014346D01*
X020243D01*
X02024Y014344D01*
X020239D01*
X020222Y014343D01*
X020207Y014342D01*
X02019D01*
X020161Y014343D01*
X020135Y014347D01*
X020113Y014354D01*
X020095Y014361D01*
X020079Y014368D01*
X02007Y014375D01*
X020064Y014379D01*
X020061Y01438D01*
X020046Y014397D01*
X020036Y014415D01*
X020028Y014435D01*
X020023Y014454D01*
X02002Y014471D01*
X020018Y014485D01*
X020017Y01449D01*
Y014494D01*
Y014496D01*
Y014497D01*
X020368D01*
X02037Y014501D01*
Y014505D01*
Y01451D01*
Y014511D01*
X020371Y014518D01*
Y014525D01*
Y01453D01*
Y014532D01*
X020372Y01454D01*
Y014548D01*
Y014554D01*
Y014555D01*
X020374Y014562D01*
Y014586D01*
X020371Y0146D01*
X020368Y014614D01*
X020365Y014625D01*
X020363Y014634D01*
X02036Y014643D01*
X020358Y014647D01*
X020357Y014648D01*
X02035Y014662D01*
X020343Y014675D01*
X020335Y014686D01*
X020326Y014696D01*
X02032Y014702D01*
X020314Y014708D01*
X02031Y014712D01*
X020308Y014714D01*
X020283Y014732D01*
X020271Y01474D01*
X02026Y014747D01*
X020249Y014751D01*
X02024Y014755D01*
X020235Y014757D01*
X020234Y014758D01*
X020217Y014764D01*
X020199Y014768D01*
X020182Y01477D01*
X020167Y014773D01*
X020153D01*
X020142Y014775D01*
D02*
G37*
%LPD*%
G36*
X024711Y014833D02*
X024722Y014832D01*
X024732Y014829D01*
X024739Y014827D01*
X024745Y014825D01*
X024747Y014823D01*
X024749D01*
X024767Y014814D01*
X024779Y014804D01*
X024786Y014795D01*
X024789Y014794D01*
Y014793D01*
X024799Y014779D01*
X024806Y014765D01*
X024807Y014758D01*
X024808Y014754D01*
X02481Y014751D01*
Y01475D01*
X024814Y014732D01*
X024815Y014716D01*
X024817Y014709D01*
Y014704D01*
Y014701D01*
Y0147D01*
Y014691D01*
Y014684D01*
X024815Y014679D01*
Y014676D01*
X024814Y014666D01*
X024813Y014658D01*
X024811Y014653D01*
X02481Y01465D01*
X024806Y01464D01*
X024801Y01463D01*
X024799Y014625D01*
X024797Y014622D01*
X024792Y014612D01*
X024785Y014604D01*
X024781Y014598D01*
X024778Y014597D01*
X024768Y01459D01*
X02476Y014585D01*
X024751Y014582D01*
X02475Y01458D01*
X024749D01*
X024736Y014578D01*
X024724Y014576D01*
X024718Y014575D01*
X024682D01*
X024675Y014576D01*
X024668D01*
X024661Y014578D01*
X024654D01*
X02465Y014579D01*
X024649D01*
X024643Y01458D01*
X024638D01*
X024635Y014582D01*
X024633D01*
Y014834D01*
X0247D01*
X024711Y014833D01*
D02*
G37*
G36*
X021816D02*
X021832Y014832D01*
X021846Y014829D01*
X02186Y014825D01*
X02187Y01482D01*
X021878Y014818D01*
X021884Y014816D01*
X021885Y014815D01*
X021899Y014808D01*
X021913Y0148D01*
X021924Y01479D01*
X021934Y014782D01*
X021942Y014775D01*
X021948Y014768D01*
X021952Y014764D01*
X021953Y014762D01*
X021963Y01475D01*
X021971Y014736D01*
X021978Y014722D01*
X021985Y014709D01*
X021989Y014697D01*
X021992Y014689D01*
X021995Y014683D01*
Y01468D01*
X022Y014662D01*
X022003Y014643D01*
X022006Y014625D01*
X022009Y014607D01*
Y014593D01*
X02201Y01458D01*
Y014573D01*
Y014572D01*
Y014571D01*
Y01455D01*
X022009Y01453D01*
X022007Y014514D01*
X022005Y014498D01*
X022003Y014486D01*
X022Y014478D01*
X021999Y014471D01*
Y014469D01*
X021995Y014454D01*
X021989Y01444D01*
X021984Y014428D01*
X021978Y014417D01*
X021973Y014408D01*
X021969Y014401D01*
X021966Y014397D01*
X021964Y014396D01*
X021956Y014385D01*
X021946Y014376D01*
X021937Y014368D01*
X021927Y014361D01*
X021919Y014357D01*
X021912Y014353D01*
X021907Y014351D01*
X021906Y01435D01*
X021892Y014344D01*
X021878Y014342D01*
X021864Y014339D01*
X021851Y014336D01*
X021839D01*
X02183Y014335D01*
X021728D01*
Y014558D01*
X02187D01*
Y014637D01*
X021728D01*
Y014834D01*
X021798D01*
X021816Y014833D01*
D02*
G37*
G36*
X016297D02*
X016314Y014832D01*
X016328Y014829D01*
X016342Y014825D01*
X016351Y01482D01*
X01636Y014818D01*
X016365Y014816D01*
X016367Y014815D01*
X01638Y014808D01*
X016394Y0148D01*
X016405Y01479D01*
X016415Y014782D01*
X016423Y014775D01*
X016429Y014768D01*
X016433Y014764D01*
X016435Y014762D01*
X016444Y01475D01*
X016453Y014736D01*
X01646Y014722D01*
X016466Y014709D01*
X016471Y014697D01*
X016473Y014689D01*
X016476Y014683D01*
Y01468D01*
X016482Y014662D01*
X016485Y014643D01*
X016487Y014625D01*
X01649Y014607D01*
Y014593D01*
X016491Y01458D01*
Y014573D01*
Y014572D01*
Y014571D01*
Y01455D01*
X01649Y01453D01*
X016489Y014514D01*
X016486Y014498D01*
X016485Y014486D01*
X016482Y014478D01*
X01648Y014471D01*
Y014469D01*
X016476Y014454D01*
X016471Y01444D01*
X016465Y014428D01*
X01646Y014417D01*
X016454Y014408D01*
X01645Y014401D01*
X016447Y014397D01*
X016446Y014396D01*
X016437Y014385D01*
X016428Y014376D01*
X016418Y014368D01*
X016408Y014361D01*
X0164Y014357D01*
X016393Y014353D01*
X016389Y014351D01*
X016387Y01435D01*
X016373Y014344D01*
X01636Y014342D01*
X016346Y014339D01*
X016332Y014336D01*
X016321D01*
X016311Y014335D01*
X01621D01*
Y014834D01*
X016279D01*
X016297Y014833D01*
D02*
G37*
G36*
X020141Y014702D02*
X020154Y0147D01*
X02016Y014697D01*
X020164Y014696D01*
X020165Y014694D01*
X020167D01*
X020179Y014687D01*
X020188Y014677D01*
X020195Y014671D01*
X020196Y014669D01*
Y014668D01*
X020203Y014654D01*
X020209Y014641D01*
X02021Y014634D01*
X020211Y01463D01*
X020213Y014628D01*
Y014626D01*
X020215Y014608D01*
X020218Y01459D01*
Y014583D01*
Y014578D01*
Y014573D01*
Y014572D01*
X020017D01*
X02002Y014594D01*
X020021Y014603D01*
X020023Y014611D01*
X020024Y014618D01*
X020025Y014623D01*
X020027Y014626D01*
Y014628D01*
X020035Y014644D01*
X020042Y014658D01*
X020048Y014666D01*
X02005Y014668D01*
Y014669D01*
X020061Y01468D01*
X020071Y014689D01*
X020079Y014693D01*
X020081Y014694D01*
X020082D01*
X020096Y0147D01*
X020109Y014702D01*
X020114Y014704D01*
X020122D01*
X020141Y014702D01*
D02*
G37*
%LPC*%
G36*
X039439Y015181D02*
X039424D01*
X039417Y01518D01*
X039411Y015179D01*
X03941D01*
X039403Y015177D01*
X039396Y015176D01*
X03939Y015174D01*
X039389Y015173D01*
X039382Y015169D01*
X039375Y015165D01*
X039371Y015162D01*
X039369Y015161D01*
X039362Y015154D01*
X039356Y015147D01*
X039351Y015142D01*
X03935Y01514D01*
X039344Y015131D01*
X039339Y015124D01*
X039335Y015119D01*
X039333Y015116D01*
X039326Y015108D01*
X039321Y015098D01*
X039315Y015091D01*
X039314Y01509D01*
Y015088D01*
X039306Y015076D01*
X039297Y015063D01*
X039293Y015059D01*
X03929Y015055D01*
X039289Y015052D01*
X039288Y015051D01*
X039276Y015034D01*
X039265Y015018D01*
X03926Y015011D01*
X039257Y015005D01*
X039254Y015001D01*
X039253Y015D01*
X039286Y014977D01*
X039311Y014993D01*
X039321Y014998D01*
X039331Y015004D01*
X039337Y015008D01*
X039343Y015011D01*
X039346Y015013D01*
X039347D01*
X039364Y015024D01*
X039378Y015033D01*
X039383Y015036D01*
X039387Y015038D01*
X039389Y01504D01*
X03939D01*
X039403Y015047D01*
X039412Y015054D01*
X039418Y015056D01*
X039421Y015058D01*
X03943Y015063D01*
X039439Y015069D01*
X039444Y015073D01*
X039447Y015074D01*
X039454Y01508D01*
X039461Y015084D01*
X039464Y015087D01*
X039465Y015088D01*
X039471Y015094D01*
X039475Y015098D01*
X039476Y015101D01*
X039478Y015102D01*
X039482Y015108D01*
X039483Y015112D01*
X039485Y015115D01*
Y015116D01*
X039486Y015123D01*
X039487Y015129D01*
Y015133D01*
Y015134D01*
Y01514D01*
X039486Y015145D01*
X039485Y015149D01*
X039483Y015151D01*
X039479Y015158D01*
X039475Y015162D01*
X039472Y015165D01*
X039471Y015166D01*
X03946Y015174D01*
X039455Y015176D01*
X039454Y015177D01*
X039447Y01518D01*
X039439Y015181D01*
D02*
G37*
G36*
X038295D02*
X038287D01*
X03827Y01518D01*
X038258Y015176D01*
X038252Y015174D01*
X038248Y015172D01*
X038247Y01517D01*
X038245D01*
X038233Y015162D01*
X038223Y015151D01*
X038216Y015142D01*
X038215Y015141D01*
X038213Y01514D01*
X038116Y015D01*
X038147Y014976D01*
X038287Y015079D01*
X038423Y014976D01*
X038458Y015D01*
X03836Y01514D01*
X038349Y015154D01*
X038338Y015163D01*
X03833Y015169D01*
X038328Y01517D01*
X038327D01*
X038313Y015177D01*
X038301Y01518D01*
X038295Y015181D01*
D02*
G37*
G36*
X04053Y014919D02*
X040255D01*
Y014876D01*
X040329Y014841D01*
X040337Y014837D01*
X040338Y014836D01*
X04034Y014834D01*
X040342Y014832D01*
X040345Y014827D01*
Y014823D01*
Y014822D01*
Y014461D01*
X040335D01*
X040302Y014519D01*
X040025Y014919D01*
X039775D01*
Y014876D01*
X039851Y014845D01*
X039859Y014841D01*
X039861Y01484D01*
X039862Y014839D01*
X039865Y014834D01*
X039868Y01483D01*
Y014826D01*
Y014825D01*
Y014347D01*
X039866Y014342D01*
X039865Y014336D01*
X039864Y014335D01*
X039862Y014333D01*
X039855Y014328D01*
X039852Y014326D01*
X039851D01*
X039776Y014293D01*
Y01425D01*
X040051D01*
Y014293D01*
X039979Y014326D01*
X039972Y014331D01*
X039969Y014333D01*
X039968D01*
X039965Y014337D01*
X039963Y014342D01*
X039962Y014346D01*
Y014347D01*
Y014747D01*
X039972D01*
X040004Y014689D01*
X040315Y014246D01*
X040424D01*
X040438Y014351D01*
Y014822D01*
X04044Y014827D01*
X040441Y014832D01*
X040442Y014834D01*
X040444D01*
X040452Y01484D01*
X040453Y014841D01*
X040455D01*
X04053Y014876D01*
Y014919D01*
D02*
G37*
G36*
X03943Y014929D02*
X039306D01*
X03925Y014816D01*
X039061Y014342D01*
X039054Y014331D01*
X039047Y014322D01*
X039042Y014318D01*
X03904Y014317D01*
X039039D01*
X03899Y014293D01*
Y01425D01*
X039231D01*
Y014293D01*
X039151Y014325D01*
X039203Y014457D01*
X039443D01*
X039499Y014322D01*
X039422Y014293D01*
Y01425D01*
X039728D01*
Y014293D01*
X039676Y014314D01*
X039672Y014317D01*
X039668Y014319D01*
X039665Y014322D01*
X039664Y014324D01*
X039658Y014333D01*
X039657Y014337D01*
Y014339D01*
X03943Y014929D01*
D02*
G37*
%LPD*%
G36*
X039349Y014702D02*
X039412Y014539D01*
X039236D01*
X039321Y014765D01*
X039332D01*
X039349Y014702D01*
D02*
G37*
D10*
X06119Y02683D02*
G03*
X06119Y02683I-0005J0D01*
G01*
Y03243D02*
G03*
X06119Y03243I-0005J0D01*
G01*
X06029Y02573D02*
X06124D01*
X06174Y02604D02*
Y02758D01*
X06029Y02798D02*
X06124D01*
X05974Y02603D02*
Y02758D01*
X06029Y03133D02*
X06124D01*
X06174Y03164D02*
Y03318D01*
X06029Y03358D02*
X06124D01*
X05974Y03163D02*
Y03318D01*
D11*
X050238Y01835D02*
G03*
X050238Y01835I-00005J0D01*
G01*
X0567Y01755D02*
Y01875D01*
Y01755D02*
X0573D01*
Y01875D01*
X0567D02*
X0573D01*
X051349Y018769D02*
X051698D01*
X051349Y014832D02*
Y018769D01*
Y014832D02*
X051698D01*
X0471Y01465D02*
X0483D01*
Y01525D01*
X0471D02*
X0483D01*
X0471Y01465D02*
Y01525D01*
D12*
X063438Y016138D02*
G03*
X063449Y016151I000462J-000388D01*
G01*
X062434Y01777D02*
G03*
X062434Y01777I-000064J0D01*
G01*
X062444Y01575D02*
G03*
X062444Y01575I-000064J0D01*
G01*
X063437Y018137D02*
G03*
X063449Y018151I000463J-000387D01*
G01*
X048584Y0173D02*
G03*
X048584Y0173I-001J0D01*
G01*
X060416Y01825D02*
G03*
X060416Y01825I-001J0D01*
G01*
X06188Y02798D02*
X06189Y02797D01*
X06188Y03358D02*
X06189Y03357D01*
X0629Y01477D02*
Y01874D01*
X0634Y01475D02*
X0649D01*
X06239Y01875D02*
X0649D01*
X06239Y0187D02*
Y01875D01*
X06208Y0187D02*
X06239D01*
X06208D02*
Y01875D01*
X0619D02*
X06208D01*
X0619Y01475D02*
Y01875D01*
Y01475D02*
X0634D01*
X0621Y01469D02*
X06235D01*
X06318Y01675D02*
X06469D01*
X0649Y01475D02*
Y01875D01*
X04805Y0166D02*
Y0168D01*
X04795Y0167D02*
X04815D01*
X05895Y01875D02*
Y01895D01*
X05885Y01885D02*
X05905D01*
X059022Y01569D02*
X059192Y01552D01*
X058992Y01553D02*
X059162Y01536D01*
X059234Y016079D02*
X060025D01*
X059342Y01524D02*
X059632Y01553D01*
X059922Y01524D01*
X059312Y01553D02*
X059972D01*
X02367Y022755D02*
X02384Y022925D01*
X02351Y022785D02*
X02368Y022955D01*
X024229Y021922D02*
Y022714D01*
X02339Y022605D02*
X02368Y022315D01*
X02339Y022025D02*
X02368Y022315D01*
Y021975D02*
Y022635D01*
X02367Y025455D02*
X02384Y025625D01*
X02351Y025485D02*
X02368Y025655D01*
X024229Y024622D02*
Y025414D01*
X02339Y025305D02*
X02368Y025015D01*
X02339Y024725D02*
X02368Y025015D01*
Y024675D02*
Y025335D01*
X02367Y028155D02*
X02384Y028325D01*
X02351Y028185D02*
X02368Y028355D01*
X024229Y027322D02*
Y028114D01*
X02339Y028005D02*
X02368Y027715D01*
X02339Y027425D02*
X02368Y027715D01*
Y027375D02*
Y028035D01*
X03366Y021712D02*
X03383Y021882D01*
X03382Y021682D02*
X03399Y021852D01*
X033271Y021924D02*
Y022716D01*
X03382Y022322D02*
X03411Y022032D01*
X03382Y022322D02*
X03411Y022612D01*
X03382Y022002D02*
Y022662D01*
X03366Y024412D02*
X03383Y024582D01*
X03382Y024382D02*
X03399Y024552D01*
X033271Y024624D02*
Y025416D01*
X03382Y025022D02*
X03411Y024732D01*
X03382Y025022D02*
X03411Y025312D01*
X03382Y024702D02*
Y025362D01*
X03366Y027112D02*
X03383Y027282D01*
X03382Y027082D02*
X03399Y027252D01*
X033271Y027324D02*
Y028116D01*
X03382Y027722D02*
X03411Y027432D01*
X03382Y027722D02*
X03411Y028012D01*
X03382Y027402D02*
Y028062D01*
X03366Y038997D02*
X03383Y039167D01*
X03382Y038967D02*
X03399Y039137D01*
X033271Y039209D02*
Y04D01*
X03382Y039607D02*
X03411Y039317D01*
X03382Y039607D02*
X03411Y039897D01*
X03382Y039287D02*
Y039947D01*
X03366Y041697D02*
X03383Y041867D01*
X03382Y041667D02*
X03399Y041837D01*
X033271Y041909D02*
Y0427D01*
X03382Y042307D02*
X03411Y042017D01*
X03382Y042307D02*
X03411Y042597D01*
X03382Y041987D02*
Y042647D01*
X03366Y044397D02*
X03383Y044567D01*
X03382Y044367D02*
X03399Y044537D01*
X033271Y044609D02*
Y0454D01*
X03382Y045007D02*
X03411Y044717D01*
X03382Y045007D02*
X03411Y045297D01*
X03382Y044687D02*
Y045347D01*
X02367Y04004D02*
X02384Y04021D01*
X02351Y04007D02*
X02368Y04024D01*
X024229Y039207D02*
Y039998D01*
X02339Y03989D02*
X02368Y0396D01*
X02339Y03931D02*
X02368Y0396D01*
Y03926D02*
Y03992D01*
X02367Y04274D02*
X02384Y04291D01*
X02351Y04277D02*
X02368Y04294D01*
X024229Y041907D02*
Y042698D01*
X02339Y04259D02*
X02368Y0423D01*
X02339Y04201D02*
X02368Y0423D01*
Y04196D02*
Y04262D01*
X02367Y04544D02*
X02384Y04561D01*
X02351Y04547D02*
X02368Y04564D01*
X024229Y044607D02*
Y045398D01*
X02339Y04529D02*
X02368Y045D01*
X02339Y04471D02*
X02368Y045D01*
Y04466D02*
Y04532D01*
D13*
X05923Y016077D02*
G03*
X060029Y016076I000398J-000679D01*
G01*
X024227Y022717D02*
G03*
X024226Y021918I-000679J-000398D01*
G01*
X024227Y025417D02*
G03*
X024226Y024618I-000679J-000398D01*
G01*
X024227Y028117D02*
G03*
X024226Y027318I-000679J-000398D01*
G01*
X033273Y02192D02*
G03*
X033274Y02272I000679J000398D01*
G01*
X033273Y02462D02*
G03*
X033274Y02542I000679J000398D01*
G01*
X033273Y02732D02*
G03*
X033274Y02812I000679J000398D01*
G01*
X033273Y039205D02*
G03*
X033274Y040004I000679J000398D01*
G01*
X033273Y041905D02*
G03*
X033274Y042704I000679J000398D01*
G01*
X033273Y044605D02*
G03*
X033274Y045404I000679J000398D01*
G01*
X024227Y040002D02*
G03*
X024226Y039203I-000679J-000398D01*
G01*
X024227Y042702D02*
G03*
X024226Y041903I-000679J-000398D01*
G01*
X024227Y045402D02*
G03*
X024226Y044603I-000679J-000398D01*
G01*
D14*
X01541Y022965D02*
D03*
X04051D02*
D03*
Y04025D02*
D03*
X01541D02*
D03*
X02065Y022965D02*
D03*
X0457D02*
D03*
Y04025D02*
D03*
X02065D02*
D03*
D15*
X0572Y018D02*
Y01834D01*
X0568Y018D02*
Y01834D01*
X04751Y01515D02*
X04785D01*
X04751Y01475D02*
X04785D01*
D16*
X04895Y02335D02*
X05785D01*
Y04455D01*
X04895D02*
X05785D01*
X04895Y02335D02*
Y04455D01*
D17*
X01191Y025115D02*
X01456D01*
X01186Y027315D02*
X01456D01*
Y022815D02*
Y027315D01*
X01186Y022815D02*
X01456D01*
X01186D02*
Y027315D01*
X03701Y025115D02*
X03966D01*
X03696Y027315D02*
X03966D01*
Y022815D02*
Y027315D01*
X03696Y022815D02*
X03966D01*
X03696D02*
Y027315D01*
X03701Y0424D02*
X03966D01*
X03696Y0446D02*
X03966D01*
Y0401D02*
Y0446D01*
X03696Y0401D02*
X03966D01*
X03696D02*
Y0446D01*
X01191Y0424D02*
X01456D01*
X01186Y0446D02*
X01456D01*
Y0401D02*
Y0446D01*
X01186Y0401D02*
X01456D01*
X01186D02*
Y0446D01*
X01715Y025115D02*
X0198D01*
X0171Y027315D02*
X0198D01*
Y022815D02*
Y027315D01*
X0171Y022815D02*
X0198D01*
X0171D02*
Y027315D01*
X0422Y025115D02*
X04485D01*
X04215Y027315D02*
X04485D01*
Y022815D02*
Y027315D01*
X04215Y022815D02*
X04485D01*
X04215D02*
Y027315D01*
X0422Y0424D02*
X04485D01*
X04215Y0446D02*
X04485D01*
Y0401D02*
Y0446D01*
X04215Y0401D02*
X04485D01*
X04215D02*
Y0446D01*
X01715Y0424D02*
X0198D01*
X0171Y0446D02*
X0198D01*
Y0401D02*
Y0446D01*
X0171Y0401D02*
X0198D01*
X0171D02*
Y0446D01*
D18*
X01106Y028565D02*
X01606D01*
Y021565D02*
Y028565D01*
X01106Y021565D02*
Y028565D01*
Y021565D02*
X01606D01*
X03616Y028565D02*
X04116D01*
Y021565D02*
Y028565D01*
X03616Y021565D02*
Y028565D01*
Y021565D02*
X04116D01*
X03616Y04585D02*
X04116D01*
Y03885D02*
Y04585D01*
X03616Y03885D02*
Y04585D01*
Y03885D02*
X04116D01*
X01106Y04585D02*
X01606D01*
Y03885D02*
Y04585D01*
X01106Y03885D02*
Y04585D01*
Y03885D02*
X01606D01*
X0163Y028565D02*
X0213D01*
Y021565D02*
Y028565D01*
X0163Y021565D02*
Y028565D01*
Y021565D02*
X0213D01*
X04135Y028565D02*
X04635D01*
Y021565D02*
Y028565D01*
X04135Y021565D02*
Y028565D01*
Y021565D02*
X04635D01*
X04135Y04585D02*
X04635D01*
Y03885D02*
Y04585D01*
X04135Y03885D02*
Y04585D01*
Y03885D02*
X04635D01*
X0163Y04585D02*
X0213D01*
Y03885D02*
Y04585D01*
X0163Y03885D02*
Y04585D01*
Y03885D02*
X0213D01*
D19*
X056697Y014935D02*
X057167D01*
Y016035D01*
X056697Y014935D02*
Y016035D01*
X057167D01*
D20*
X056777Y015385D02*
Y015585D01*
X057077Y015385D02*
Y015585D01*
D21*
X05717Y01958D02*
X05707Y01968D01*
X05687D01*
X05677Y01958D01*
Y01918D01*
X05687Y01908D01*
X05707D01*
X05717Y01918D01*
X05767Y01908D02*
Y01968D01*
X05737Y01938D01*
X05777D01*
X04935Y02011D02*
X04975Y01971D01*
X04935D02*
X04975Y02011D01*
X04935Y01991D02*
X04975D01*
X04955Y01971D02*
Y02011D01*
X04995Y01961D02*
X05015D01*
X05005D01*
Y02021D01*
X04995Y02011D01*
X04901Y04549D02*
Y04499D01*
X04911Y04489D01*
X04931D01*
X04941Y04499D01*
Y04549D01*
X04961Y04489D02*
X04981D01*
X04971D01*
Y04549D01*
X04961Y04539D01*
X056772Y01636D02*
Y01696D01*
X057072D01*
X057172Y01686D01*
Y01666D01*
X057072Y01656D01*
X056772D01*
X056972D02*
X057172Y01636D01*
X057771Y01696D02*
X057571Y01686D01*
X057371Y01666D01*
Y01646D01*
X057471Y01636D01*
X057671D01*
X057771Y01646D01*
Y01656D01*
X057671Y01666D01*
X057371D01*
X057971Y01646D02*
X058071Y01636D01*
X058271D01*
X058371Y01646D01*
Y01686D01*
X058271Y01696D01*
X058071D01*
X057971Y01686D01*
Y01676D01*
X058071Y01666D01*
X058371D01*
X058907Y017165D02*
Y016565D01*
X059307D01*
X059907Y017165D02*
X059507D01*
Y016565D01*
X059907D01*
X059507Y016865D02*
X059707D01*
X060106Y017165D02*
Y016565D01*
X060406D01*
X060506Y016665D01*
Y017065D01*
X060406Y017165D01*
X060106D01*
X060706Y016565D02*
X060906D01*
X060806D01*
Y017165D01*
X060706Y017065D01*
X061206D02*
X061306Y017165D01*
X061506D01*
X061606Y017065D01*
Y016965D01*
X061506Y016865D01*
X061406D01*
X061506D01*
X061606Y016765D01*
Y016665D01*
X061506Y016565D01*
X061306D01*
X061206Y016665D01*
X023047Y023773D02*
X02298Y02384D01*
X022847D01*
X02278Y023773D01*
Y023507D01*
X022847Y02344D01*
X02298D01*
X023047Y023507D01*
Y02364D01*
X022913D01*
X02318Y02344D02*
Y02384D01*
X02338D01*
X023446Y023773D01*
Y02364D01*
X02338Y023573D01*
X02318D01*
X023313D02*
X023446Y02344D01*
X023846Y02384D02*
X02358D01*
Y02344D01*
X023846D01*
X02358Y02364D02*
X023713D01*
X024246Y02384D02*
X02398D01*
Y02344D01*
X024246D01*
X02398Y02364D02*
X024113D01*
X024379Y02344D02*
Y02384D01*
X024646Y02344D01*
Y02384D01*
X02278Y02654D02*
Y026473D01*
X022913Y02634D01*
X023047Y026473D01*
Y02654D01*
X022913Y02634D02*
Y02614D01*
X023446Y02654D02*
X02318D01*
Y02614D01*
X023446D01*
X02318Y02634D02*
X023313D01*
X02358Y02654D02*
Y02614D01*
X023846D01*
X02398Y02654D02*
Y02614D01*
X024246D01*
X024579Y02654D02*
X024446D01*
X024379Y026473D01*
Y026207D01*
X024446Y02614D01*
X024579D01*
X024646Y026207D01*
Y026473D01*
X024579Y02654D01*
X024779D02*
Y02614D01*
X024913Y026273D01*
X025046Y02614D01*
Y02654D01*
X02278Y02884D02*
Y02924D01*
X02298D01*
X023047Y029173D01*
Y02904D01*
X02298Y028973D01*
X02278D01*
X022913D02*
X023047Y02884D01*
X023446Y02924D02*
X02318D01*
Y02884D01*
X023446D01*
X02318Y02904D02*
X023313D01*
X02358Y02924D02*
Y02884D01*
X02378D01*
X023846Y028907D01*
Y029173D01*
X02378Y02924D01*
X02358D01*
X033447Y023773D02*
X03338Y02384D01*
X033247D01*
X03318Y023773D01*
Y023507D01*
X033247Y02344D01*
X03338D01*
X033447Y023507D01*
Y02364D01*
X033313D01*
X03358Y02344D02*
Y02384D01*
X03378D01*
X033846Y023773D01*
Y02364D01*
X03378Y023573D01*
X03358D01*
X033713D02*
X033846Y02344D01*
X034246Y02384D02*
X03398D01*
Y02344D01*
X034246D01*
X03398Y02364D02*
X034113D01*
X034646Y02384D02*
X03438D01*
Y02344D01*
X034646D01*
X03438Y02364D02*
X034513D01*
X034779Y02344D02*
Y02384D01*
X035046Y02344D01*
Y02384D01*
X03318Y02654D02*
Y026473D01*
X033313Y02634D01*
X033447Y026473D01*
Y02654D01*
X033313Y02634D02*
Y02614D01*
X033846Y02654D02*
X03358D01*
Y02614D01*
X033846D01*
X03358Y02634D02*
X033713D01*
X03398Y02654D02*
Y02614D01*
X034246D01*
X03438Y02654D02*
Y02614D01*
X034646D01*
X034979Y02654D02*
X034846D01*
X034779Y026473D01*
Y026207D01*
X034846Y02614D01*
X034979D01*
X035046Y026207D01*
Y026473D01*
X034979Y02654D01*
X035179D02*
Y02614D01*
X035313Y026273D01*
X035446Y02614D01*
Y02654D01*
X03318Y02884D02*
Y02924D01*
X03338D01*
X033447Y029173D01*
Y02904D01*
X03338Y028973D01*
X03318D01*
X033313D02*
X033447Y02884D01*
X033846Y02924D02*
X03358D01*
Y02884D01*
X033846D01*
X03358Y02904D02*
X033713D01*
X03398Y02924D02*
Y02884D01*
X03418D01*
X034246Y028907D01*
Y029173D01*
X03418Y02924D01*
X03398D01*
X033447Y041063D02*
X03338Y04113D01*
X033247D01*
X03318Y041063D01*
Y040797D01*
X033247Y04073D01*
X03338D01*
X033447Y040797D01*
Y04093D01*
X033313D01*
X03358Y04073D02*
Y04113D01*
X03378D01*
X033846Y041063D01*
Y04093D01*
X03378Y040863D01*
X03358D01*
X033713D02*
X033846Y04073D01*
X034246Y04113D02*
X03398D01*
Y04073D01*
X034246D01*
X03398Y04093D02*
X034113D01*
X034646Y04113D02*
X03438D01*
Y04073D01*
X034646D01*
X03438Y04093D02*
X034513D01*
X034779Y04073D02*
Y04113D01*
X035046Y04073D01*
Y04113D01*
X03318Y04383D02*
Y043763D01*
X033313Y04363D01*
X033447Y043763D01*
Y04383D01*
X033313Y04363D02*
Y04343D01*
X033846Y04383D02*
X03358D01*
Y04343D01*
X033846D01*
X03358Y04363D02*
X033713D01*
X03398Y04383D02*
Y04343D01*
X034246D01*
X03438Y04383D02*
Y04343D01*
X034646D01*
X034979Y04383D02*
X034846D01*
X034779Y043763D01*
Y043497D01*
X034846Y04343D01*
X034979D01*
X035046Y043497D01*
Y043763D01*
X034979Y04383D01*
X035179D02*
Y04343D01*
X035313Y043563D01*
X035446Y04343D01*
Y04383D01*
X03318Y04613D02*
Y04653D01*
X03338D01*
X033447Y046463D01*
Y04633D01*
X03338Y046263D01*
X03318D01*
X033313D02*
X033447Y04613D01*
X033846Y04653D02*
X03358D01*
Y04613D01*
X033846D01*
X03358Y04633D02*
X033713D01*
X03398Y04653D02*
Y04613D01*
X03418D01*
X034246Y046197D01*
Y046463D01*
X03418Y04653D01*
X03398D01*
X023047Y041063D02*
X02298Y04113D01*
X022847D01*
X02278Y041063D01*
Y040797D01*
X022847Y04073D01*
X02298D01*
X023047Y040797D01*
Y04093D01*
X022913D01*
X02318Y04073D02*
Y04113D01*
X02338D01*
X023446Y041063D01*
Y04093D01*
X02338Y040863D01*
X02318D01*
X023313D02*
X023446Y04073D01*
X023846Y04113D02*
X02358D01*
Y04073D01*
X023846D01*
X02358Y04093D02*
X023713D01*
X024246Y04113D02*
X02398D01*
Y04073D01*
X024246D01*
X02398Y04093D02*
X024113D01*
X024379Y04073D02*
Y04113D01*
X024646Y04073D01*
Y04113D01*
X02278Y04383D02*
Y043763D01*
X022913Y04363D01*
X023047Y043763D01*
Y04383D01*
X022913Y04363D02*
Y04343D01*
X023446Y04383D02*
X02318D01*
Y04343D01*
X023446D01*
X02318Y04363D02*
X023313D01*
X02358Y04383D02*
Y04343D01*
X023846D01*
X02398Y04383D02*
Y04343D01*
X024246D01*
X024579Y04383D02*
X024446D01*
X024379Y043763D01*
Y043497D01*
X024446Y04343D01*
X024579D01*
X024646Y043497D01*
Y043763D01*
X024579Y04383D01*
X024779D02*
Y04343D01*
X024913Y043563D01*
X025046Y04343D01*
Y04383D01*
X02278Y04613D02*
Y04653D01*
X02298D01*
X023047Y046463D01*
Y04633D01*
X02298Y046263D01*
X02278D01*
X022913D02*
X023047Y04613D01*
X023446Y04653D02*
X02318D01*
Y04613D01*
X023446D01*
X02318Y04633D02*
X023313D01*
X02358Y04653D02*
Y04613D01*
X02378D01*
X023846Y046197D01*
Y046463D01*
X02378Y04653D01*
X02358D01*
X061945Y019685D02*
Y019085D01*
Y019385D01*
X062345D01*
Y019685D01*
Y019085D01*
X062545Y019685D02*
Y019085D01*
X062845D01*
X062945Y019185D01*
Y019585D01*
X062845Y019685D01*
X062545D01*
X063145Y019085D02*
X063345D01*
X063245D01*
Y019685D01*
X063145Y019585D01*
X01636Y02972D02*
Y02912D01*
X01666D01*
X01676Y02922D01*
Y02962D01*
X01666Y02972D01*
X01636D01*
X01736Y02962D02*
X01726Y02972D01*
X01706D01*
X01696Y02962D01*
Y02952D01*
X01706Y02942D01*
X01726D01*
X01736Y02932D01*
Y02922D01*
X01726Y02912D01*
X01706D01*
X01696Y02922D01*
X01756Y02962D02*
X01766Y02972D01*
X01786D01*
X017959Y02962D01*
Y02952D01*
X01786Y02942D01*
X017959Y02932D01*
Y02922D01*
X01786Y02912D01*
X01766D01*
X01756Y02922D01*
Y02932D01*
X01766Y02942D01*
X01756Y02952D01*
Y02962D01*
X01766Y02942D02*
X01786D01*
X01112Y02972D02*
Y02912D01*
X01142D01*
X01152Y02922D01*
Y02962D01*
X01142Y02972D01*
X01112D01*
X01212Y02962D02*
X01202Y02972D01*
X01182D01*
X01172Y02962D01*
Y02952D01*
X01182Y02942D01*
X01202D01*
X01212Y02932D01*
Y02922D01*
X01202Y02912D01*
X01182D01*
X01172Y02922D01*
X01232Y02972D02*
X012719D01*
Y02962D01*
X01232Y02922D01*
Y02912D01*
X04141Y02972D02*
Y02912D01*
X04171D01*
X04181Y02922D01*
Y02962D01*
X04171Y02972D01*
X04141D01*
X04241Y02962D02*
X04231Y02972D01*
X04211D01*
X04201Y02962D01*
Y02952D01*
X04211Y02942D01*
X04231D01*
X04241Y02932D01*
Y02922D01*
X04231Y02912D01*
X04211D01*
X04201Y02922D01*
X043009Y02972D02*
X04281Y02962D01*
X04261Y02942D01*
Y02922D01*
X04271Y02912D01*
X04291D01*
X043009Y02922D01*
Y02932D01*
X04291Y02942D01*
X04261D01*
X03622Y02972D02*
Y02912D01*
X03652D01*
X03662Y02922D01*
Y02962D01*
X03652Y02972D01*
X03622D01*
X03722Y02962D02*
X03712Y02972D01*
X03692D01*
X03682Y02962D01*
Y02952D01*
X03692Y02942D01*
X03712D01*
X03722Y02932D01*
Y02922D01*
X03712Y02912D01*
X03692D01*
X03682Y02922D01*
X037819Y02972D02*
X03742D01*
Y02942D01*
X03762Y02952D01*
X03772D01*
X037819Y02942D01*
Y02922D01*
X03772Y02912D01*
X03752D01*
X03742Y02922D01*
X04141Y047D02*
Y0464D01*
X04171D01*
X04181Y0465D01*
Y0469D01*
X04171Y047D01*
X04141D01*
X04241Y0469D02*
X04231Y047D01*
X04211D01*
X04201Y0469D01*
Y0468D01*
X04211Y0467D01*
X04231D01*
X04241Y0466D01*
Y0465D01*
X04231Y0464D01*
X04211D01*
X04201Y0465D01*
X04291Y0464D02*
Y047D01*
X04261Y0467D01*
X043009D01*
X03622Y047D02*
Y0464D01*
X03652D01*
X03662Y0465D01*
Y0469D01*
X03652Y047D01*
X03622D01*
X03722Y0469D02*
X03712Y047D01*
X03692D01*
X03682Y0469D01*
Y0468D01*
X03692Y0467D01*
X03712D01*
X03722Y0466D01*
Y0465D01*
X03712Y0464D01*
X03692D01*
X03682Y0465D01*
X03742Y0469D02*
X03752Y047D01*
X03772D01*
X037819Y0469D01*
Y0468D01*
X03772Y0467D01*
X03762D01*
X03772D01*
X037819Y0466D01*
Y0465D01*
X03772Y0464D01*
X03752D01*
X03742Y0465D01*
X01636Y047D02*
Y0464D01*
X01666D01*
X01676Y0465D01*
Y0469D01*
X01666Y047D01*
X01636D01*
X01736Y0469D02*
X01726Y047D01*
X01706D01*
X01696Y0469D01*
Y0468D01*
X01706Y0467D01*
X01726D01*
X01736Y0466D01*
Y0465D01*
X01726Y0464D01*
X01706D01*
X01696Y0465D01*
X017959Y0464D02*
X01756D01*
X017959Y0468D01*
Y0469D01*
X01786Y047D01*
X01766D01*
X01756Y0469D01*
X01112Y047D02*
Y0464D01*
X01142D01*
X01152Y0465D01*
Y0469D01*
X01142Y047D01*
X01112D01*
X01212Y0469D02*
X01202Y047D01*
X01182D01*
X01172Y0469D01*
Y0468D01*
X01182Y0467D01*
X01202D01*
X01212Y0466D01*
Y0465D01*
X01202Y0464D01*
X01182D01*
X01172Y0465D01*
X01232Y0464D02*
X01252D01*
X01242D01*
Y047D01*
X01232Y0469D01*
X04705Y019134D02*
X04695Y019234D01*
X04675D01*
X04665Y019134D01*
Y018735D01*
X04675Y018635D01*
X04695D01*
X04705Y018735D01*
X04725Y019134D02*
X04735Y019234D01*
X04755D01*
X04765Y019134D01*
Y019035D01*
X04755Y018935D01*
X04745D01*
X04755D01*
X04765Y018835D01*
Y018735D01*
X04755Y018635D01*
X04735D01*
X04725Y018735D01*
X047575Y016075D02*
X047475Y016175D01*
X047275D01*
X047175Y016075D01*
Y015675D01*
X047275Y015575D01*
X047475D01*
X047575Y015675D01*
X048175Y015575D02*
X047775D01*
X048175Y015975D01*
Y016075D01*
X048075Y016175D01*
X047875D01*
X047775Y016075D01*
X058885Y020085D02*
X058785Y020185D01*
X058585D01*
X058485Y020085D01*
Y019685D01*
X058585Y019585D01*
X058785D01*
X058885Y019685D01*
X059085Y019585D02*
X059285D01*
X059185D01*
Y020185D01*
X059085Y020085D01*
X0588Y035D02*
Y0345D01*
Y034667D01*
X059133Y035D01*
X058883Y03475D01*
X059133Y0345D01*
X059633Y035D02*
X0593D01*
Y0345D01*
X059633D01*
X0593Y03475D02*
X059466D01*
X0598Y035D02*
Y034917D01*
X059966Y03475D01*
X060133Y034917D01*
Y035D01*
X059966Y03475D02*
Y0345D01*
X060799Y035D02*
Y034917D01*
X060966Y03475D01*
X061133Y034917D01*
Y035D01*
X060966Y03475D02*
Y0345D01*
X061632Y035D02*
X061299D01*
Y0345D01*
X061632D01*
X061299Y03475D02*
X061466D01*
X061799Y035D02*
Y0345D01*
X062132D01*
X062299Y035D02*
Y0345D01*
X062632D01*
X063049Y035D02*
X062882D01*
X062799Y034917D01*
Y034583D01*
X062882Y0345D01*
X063049D01*
X063132Y034583D01*
Y034917D01*
X063049Y035D01*
X063299D02*
Y0345D01*
X063465Y034667D01*
X063632Y0345D01*
Y035D01*
X0588Y02935D02*
Y02885D01*
Y029017D01*
X059133Y02935D01*
X058883Y0291D01*
X059133Y02885D01*
X059633Y02935D02*
X0593D01*
Y02885D01*
X059633D01*
X0593Y0291D02*
X059466D01*
X0598Y02935D02*
Y029267D01*
X059966Y0291D01*
X060133Y029267D01*
Y02935D01*
X059966Y0291D02*
Y02885D01*
X060799D02*
Y02935D01*
X061049D01*
X061133Y029267D01*
Y0291D01*
X061049Y029017D01*
X060799D01*
X060966D02*
X061133Y02885D01*
X061632Y02935D02*
X061299D01*
Y02885D01*
X061632D01*
X061299Y0291D02*
X061466D01*
X061799Y02935D02*
Y02885D01*
X062049D01*
X062132Y028933D01*
Y029267D01*
X062049Y02935D01*
X061799D01*
X062299Y0291D02*
X062632D01*
X063132Y029267D02*
X063049Y02935D01*
X062882D01*
X062799Y029267D01*
Y028933D01*
X062882Y02885D01*
X063049D01*
X063132Y028933D01*
Y0291D01*
X062965D01*
X063299Y02885D02*
Y02935D01*
X063548D01*
X063632Y029267D01*
Y0291D01*
X063548Y029017D01*
X063299D01*
X063465D02*
X063632Y02885D01*
X064132Y02935D02*
X063798D01*
Y02885D01*
X064132D01*
X063798Y0291D02*
X063965D01*
X064631Y02935D02*
X064298D01*
Y02885D01*
X064631D01*
X064298Y0291D02*
X064465D01*
X064798Y02885D02*
Y02935D01*
X065131Y02885D01*
Y02935D01*
M02*
