G04*
G04 #@! TF.GenerationSoftware,Altium Limited,Altium Designer,18.1.6 (161)*
G04*
G04 Layer_Color=8421504*
%FSTAX24Y24*%
%MOIN*%
G70*
G01*
G75*
%ADD22R,0.0472X0.0300*%
%ADD23R,0.1378X0.0630*%
%ADD24R,0.0354X0.0315*%
%ADD25R,0.0300X0.0472*%
G36*
X053204Y015291D02*
X05266D01*
Y015871D01*
X053204D01*
Y015291D01*
D02*
G37*
G36*
X053979Y01529D02*
X053437D01*
Y015871D01*
X053979D01*
Y01529D01*
D02*
G37*
G36*
X053204Y016105D02*
X05266D01*
Y016684D01*
X053204D01*
Y016105D01*
D02*
G37*
G36*
X053979Y016105D02*
X053436D01*
Y016684D01*
X053979D01*
Y016105D01*
D02*
G37*
G36*
X054755Y01529D02*
X054214D01*
Y015871D01*
X054755D01*
Y01529D01*
D02*
G37*
G36*
X05553Y015289D02*
X054991D01*
Y015871D01*
X05553D01*
Y015289D01*
D02*
G37*
G36*
X054755Y016104D02*
X054213D01*
Y016684D01*
X054755D01*
Y016104D01*
D02*
G37*
G36*
X05553Y016105D02*
X054988D01*
Y016684D01*
X05553D01*
Y016105D01*
D02*
G37*
G36*
X053204Y016916D02*
X05266D01*
Y017495D01*
X053204D01*
Y016916D01*
D02*
G37*
G36*
X053979Y016916D02*
X053437D01*
Y017495D01*
X053979D01*
Y016916D01*
D02*
G37*
G36*
X053204Y01773D02*
X05266D01*
Y018308D01*
X053204D01*
Y01773D01*
D02*
G37*
G36*
X053979Y01773D02*
X053436D01*
Y018308D01*
X053979D01*
Y01773D01*
D02*
G37*
G36*
X054755Y016916D02*
X054214D01*
Y017495D01*
X054755D01*
Y016916D01*
D02*
G37*
G36*
X05553Y016916D02*
X054991D01*
Y017495D01*
X05553D01*
Y016916D01*
D02*
G37*
G36*
X054755Y01773D02*
X054213D01*
Y018308D01*
X054755D01*
Y01773D01*
D02*
G37*
G36*
X05553Y01773D02*
X054989D01*
Y018308D01*
X05553D01*
Y01773D01*
D02*
G37*
D22*
X057Y01775D02*
D03*
Y01854D02*
D03*
D23*
X05005Y0158D02*
D03*
Y0178D02*
D03*
D24*
X056927Y015151D02*
D03*
Y01582D02*
D03*
D25*
X0481Y01495D02*
D03*
X04731D02*
D03*
M02*
