M48
;Layer_Color=9474304
;FILE_FORMAT=2:4
INCH,LZ
;TYPE=PLATED
T1F00S00C0.0079
T2F00S00C0.0300
T3F00S00C0.0310
T4F00S00C0.0320
T5F00S00C0.0354
T6F00S00C0.0394
T7F00S00C0.0500
%
T01
X05075Y01955
Y01985
Y02015
X05115Y02175
X05145
X0518
X05705Y01925
X0614Y01875
X06115Y02695
X056927Y02545
X05585Y03105
X055579Y031071
X0553Y03105
X055
X04695Y02965
X04495Y02985
X04405Y02955
X043909Y029291
X04385Y0286
Y02859
X04325Y02705
Y026715
X0412Y0271
X0408Y02875
X04Y02525
X03955
X0393Y02555
X03985Y0247
X039812Y02435
X0403
Y0227
X04085Y02095
X0412Y021277
X0417Y02105
X04255Y02295
Y02445
X043029
X04195Y0253
X044635Y025293
X04455Y02555
X04505Y02435
X045573Y024377
X04635Y0256
X04405Y022977
X0383Y0232
X0372Y02325
X03605Y0231
X03475Y023435
X03605Y02145
Y02065
X03695Y02075
X0373Y0245
X0378Y02505
X03675Y0251
X03705Y02555
X03795Y026715
Y02705
X03635Y0271
X036Y02735
X03565Y02655
Y02625
X0355Y02835
X0347Y02955
X03295Y02585
X0286Y02875
X02855Y02955
X024371
X02515Y02875
X02405Y024
X0205Y02435
X02
X01975Y02535
X0195Y0256
X0181Y026715
Y02705
X018Y02955
X01975
X0192Y02875
X018Y024338
X0175
X017269Y023285
X01565
X0159Y0251
X01685Y0253
X019Y02295
X01525Y02435
X01475Y0243
X01495Y02469
X01425Y0244
X01445Y0252
X01425Y02555
X01525Y0254
X013Y026715
Y02705
X01165Y02525
X01225Y0244
X01195Y0233
X01356Y02279
X01505Y02955
X01356Y0399
X01195Y0405
X01225Y04165
X01275
X01425Y04205
X0145Y04265
X01425Y0429
X01525Y0428
Y04195
Y04165
X0116Y04255
X01295Y044065
X012927Y044373
X01825Y044323
Y044015
X0195Y0429
X01975Y04265
X0205Y0428
X02025Y0421
X020485Y04165
X02
X018
X0175
X017235Y040585
X0188Y04
X02175Y04065
X02205Y04305
X02405Y0414
X0228Y0465
X0304Y044863
X030664Y044864
X03055Y04355
X01705Y04265
X01635Y0421
X0159Y0417
X016005Y038495
X0197Y0342
X0201Y0344
X02035Y034685
X020556Y034856
X02075Y03505
X02095Y0353
X0212Y03555
X02145Y03575
X02165Y03595
X0231Y0345
X0229Y0343
X0227Y03405
X02245Y0338
X02225Y03355
X02205Y03335
X021867Y03315
X0216Y0329
X02335
X02315Y03265
X022959Y032441
X022767Y03225
X0225Y032
X0236Y03315
X0238Y0334
X024Y0336
X03585Y0383
X03615
X03585Y03945
X03615Y0403
X03705Y04065
X0373Y04175
X0378Y04165
X0395Y0421
X0398Y04185
X0403
X040305Y0428
X039812Y0429
X0393Y04295
X0385Y04435
X0381Y044
X0367Y0427
X03475Y040908
X03866Y03995
X0404Y0403
X0412Y03985
X04225Y0406
X04355Y040585
X043029Y041845
X04255Y04185
X04205Y0427
X04355Y04285
X04455Y0429
X04485Y0421
X04505Y041845
X04555Y041695
X04615Y0418
X04555Y04275
X0442Y044365
X04335Y044
X0421Y0467
X04165Y046471
X03565
X03985Y0385
X04335Y0383
Y03775
X0434Y0371
X0435Y0368
X04385Y03745
X0453
X045295Y03835
X04715Y03735
X0497Y0392
X05045Y04435
X04935Y04575
X04945Y04605
X05655Y04475
X05535Y03795
X0557Y0372
X057Y03295
X06115Y03225
T02
X05045Y02445
Y02545
Y02645
Y02745
Y02845
Y02945
Y03045
X05645
Y02945
Y02845
Y02745
Y02645
Y02545
Y02445
Y03145
Y03245
Y03345
Y03445
Y03545
Y03645
Y03745
Y03845
Y03945
Y04045
Y04145
Y04245
X05045
Y04145
Y04045
Y03945
Y03845
Y03745
Y03645
Y03545
Y03445
Y03345
Y03245
Y03145
Y04345
T03
X05982Y02545
X0617
Y02816
X05982
Y03105
X0617
Y03376
X05982
T04
X059632Y0149
Y0159
X05995Y01825
X05895
X04805Y0173
X04705
X03445Y022322
X03345
Y025022
X03445
Y027722
X03345
X02405Y027715
X02305
Y025015
X02405
Y022315
X02305
Y0396
X02405
Y0423
X02305
Y045
X02405
X03345Y045007
X03445
Y042307
X03345
Y039607
X03445
T05
X05645Y04345
T06
X03666Y022065
X03766
X03866
X03966
X04066
X04185
X04285
X04385
X04485
X04585
Y028065
X04485
X04385
X04285
X04185
X04066
X03966
X03866
X03766
X03666
X0208
X0198
X0188
X0178
X0168
Y022065
X0178
X0188
X0198
X0208
X01556
X01456
X01356
X01256
X01156
Y028065
X01256
X01356
X01456
X01556
Y03935
X01456
X01356
X01256
X01156
Y04535
X01256
X01356
X01456
X01556
X0168
X0178
X0188
X0198
X0208
Y03935
X0198
X0188
X0178
X0168
X03666
X03766
X03866
X03966
X04066
X04185
X04285
X04385
X04485
X04585
Y04535
X04485
X04385
X04285
X04185
X04066
X03966
X03866
X03766
X03666
T07
X0639Y01575
Y01775
M30
