G04*
G04 #@! TF.GenerationSoftware,Altium Limited,Altium Designer,18.1.6 (161)*
G04*
G04 Layer_Color=255*
%FSTAX24Y24*%
%MOIN*%
G70*
G01*
G75*
%ADD22R,0.0472X0.0300*%
%ADD23R,0.1378X0.0630*%
%ADD24R,0.0354X0.0315*%
%ADD25R,0.0300X0.0472*%
%ADD42R,0.3839X0.4803*%
%ADD44C,0.0750*%
%ADD45C,0.0591*%
%ADD46R,0.0591X0.0591*%
%ADD47C,0.1100*%
%ADD48R,0.0700X0.1000*%
%ADD49O,0.0700X0.1000*%
%ADD50R,0.1000X0.0650*%
%ADD51O,0.1000X0.0650*%
%ADD52R,0.0650X0.1000*%
%ADD53O,0.0650X0.1000*%
D22*
X057Y01775D02*
D03*
Y01854D02*
D03*
D23*
X05005Y0158D02*
D03*
Y0178D02*
D03*
D24*
X056927Y015151D02*
D03*
Y01582D02*
D03*
D25*
X0481Y01495D02*
D03*
X04731D02*
D03*
D42*
X054095Y0168D02*
D03*
D44*
X05982Y02545D02*
D03*
X0617Y02816D02*
D03*
X05982D02*
D03*
X0617Y02545D02*
D03*
X05982Y03105D02*
D03*
X0617Y03376D02*
D03*
X05982D02*
D03*
X0617Y03105D02*
D03*
D45*
X05645Y03245D02*
D03*
Y03145D02*
D03*
Y02945D02*
D03*
Y03045D02*
D03*
Y02745D02*
D03*
Y02845D02*
D03*
Y02545D02*
D03*
Y02645D02*
D03*
Y02445D02*
D03*
Y04245D02*
D03*
Y04145D02*
D03*
Y03945D02*
D03*
Y04045D02*
D03*
Y03745D02*
D03*
Y03845D02*
D03*
Y03545D02*
D03*
Y03645D02*
D03*
Y03345D02*
D03*
Y03445D02*
D03*
X05045Y03345D02*
D03*
Y03245D02*
D03*
Y03045D02*
D03*
Y03145D02*
D03*
Y02845D02*
D03*
Y02945D02*
D03*
Y02645D02*
D03*
Y02745D02*
D03*
Y02445D02*
D03*
Y02545D02*
D03*
Y03545D02*
D03*
Y03445D02*
D03*
Y03745D02*
D03*
Y03645D02*
D03*
Y03945D02*
D03*
Y03845D02*
D03*
Y04145D02*
D03*
Y04045D02*
D03*
Y04245D02*
D03*
X05645Y04345D02*
D03*
X05045D02*
D03*
D46*
X01156Y028065D02*
D03*
X01256D02*
D03*
X01356D02*
D03*
X01456D02*
D03*
X01556D02*
D03*
Y022065D02*
D03*
X01456D02*
D03*
X01356D02*
D03*
X01256D02*
D03*
X01156D02*
D03*
X03666Y028065D02*
D03*
X03766D02*
D03*
X03866D02*
D03*
X03966D02*
D03*
X04066D02*
D03*
Y022065D02*
D03*
X03966D02*
D03*
X03866D02*
D03*
X03766D02*
D03*
X03666D02*
D03*
Y04535D02*
D03*
X03766D02*
D03*
X03866D02*
D03*
X03966D02*
D03*
X04066D02*
D03*
Y03935D02*
D03*
X03966D02*
D03*
X03866D02*
D03*
X03766D02*
D03*
X03666D02*
D03*
X01156Y04535D02*
D03*
X01256D02*
D03*
X01356D02*
D03*
X01456D02*
D03*
X01556D02*
D03*
Y03935D02*
D03*
X01456D02*
D03*
X01356D02*
D03*
X01256D02*
D03*
X01156D02*
D03*
X0168Y028065D02*
D03*
X0178D02*
D03*
X0188D02*
D03*
X0198D02*
D03*
X0208D02*
D03*
Y022065D02*
D03*
X0198D02*
D03*
X0188D02*
D03*
X0178D02*
D03*
X0168D02*
D03*
X04185Y028065D02*
D03*
X04285D02*
D03*
X04385D02*
D03*
X04485D02*
D03*
X04585D02*
D03*
Y022065D02*
D03*
X04485D02*
D03*
X04385D02*
D03*
X04285D02*
D03*
X04185D02*
D03*
Y04535D02*
D03*
X04285D02*
D03*
X04385D02*
D03*
X04485D02*
D03*
X04585D02*
D03*
Y03935D02*
D03*
X04485D02*
D03*
X04385D02*
D03*
X04285D02*
D03*
X04185D02*
D03*
X0168Y04535D02*
D03*
X0178D02*
D03*
X0188D02*
D03*
X0198D02*
D03*
X0208D02*
D03*
Y03935D02*
D03*
X0198D02*
D03*
X0188D02*
D03*
X0178D02*
D03*
X0168D02*
D03*
D47*
X0639Y01775D02*
D03*
Y01575D02*
D03*
D48*
X04805Y0173D02*
D03*
X05895Y01825D02*
D03*
D49*
X04705Y0173D02*
D03*
X05995Y01825D02*
D03*
D50*
X059632Y0149D02*
D03*
D51*
Y0159D02*
D03*
D52*
X02305Y022315D02*
D03*
Y025015D02*
D03*
Y027715D02*
D03*
X03445Y022322D02*
D03*
Y025022D02*
D03*
Y027722D02*
D03*
Y039607D02*
D03*
Y042307D02*
D03*
Y045007D02*
D03*
X02305Y0396D02*
D03*
Y0423D02*
D03*
Y045D02*
D03*
D53*
X02405Y022315D02*
D03*
Y025015D02*
D03*
Y027715D02*
D03*
X03345Y022322D02*
D03*
Y025022D02*
D03*
Y027722D02*
D03*
Y039607D02*
D03*
Y042307D02*
D03*
Y045007D02*
D03*
X02405Y0396D02*
D03*
Y0423D02*
D03*
Y045D02*
D03*
M02*
