G04*
G04 #@! TF.GenerationSoftware,Altium Limited,Altium Designer,18.1.6 (161)*
G04*
G04 Layer_Color=128*
%FSTAX24Y24*%
%MOIN*%
G70*
G01*
G75*
%ADD11C,0.0050*%
D11*
X059665Y02545D02*
X059975D01*
X05982Y025295D02*
Y025605D01*
X061545Y02816D02*
X061855D01*
X0617Y028005D02*
Y028315D01*
X059665Y02816D02*
X059975D01*
X05982Y028005D02*
Y028315D01*
X061545Y02545D02*
X061855D01*
X0617Y025295D02*
Y025605D01*
X059665Y03105D02*
X059975D01*
X05982Y030895D02*
Y031205D01*
X061545Y03376D02*
X061855D01*
X0617Y033605D02*
Y033915D01*
X059665Y03376D02*
X059975D01*
X05982Y033605D02*
Y033915D01*
X061545Y03105D02*
X061855D01*
X0617Y030895D02*
Y031205D01*
X0563Y03245D02*
X0566D01*
X05645Y0323D02*
Y0326D01*
X0563Y03145D02*
X0566D01*
X05645Y0313D02*
Y0316D01*
X0563Y02945D02*
X0566D01*
X05645Y0293D02*
Y0296D01*
X0563Y03045D02*
X0566D01*
X05645Y0303D02*
Y0306D01*
X0563Y02745D02*
X0566D01*
X05645Y0273D02*
Y0276D01*
X0563Y02845D02*
X0566D01*
X05645Y0283D02*
Y0286D01*
X0563Y02545D02*
X0566D01*
X05645Y0253D02*
Y0256D01*
X0563Y02645D02*
X0566D01*
X05645Y0263D02*
Y0266D01*
X0563Y02445D02*
X0566D01*
X05645Y0243D02*
Y0246D01*
X0563Y04245D02*
X0566D01*
X05645Y0423D02*
Y0426D01*
X0563Y04145D02*
X0566D01*
X05645Y0413D02*
Y0416D01*
X0563Y03945D02*
X0566D01*
X05645Y0393D02*
Y0396D01*
X0563Y04045D02*
X0566D01*
X05645Y0403D02*
Y0406D01*
X0563Y03745D02*
X0566D01*
X05645Y0373D02*
Y0376D01*
X0563Y03845D02*
X0566D01*
X05645Y0383D02*
Y0386D01*
X0563Y03545D02*
X0566D01*
X05645Y0353D02*
Y0356D01*
X0563Y03645D02*
X0566D01*
X05645Y0363D02*
Y0366D01*
X0563Y03345D02*
X0566D01*
X05645Y0333D02*
Y0336D01*
X0563Y03445D02*
X0566D01*
X05645Y0343D02*
Y0346D01*
X0503Y03345D02*
X0506D01*
X05045Y0333D02*
Y0336D01*
X0503Y03245D02*
X0506D01*
X05045Y0323D02*
Y0326D01*
X0503Y03045D02*
X0506D01*
X05045Y0303D02*
Y0306D01*
X0503Y03145D02*
X0506D01*
X05045Y0313D02*
Y0316D01*
X0503Y02845D02*
X0506D01*
X05045Y0283D02*
Y0286D01*
X0503Y02945D02*
X0506D01*
X05045Y0293D02*
Y0296D01*
X0503Y02645D02*
X0506D01*
X05045Y0263D02*
Y0266D01*
X0503Y02745D02*
X0506D01*
X05045Y0273D02*
Y0276D01*
X0503Y02445D02*
X0506D01*
X05045Y0243D02*
Y0246D01*
X0503Y02545D02*
X0506D01*
X05045Y0253D02*
Y0256D01*
X0503Y03545D02*
X0506D01*
X05045Y0353D02*
Y0356D01*
X0503Y03445D02*
X0506D01*
X05045Y0343D02*
Y0346D01*
X0503Y03745D02*
X0506D01*
X05045Y0373D02*
Y0376D01*
X0503Y03645D02*
X0506D01*
X05045Y0363D02*
Y0366D01*
X0503Y03945D02*
X0506D01*
X05045Y0393D02*
Y0396D01*
X0503Y03845D02*
X0506D01*
X05045Y0383D02*
Y0386D01*
X0503Y04145D02*
X0506D01*
X05045Y0413D02*
Y0416D01*
X0503Y04045D02*
X0506D01*
X05045Y0403D02*
Y0406D01*
X0503Y04245D02*
X0506D01*
X05045Y0423D02*
Y0426D01*
X056273Y04345D02*
X056627D01*
X05645Y043273D02*
Y043627D01*
X0503Y04345D02*
X0506D01*
X05045Y0433D02*
Y0436D01*
X011363Y028065D02*
X011757D01*
X01156Y027868D02*
Y028262D01*
X012363Y028065D02*
X012757D01*
X01256Y027868D02*
Y028262D01*
X013363Y028065D02*
X013757D01*
X01356Y027868D02*
Y028262D01*
X014363Y028065D02*
X014757D01*
X01456Y027868D02*
Y028262D01*
X015363Y028065D02*
X015757D01*
X01556Y027868D02*
Y028262D01*
X015363Y022065D02*
X015757D01*
X01556Y021869D02*
Y022262D01*
X014363Y022065D02*
X014757D01*
X01456Y021869D02*
Y022262D01*
X013363Y022065D02*
X013757D01*
X01356Y021869D02*
Y022262D01*
X012363Y022065D02*
X012757D01*
X01256Y021869D02*
Y022262D01*
X011363Y022065D02*
X011757D01*
X01156Y021869D02*
Y022262D01*
X036463Y028065D02*
X036857D01*
X03666Y027868D02*
Y028262D01*
X037463Y028065D02*
X037857D01*
X03766Y027868D02*
Y028262D01*
X038463Y028065D02*
X038857D01*
X03866Y027868D02*
Y028262D01*
X039463Y028065D02*
X039857D01*
X03966Y027868D02*
Y028262D01*
X040463Y028065D02*
X040857D01*
X04066Y027868D02*
Y028262D01*
X040463Y022065D02*
X040857D01*
X04066Y021869D02*
Y022262D01*
X039463Y022065D02*
X039857D01*
X03966Y021869D02*
Y022262D01*
X038463Y022065D02*
X038857D01*
X03866Y021869D02*
Y022262D01*
X037463Y022065D02*
X037857D01*
X03766Y021869D02*
Y022262D01*
X036463Y022065D02*
X036857D01*
X03666Y021869D02*
Y022262D01*
X036463Y04535D02*
X036857D01*
X03666Y045153D02*
Y045547D01*
X037463Y04535D02*
X037857D01*
X03766Y045153D02*
Y045547D01*
X038463Y04535D02*
X038857D01*
X03866Y045153D02*
Y045547D01*
X039463Y04535D02*
X039857D01*
X03966Y045153D02*
Y045547D01*
X040463Y04535D02*
X040857D01*
X04066Y045153D02*
Y045547D01*
X040463Y03935D02*
X040857D01*
X04066Y039153D02*
Y039547D01*
X039463Y03935D02*
X039857D01*
X03966Y039153D02*
Y039547D01*
X038463Y03935D02*
X038857D01*
X03866Y039153D02*
Y039547D01*
X037463Y03935D02*
X037857D01*
X03766Y039153D02*
Y039547D01*
X036463Y03935D02*
X036857D01*
X03666Y039153D02*
Y039547D01*
X011363Y04535D02*
X011757D01*
X01156Y045153D02*
Y045547D01*
X012363Y04535D02*
X012757D01*
X01256Y045153D02*
Y045547D01*
X013363Y04535D02*
X013757D01*
X01356Y045153D02*
Y045547D01*
X014363Y04535D02*
X014757D01*
X01456Y045153D02*
Y045547D01*
X015363Y04535D02*
X015757D01*
X01556Y045153D02*
Y045547D01*
X015363Y03935D02*
X015757D01*
X01556Y039153D02*
Y039547D01*
X014363Y03935D02*
X014757D01*
X01456Y039153D02*
Y039547D01*
X013363Y03935D02*
X013757D01*
X01356Y039153D02*
Y039547D01*
X012363Y03935D02*
X012757D01*
X01256Y039153D02*
Y039547D01*
X011363Y03935D02*
X011757D01*
X01156Y039153D02*
Y039547D01*
X06365Y01775D02*
X06415D01*
X0639Y0175D02*
Y018D01*
X06365Y01575D02*
X06415D01*
X0639Y0155D02*
Y016D01*
X04789Y0173D02*
X04821D01*
X04805Y01714D02*
Y01746D01*
X04689Y0173D02*
X04721D01*
X04705Y01714D02*
Y01746D01*
X05879Y01825D02*
X05911D01*
X05895Y01809D02*
Y01841D01*
X05979Y01825D02*
X06011D01*
X05995Y01809D02*
Y01841D01*
X059472Y0149D02*
X059792D01*
X059632Y01474D02*
Y01506D01*
X059472Y0159D02*
X059792D01*
X059632Y01574D02*
Y01606D01*
X016603Y028065D02*
X016997D01*
X0168Y027868D02*
Y028262D01*
X017603Y028065D02*
X017997D01*
X0178Y027868D02*
Y028262D01*
X018603Y028065D02*
X018997D01*
X0188Y027868D02*
Y028262D01*
X019603Y028065D02*
X019997D01*
X0198Y027868D02*
Y028262D01*
X020603Y028065D02*
X020997D01*
X0208Y027868D02*
Y028262D01*
X020603Y022065D02*
X020997D01*
X0208Y021869D02*
Y022262D01*
X019603Y022065D02*
X019997D01*
X0198Y021869D02*
Y022262D01*
X018603Y022065D02*
X018997D01*
X0188Y021869D02*
Y022262D01*
X017603Y022065D02*
X017997D01*
X0178Y021869D02*
Y022262D01*
X016603Y022065D02*
X016997D01*
X0168Y021869D02*
Y022262D01*
X041653Y028065D02*
X042047D01*
X04185Y027868D02*
Y028262D01*
X042653Y028065D02*
X043047D01*
X04285Y027868D02*
Y028262D01*
X043653Y028065D02*
X044047D01*
X04385Y027868D02*
Y028262D01*
X044653Y028065D02*
X045047D01*
X04485Y027868D02*
Y028262D01*
X045653Y028065D02*
X046047D01*
X04585Y027868D02*
Y028262D01*
X045653Y022065D02*
X046047D01*
X04585Y021869D02*
Y022262D01*
X044653Y022065D02*
X045047D01*
X04485Y021869D02*
Y022262D01*
X043653Y022065D02*
X044047D01*
X04385Y021869D02*
Y022262D01*
X042653Y022065D02*
X043047D01*
X04285Y021869D02*
Y022262D01*
X041653Y022065D02*
X042047D01*
X04185Y021869D02*
Y022262D01*
X041653Y04535D02*
X042047D01*
X04185Y045153D02*
Y045547D01*
X042653Y04535D02*
X043047D01*
X04285Y045153D02*
Y045547D01*
X043653Y04535D02*
X044047D01*
X04385Y045153D02*
Y045547D01*
X044653Y04535D02*
X045047D01*
X04485Y045153D02*
Y045547D01*
X045653Y04535D02*
X046047D01*
X04585Y045153D02*
Y045547D01*
X045653Y03935D02*
X046047D01*
X04585Y039153D02*
Y039547D01*
X044653Y03935D02*
X045047D01*
X04485Y039153D02*
Y039547D01*
X043653Y03935D02*
X044047D01*
X04385Y039153D02*
Y039547D01*
X042653Y03935D02*
X043047D01*
X04285Y039153D02*
Y039547D01*
X041653Y03935D02*
X042047D01*
X04185Y039153D02*
Y039547D01*
X016603Y04535D02*
X016997D01*
X0168Y045153D02*
Y045547D01*
X017603Y04535D02*
X017997D01*
X0178Y045153D02*
Y045547D01*
X018603Y04535D02*
X018997D01*
X0188Y045153D02*
Y045547D01*
X019603Y04535D02*
X019997D01*
X0198Y045153D02*
Y045547D01*
X020603Y04535D02*
X020997D01*
X0208Y045153D02*
Y045547D01*
X020603Y03935D02*
X020997D01*
X0208Y039153D02*
Y039547D01*
X019603Y03935D02*
X019997D01*
X0198Y039153D02*
Y039547D01*
X018603Y03935D02*
X018997D01*
X0188Y039153D02*
Y039547D01*
X017603Y03935D02*
X017997D01*
X0178Y039153D02*
Y039547D01*
X016603Y03935D02*
X016997D01*
X0168Y039153D02*
Y039547D01*
X02289Y022315D02*
X02321D01*
X02305Y022155D02*
Y022475D01*
X02389Y022315D02*
X02421D01*
X02405Y022155D02*
Y022475D01*
X02289Y025015D02*
X02321D01*
X02305Y024855D02*
Y025175D01*
X02389Y025015D02*
X02421D01*
X02405Y024855D02*
Y025175D01*
X02289Y027715D02*
X02321D01*
X02305Y027555D02*
Y027875D01*
X02389Y027715D02*
X02421D01*
X02405Y027555D02*
Y027875D01*
X03429Y022322D02*
X03461D01*
X03445Y022162D02*
Y022482D01*
X03329Y022322D02*
X03361D01*
X03345Y022162D02*
Y022482D01*
X03429Y025022D02*
X03461D01*
X03445Y024862D02*
Y025182D01*
X03329Y025022D02*
X03361D01*
X03345Y024862D02*
Y025182D01*
X03429Y027722D02*
X03461D01*
X03445Y027562D02*
Y027882D01*
X03329Y027722D02*
X03361D01*
X03345Y027562D02*
Y027882D01*
X03429Y039607D02*
X03461D01*
X03445Y039447D02*
Y039767D01*
X03329Y039607D02*
X03361D01*
X03345Y039447D02*
Y039767D01*
X03429Y042307D02*
X03461D01*
X03445Y042147D02*
Y042467D01*
X03329Y042307D02*
X03361D01*
X03345Y042147D02*
Y042467D01*
X03429Y045007D02*
X03461D01*
X03445Y044847D02*
Y045167D01*
X03329Y045007D02*
X03361D01*
X03345Y044847D02*
Y045167D01*
X02289Y0396D02*
X02321D01*
X02305Y03944D02*
Y03976D01*
X02389Y0396D02*
X02421D01*
X02405Y03944D02*
Y03976D01*
X02289Y0423D02*
X02321D01*
X02305Y04214D02*
Y04246D01*
X02389Y0423D02*
X02421D01*
X02405Y04214D02*
Y04246D01*
X02289Y045D02*
X02321D01*
X02305Y04484D02*
Y04516D01*
X02389Y045D02*
X02421D01*
X02405Y04484D02*
Y04516D01*
X036711Y0251D02*
X036789D01*
X03675Y025061D02*
Y025139D01*
X037261Y0245D02*
X037339D01*
X0373Y024461D02*
Y024539D01*
X037011Y02555D02*
X037089D01*
X03705Y025511D02*
Y025589D01*
X037161Y02325D02*
X037239D01*
X0372Y023211D02*
Y023289D01*
X036911Y02075D02*
X036989D01*
X03695Y020711D02*
Y020789D01*
X038261Y0232D02*
X038339D01*
X0383Y023161D02*
Y023239D01*
X037761Y02505D02*
X037839D01*
X0378Y025011D02*
Y025089D01*
X057011Y01925D02*
X057089D01*
X05705Y019211D02*
Y019289D01*
X061361Y01875D02*
X061439D01*
X0614Y018711D02*
Y018789D01*
X024011Y024D02*
X024089D01*
X02405Y023961D02*
Y024039D01*
X024011Y0414D02*
X024089D01*
X02405Y041361D02*
Y041439D01*
X034711Y040908D02*
X034789D01*
X03475Y040869D02*
Y040948D01*
X041161Y03985D02*
X041239D01*
X0412Y039811D02*
Y039889D01*
X034711Y023435D02*
X034789D01*
X03475Y023395D02*
Y023474D01*
X041161Y021277D02*
X041239D01*
X0412Y021237D02*
Y021316D01*
X016311Y0421D02*
X016389D01*
X01635Y042061D02*
Y042139D01*
X049661Y0392D02*
X049739D01*
X0497Y039161D02*
Y039239D01*
X021711Y04065D02*
X021789D01*
X02175Y040611D02*
Y040689D01*
X049311Y04575D02*
X049389D01*
X04935Y045711D02*
Y045789D01*
X049411Y04605D02*
X049489D01*
X04945Y046011D02*
Y046089D01*
X042061Y0467D02*
X042139D01*
X0421Y046661D02*
Y046739D01*
X041611Y046471D02*
X041689D01*
X04165Y046432D02*
Y046511D01*
X056961Y03295D02*
X057039D01*
X057Y032911D02*
Y032989D01*
X050711Y01955D02*
X050789D01*
X05075Y019511D02*
Y019589D01*
X039811Y0247D02*
X039889D01*
X03985Y024661D02*
Y024739D01*
X039961Y02525D02*
X040039D01*
X04Y025211D02*
Y025289D01*
X039511Y02525D02*
X039589D01*
X03955Y025211D02*
Y025289D01*
X039261Y02555D02*
X039339D01*
X0393Y025511D02*
Y025589D01*
X04387Y029291D02*
X043948D01*
X043909Y029252D02*
Y02933D01*
X044911Y02985D02*
X044989D01*
X04495Y029811D02*
Y029889D01*
X044011Y02955D02*
X044089D01*
X04405Y029511D02*
Y029589D01*
X046911Y02965D02*
X046989D01*
X04695Y029611D02*
Y029689D01*
X043811Y03745D02*
X043889D01*
X04385Y037411D02*
Y037489D01*
X043811Y0286D02*
X043889D01*
X04385Y028561D02*
Y028639D01*
X041161Y0271D02*
X041239D01*
X0412Y027061D02*
Y027139D01*
X043811Y02859D02*
X043889D01*
X04385Y028551D02*
Y028629D01*
X018761Y04D02*
X018839D01*
X0188Y039961D02*
Y040039D01*
X046311Y0256D02*
X046389D01*
X04635Y025561D02*
Y025639D01*
X040811Y02095D02*
X040889D01*
X04085Y020911D02*
Y020989D01*
X040261Y0227D02*
X040339D01*
X0403Y022661D02*
Y022739D01*
X032911Y02585D02*
X032989D01*
X03295Y025811D02*
Y025889D01*
X044011Y022977D02*
X044089D01*
X04405Y022938D02*
Y023017D01*
X043311Y03775D02*
X043389D01*
X04335Y037711D02*
Y037789D01*
X019661Y0342D02*
X019739D01*
X0197Y034161D02*
Y034239D01*
X013521Y02279D02*
X013599D01*
X01356Y022751D02*
Y022829D01*
X014711Y0243D02*
X014789D01*
X01475Y024261D02*
Y024339D01*
X015211Y0254D02*
X015289D01*
X01525Y025361D02*
Y025439D01*
X014211Y0244D02*
X014289D01*
X01425Y024361D02*
Y024439D01*
X018961Y02295D02*
X019039D01*
X019Y022911D02*
Y022989D01*
X020461Y02435D02*
X020539D01*
X0205Y024311D02*
Y024389D01*
X019961Y02435D02*
X020039D01*
X02Y024311D02*
Y024389D01*
X043511Y040585D02*
X043589D01*
X04355Y040545D02*
Y040624D01*
X045511Y04275D02*
X045589D01*
X04555Y042711D02*
Y042789D01*
X044811Y0421D02*
X044889D01*
X04485Y042061D02*
Y042139D01*
X040266Y0428D02*
X040345D01*
X040305Y042761D02*
Y042839D01*
X040261Y04185D02*
X040339D01*
X0403Y041811D02*
Y041889D01*
X039461Y0421D02*
X039539D01*
X0395Y042061D02*
Y042139D01*
X038621Y03995D02*
X038699D01*
X03866Y039911D02*
Y039989D01*
X015211Y0428D02*
X015289D01*
X01525Y042761D02*
Y042839D01*
X020461Y0428D02*
X020539D01*
X0205Y042761D02*
Y042839D01*
X020211Y0421D02*
X020289D01*
X02025Y042061D02*
Y042139D01*
X013521Y0399D02*
X013599D01*
X01356Y039861D02*
Y039939D01*
X014211Y04205D02*
X014289D01*
X01425Y042011D02*
Y042089D01*
X015211Y04195D02*
X015289D01*
X01525Y041911D02*
Y041989D01*
X015211Y04165D02*
X015289D01*
X01525Y041611D02*
Y041689D01*
X014461Y04265D02*
X014539D01*
X0145Y042611D02*
Y042689D01*
X014211Y0429D02*
X014289D01*
X01425Y042861D02*
Y042939D01*
X061111Y03225D02*
X061189D01*
X06115Y032211D02*
Y032289D01*
X061111Y02695D02*
X061189D01*
X06115Y026911D02*
Y026989D01*
X028561Y02875D02*
X028639D01*
X0286Y028711D02*
Y028789D01*
X028511Y02955D02*
X028589D01*
X02855Y029511D02*
Y029589D01*
X050411Y04435D02*
X050489D01*
X05045Y044311D02*
Y044389D01*
X056511Y04475D02*
X056589D01*
X05655Y044711D02*
Y044789D01*
X056887Y02545D02*
X056966D01*
X056927Y025411D02*
Y025489D01*
X050711Y02015D02*
X050789D01*
X05075Y020111D02*
Y020189D01*
X051761Y02175D02*
X051839D01*
X0518Y021711D02*
Y021789D01*
X050711Y01985D02*
X050789D01*
X05075Y019811D02*
Y019889D01*
X051411Y02175D02*
X051489D01*
X05145Y021711D02*
Y021789D01*
X051111Y02175D02*
X051189D01*
X05115Y021711D02*
Y021789D01*
X036011Y02065D02*
X036089D01*
X03605Y020611D02*
Y020689D01*
X036011Y02145D02*
X036089D01*
X03605Y021411D02*
Y021489D01*
X036011Y0231D02*
X036089D01*
X03605Y023061D02*
Y023139D01*
X023761Y0334D02*
X023839D01*
X0238Y033361D02*
Y033439D01*
X043211Y02705D02*
X043289D01*
X04325Y027011D02*
Y027089D01*
X040761Y02875D02*
X040839D01*
X0408Y028711D02*
Y028789D01*
X035461Y02835D02*
X035539D01*
X0355Y028311D02*
Y028389D01*
X036111Y0383D02*
X036189D01*
X03615Y038261D02*
Y038339D01*
X035811Y0383D02*
X035889D01*
X03585Y038261D02*
Y038339D01*
X035811Y03945D02*
X035889D01*
X03585Y039411D02*
Y039489D01*
X043461Y0368D02*
X043539D01*
X0435Y036761D02*
Y036839D01*
X043361Y0371D02*
X043439D01*
X0434Y037061D02*
Y037139D01*
X036111Y0403D02*
X036189D01*
X03615Y040261D02*
Y040339D01*
X043511Y04285D02*
X043589D01*
X04355Y042811D02*
Y042889D01*
X044511Y0429D02*
X044589D01*
X04455Y042861D02*
Y042939D01*
X043311Y044D02*
X043389D01*
X04335Y043961D02*
Y044039D01*
X044161Y044365D02*
X044239D01*
X0442Y044326D02*
Y044405D01*
X037261Y04175D02*
X037339D01*
X0373Y041711D02*
Y041789D01*
X039772Y0429D02*
X039851D01*
X039812Y042861D02*
Y042939D01*
X038061Y044D02*
X038139D01*
X0381Y043961D02*
Y044039D01*
X038461Y04435D02*
X038539D01*
X0385Y044311D02*
Y044389D01*
X044595Y025293D02*
X044674D01*
X044635Y025253D02*
Y025332D01*
X034661Y02955D02*
X034739D01*
X0347Y029511D02*
Y029589D01*
X036311Y0271D02*
X036389D01*
X03635Y027061D02*
Y027139D01*
X035961Y02735D02*
X036039D01*
X036Y027311D02*
Y027389D01*
X025111Y02875D02*
X025189D01*
X02515Y028711D02*
Y028789D01*
X019161Y02875D02*
X019239D01*
X0192Y028711D02*
Y028789D01*
X015011Y02955D02*
X015089D01*
X01505Y029511D02*
Y029589D01*
X017961Y02955D02*
X018039D01*
X018Y029511D02*
Y029589D01*
X019711Y02955D02*
X019789D01*
X01975Y029511D02*
Y029589D01*
X024332Y02955D02*
X024411D01*
X024371Y029511D02*
Y029589D01*
X042511Y02295D02*
X042589D01*
X04255Y022911D02*
Y022989D01*
X045261Y03745D02*
X045339D01*
X0453Y037411D02*
Y037489D01*
X043311Y0383D02*
X043389D01*
X04335Y038261D02*
Y038339D01*
X019461Y0256D02*
X019539D01*
X0195Y025561D02*
Y025639D01*
X019711Y02535D02*
X019789D01*
X01975Y025311D02*
Y025389D01*
X035611Y046471D02*
X035689D01*
X03565Y046432D02*
Y046511D01*
X017961Y024338D02*
X018039D01*
X018Y024298D02*
Y024377D01*
X035611Y02655D02*
X035689D01*
X03565Y026511D02*
Y026589D01*
X035611Y02625D02*
X035689D01*
X03565Y026211D02*
Y026289D01*
X039772Y02435D02*
X039851D01*
X039812Y024311D02*
Y024389D01*
X022461Y032D02*
X022539D01*
X0225Y031961D02*
Y032039D01*
X021561Y0329D02*
X021639D01*
X0216Y032861D02*
Y032939D01*
X020061Y0344D02*
X020139D01*
X0201Y034361D02*
Y034439D01*
X015966Y038495D02*
X016045D01*
X016005Y038455D02*
Y038534D01*
X022919Y032441D02*
X022998D01*
X022959Y032402D02*
Y032481D01*
X023111Y03265D02*
X023189D01*
X02315Y032611D02*
Y032689D01*
X023311Y0329D02*
X023389D01*
X02335Y032861D02*
Y032939D01*
X023561Y03315D02*
X023639D01*
X0236Y033111D02*
Y033189D01*
X023961Y0336D02*
X024039D01*
X024Y033561D02*
Y033639D01*
X020516Y034856D02*
X020595D01*
X020556Y034816D02*
Y034895D01*
X020311Y034685D02*
X020389D01*
X02035Y034645D02*
Y034724D01*
X015861Y0417D02*
X015939D01*
X0159Y041661D02*
Y041739D01*
X017195Y040585D02*
X017274D01*
X017235Y040545D02*
Y040624D01*
X020911Y0353D02*
X020989D01*
X02095Y035261D02*
Y035339D01*
X021161Y03555D02*
X021239D01*
X0212Y035511D02*
Y035589D01*
X020711Y03505D02*
X020789D01*
X02075Y035011D02*
Y035089D01*
X022011Y04305D02*
X022089D01*
X02205Y043011D02*
Y043089D01*
X022761Y0465D02*
X022839D01*
X0228Y046461D02*
Y046539D01*
X045511Y041695D02*
X045589D01*
X04555Y041655D02*
Y041734D01*
X046111Y0418D02*
X046189D01*
X04615Y041761D02*
Y041839D01*
X054961Y03105D02*
X055039D01*
X055Y031011D02*
Y031089D01*
X055261Y03105D02*
X055339D01*
X0553Y031011D02*
Y031089D01*
X042989Y041845D02*
X043068D01*
X043029Y041805D02*
Y041884D01*
X045256Y03835D02*
X045335D01*
X045295Y038311D02*
Y038389D01*
X045011Y041845D02*
X045089D01*
X04505Y041805D02*
Y041884D01*
X055539Y031071D02*
X055618D01*
X055579Y031032D02*
Y031111D01*
X055811Y03105D02*
X055889D01*
X05585Y031011D02*
Y031089D01*
X047111Y03735D02*
X047189D01*
X04715Y037311D02*
Y037389D01*
X042511Y02445D02*
X042589D01*
X04255Y024411D02*
Y024489D01*
X055661Y0372D02*
X055739D01*
X0557Y037161D02*
Y037239D01*
X055311Y03795D02*
X055389D01*
X05535Y037911D02*
Y037989D01*
X030511Y04355D02*
X030589D01*
X03055Y043511D02*
Y043589D01*
X030625Y044864D02*
X030704D01*
X030664Y044825D02*
Y044904D01*
X030361Y044863D02*
X030439D01*
X0304Y044823D02*
Y044902D01*
X041661Y02105D02*
X041739D01*
X0417Y021011D02*
Y021089D01*
X040261Y02435D02*
X040339D01*
X0403Y024311D02*
Y024389D01*
X039761Y04185D02*
X039839D01*
X0398Y041811D02*
Y041889D01*
X040361Y0403D02*
X040439D01*
X0404Y040261D02*
Y040339D01*
X017461Y04165D02*
X017539D01*
X0175Y041611D02*
Y041689D01*
X042989Y02445D02*
X043068D01*
X043029Y024411D02*
Y024489D01*
X045534Y024377D02*
X045613D01*
X045573Y024337D02*
Y024416D01*
X023061Y0345D02*
X023139D01*
X0231Y034461D02*
Y034539D01*
X021611Y03595D02*
X021689D01*
X02165Y035911D02*
Y035989D01*
X020445Y04165D02*
X020524D01*
X020485Y041611D02*
Y041689D01*
X045011Y02435D02*
X045089D01*
X04505Y024311D02*
Y024389D01*
X043211Y026715D02*
X043289D01*
X04325Y026676D02*
Y026755D01*
X022861Y0343D02*
X022939D01*
X0229Y034261D02*
Y034339D01*
X021411Y03575D02*
X021489D01*
X02145Y035711D02*
Y035789D01*
X019961Y04165D02*
X020039D01*
X02Y041611D02*
Y041689D01*
X022661Y03405D02*
X022739D01*
X0227Y034011D02*
Y034089D01*
X017961Y04165D02*
X018039D01*
X018Y041611D02*
Y041689D01*
X037911Y02705D02*
X037989D01*
X03795Y027011D02*
Y027089D01*
X022411Y0338D02*
X022489D01*
X02245Y033761D02*
Y033839D01*
X022011Y03335D02*
X022089D01*
X02205Y033311D02*
Y033389D01*
X022211Y03355D02*
X022289D01*
X02225Y033511D02*
Y033589D01*
X022728Y03225D02*
X022807D01*
X022767Y032211D02*
Y032289D01*
X012711Y04165D02*
X012789D01*
X01275Y041611D02*
Y041689D01*
X021828Y03315D02*
X021907D01*
X021867Y033111D02*
Y033189D01*
X012211Y04165D02*
X012289D01*
X01225Y041611D02*
Y041689D01*
X011911Y0405D02*
X011989D01*
X01195Y040461D02*
Y040539D01*
X042511Y04185D02*
X042589D01*
X04255Y041811D02*
Y041889D01*
X039811Y0385D02*
X039889D01*
X03985Y038461D02*
Y038539D01*
X017461Y024338D02*
X017539D01*
X0175Y024298D02*
Y024377D01*
X015211Y02435D02*
X015289D01*
X01525Y024311D02*
Y024389D01*
X014411Y0252D02*
X014489D01*
X01445Y025161D02*
Y025239D01*
X014211Y02555D02*
X014289D01*
X01425Y025511D02*
Y025589D01*
X014911Y02469D02*
X014989D01*
X01495Y024651D02*
Y024729D01*
X011911Y0233D02*
X011989D01*
X01195Y023261D02*
Y023339D01*
X015861Y0251D02*
X015939D01*
X0159Y025061D02*
Y025139D01*
X018061Y02705D02*
X018139D01*
X0181Y027011D02*
Y027089D01*
X015611Y023285D02*
X015689D01*
X01565Y023245D02*
Y023324D01*
X037761Y04165D02*
X037839D01*
X0378Y041611D02*
Y041689D01*
X012211Y0244D02*
X012289D01*
X01225Y024361D02*
Y024439D01*
X012961Y02705D02*
X013039D01*
X013Y027011D02*
Y027089D01*
X012961Y026715D02*
X013039D01*
X013Y026676D02*
Y026755D01*
X041911Y0253D02*
X041989D01*
X04195Y025261D02*
Y025339D01*
X044511Y02555D02*
X044589D01*
X04455Y025511D02*
Y025589D01*
X037911Y026715D02*
X037989D01*
X03795Y026676D02*
Y026755D01*
X01723Y023285D02*
X017309D01*
X017269Y023245D02*
Y023324D01*
X016811Y0253D02*
X016889D01*
X01685Y025261D02*
Y025339D01*
X018061Y026715D02*
X018139D01*
X0181Y026676D02*
Y026755D01*
X011611Y02525D02*
X011689D01*
X01165Y025211D02*
Y025289D01*
X042211Y0406D02*
X042289D01*
X04225Y040561D02*
Y040639D01*
X042011Y0427D02*
X042089D01*
X04205Y042661D02*
Y042739D01*
X039261Y04295D02*
X039339D01*
X0393Y042911D02*
Y042989D01*
X037011Y04065D02*
X037089D01*
X03705Y040611D02*
Y040689D01*
X036661Y0427D02*
X036739D01*
X0367Y042661D02*
Y042739D01*
X017011Y04265D02*
X017089D01*
X01705Y042611D02*
Y042689D01*
X018211Y044323D02*
X018289D01*
X01825Y044283D02*
Y044362D01*
X019461Y0429D02*
X019539D01*
X0195Y042861D02*
Y042939D01*
X019711Y04265D02*
X019789D01*
X01975Y042611D02*
Y042689D01*
X018211Y044015D02*
X018289D01*
X01825Y043976D02*
Y044055D01*
X012911Y044065D02*
X012989D01*
X01295Y044026D02*
Y044105D01*
X012888Y044373D02*
X012967D01*
X012927Y044333D02*
Y044412D01*
X011561Y04255D02*
X011639D01*
X0116Y042511D02*
Y042589D01*
M02*
