G04*
G04 #@! TF.GenerationSoftware,Altium Limited,Altium Designer,18.1.6 (161)*
G04*
G04 Layer_Color=16711935*
%FSTAX24Y24*%
%MOIN*%
G70*
G01*
G75*
%ADD29R,0.0434X0.0395*%
%ADD31C,0.0830*%
%ADD32C,0.0671*%
%ADD33R,0.0671X0.0671*%
%ADD34C,0.1180*%
%ADD35R,0.0780X0.1080*%
%ADD36O,0.0780X0.1080*%
%ADD37R,0.1080X0.0730*%
%ADD38O,0.1080X0.0730*%
%ADD39R,0.0730X0.1080*%
%ADD40O,0.0730X0.1080*%
%ADD41C,0.0237*%
%ADD57C,0.0059*%
%ADD58R,0.0297X0.0671*%
D29*
X04485Y027385D02*
D03*
Y026715D02*
D03*
X06073Y03276D02*
D03*
Y032091D02*
D03*
Y02726D02*
D03*
Y026591D02*
D03*
X04285Y023285D02*
D03*
Y022615D02*
D03*
X04185Y023285D02*
D03*
Y022615D02*
D03*
X04285Y026715D02*
D03*
Y027385D02*
D03*
X03766Y023285D02*
D03*
Y022615D02*
D03*
X03966Y023285D02*
D03*
Y022615D02*
D03*
X03666Y023285D02*
D03*
Y022615D02*
D03*
X0355Y022635D02*
D03*
Y021965D02*
D03*
Y025357D02*
D03*
Y024688D02*
D03*
Y02805D02*
D03*
Y027381D02*
D03*
X04585Y026715D02*
D03*
Y027385D02*
D03*
X04485Y023285D02*
D03*
Y022615D02*
D03*
X04185Y026715D02*
D03*
Y027385D02*
D03*
X03965Y026715D02*
D03*
Y027385D02*
D03*
X04066Y026715D02*
D03*
Y027385D02*
D03*
X03765Y026715D02*
D03*
Y027385D02*
D03*
X03666Y026715D02*
D03*
Y027385D02*
D03*
X0198Y023285D02*
D03*
Y022615D02*
D03*
X0178Y023285D02*
D03*
Y022615D02*
D03*
X0168Y023285D02*
D03*
Y022615D02*
D03*
X01156Y023285D02*
D03*
Y022615D02*
D03*
X01256Y023285D02*
D03*
Y022615D02*
D03*
X01456Y023285D02*
D03*
Y022615D02*
D03*
X02207Y022635D02*
D03*
Y021965D02*
D03*
Y025357D02*
D03*
Y024688D02*
D03*
Y02805D02*
D03*
Y027381D02*
D03*
X01156Y026715D02*
D03*
Y027385D02*
D03*
X01256Y026715D02*
D03*
Y027385D02*
D03*
X0208Y026715D02*
D03*
Y027385D02*
D03*
X0198Y026715D02*
D03*
Y027385D02*
D03*
X0178Y026715D02*
D03*
Y027385D02*
D03*
X0168Y026715D02*
D03*
Y027385D02*
D03*
X01456Y026715D02*
D03*
Y027385D02*
D03*
X01556Y026715D02*
D03*
Y027385D02*
D03*
X0198Y040585D02*
D03*
Y039915D02*
D03*
X0178Y040585D02*
D03*
Y039915D02*
D03*
X0168Y040585D02*
D03*
Y039915D02*
D03*
X01156Y040585D02*
D03*
Y039915D02*
D03*
X01256Y040585D02*
D03*
Y039915D02*
D03*
X01456Y040585D02*
D03*
Y039915D02*
D03*
X0198Y044015D02*
D03*
Y044685D02*
D03*
X0178Y044015D02*
D03*
Y044685D02*
D03*
X0168Y044015D02*
D03*
Y044685D02*
D03*
X0208Y044015D02*
D03*
Y044685D02*
D03*
X04285Y040635D02*
D03*
Y039965D02*
D03*
X04185Y040635D02*
D03*
Y039965D02*
D03*
X04485Y040635D02*
D03*
Y039965D02*
D03*
X0355Y039835D02*
D03*
Y039165D02*
D03*
Y042585D02*
D03*
Y041915D02*
D03*
Y045335D02*
D03*
Y044665D02*
D03*
X03766Y040635D02*
D03*
Y039965D02*
D03*
X03966Y040635D02*
D03*
Y039965D02*
D03*
X03666Y040635D02*
D03*
Y039965D02*
D03*
X04485Y044015D02*
D03*
Y044685D02*
D03*
X04585Y044015D02*
D03*
Y044685D02*
D03*
X04285Y044015D02*
D03*
Y044685D02*
D03*
X04185Y044015D02*
D03*
Y044685D02*
D03*
X03766Y044015D02*
D03*
Y044685D02*
D03*
X03965Y044015D02*
D03*
Y044685D02*
D03*
X04066Y044015D02*
D03*
Y044685D02*
D03*
X03666Y044015D02*
D03*
Y044685D02*
D03*
X01156Y044065D02*
D03*
Y044735D02*
D03*
X01256Y044065D02*
D03*
Y044735D02*
D03*
X01556Y044065D02*
D03*
Y044735D02*
D03*
X01456Y044065D02*
D03*
Y044735D02*
D03*
X02207Y039835D02*
D03*
Y039165D02*
D03*
Y042585D02*
D03*
Y041915D02*
D03*
Y045335D02*
D03*
Y044665D02*
D03*
D31*
X05982Y02545D02*
D03*
X0617Y02816D02*
D03*
X05982D02*
D03*
X0617Y02545D02*
D03*
X05982Y03105D02*
D03*
X0617Y03376D02*
D03*
X05982D02*
D03*
X0617Y03105D02*
D03*
D32*
X05645Y03245D02*
D03*
Y03145D02*
D03*
Y02945D02*
D03*
Y03045D02*
D03*
Y02745D02*
D03*
Y02845D02*
D03*
Y02545D02*
D03*
Y02645D02*
D03*
Y02445D02*
D03*
Y04245D02*
D03*
Y04145D02*
D03*
Y03945D02*
D03*
Y04045D02*
D03*
Y03745D02*
D03*
Y03845D02*
D03*
Y03545D02*
D03*
Y03645D02*
D03*
Y03345D02*
D03*
Y03445D02*
D03*
X05045Y03345D02*
D03*
Y03245D02*
D03*
Y03045D02*
D03*
Y03145D02*
D03*
Y02845D02*
D03*
Y02945D02*
D03*
Y02645D02*
D03*
Y02745D02*
D03*
Y02445D02*
D03*
Y02545D02*
D03*
Y03545D02*
D03*
Y03445D02*
D03*
Y03745D02*
D03*
Y03645D02*
D03*
Y03945D02*
D03*
Y03845D02*
D03*
Y04145D02*
D03*
Y04045D02*
D03*
Y04245D02*
D03*
X05645Y04345D02*
D03*
X05045D02*
D03*
D33*
X01156Y028065D02*
D03*
X01256D02*
D03*
X01356D02*
D03*
X01456D02*
D03*
X01556D02*
D03*
Y022065D02*
D03*
X01456D02*
D03*
X01356D02*
D03*
X01256D02*
D03*
X01156D02*
D03*
X03666Y028065D02*
D03*
X03766D02*
D03*
X03866D02*
D03*
X03966D02*
D03*
X04066D02*
D03*
Y022065D02*
D03*
X03966D02*
D03*
X03866D02*
D03*
X03766D02*
D03*
X03666D02*
D03*
Y04535D02*
D03*
X03766D02*
D03*
X03866D02*
D03*
X03966D02*
D03*
X04066D02*
D03*
Y03935D02*
D03*
X03966D02*
D03*
X03866D02*
D03*
X03766D02*
D03*
X03666D02*
D03*
X01156Y04535D02*
D03*
X01256D02*
D03*
X01356D02*
D03*
X01456D02*
D03*
X01556D02*
D03*
Y03935D02*
D03*
X01456D02*
D03*
X01356D02*
D03*
X01256D02*
D03*
X01156D02*
D03*
X0168Y028065D02*
D03*
X0178D02*
D03*
X0188D02*
D03*
X0198D02*
D03*
X0208D02*
D03*
Y022065D02*
D03*
X0198D02*
D03*
X0188D02*
D03*
X0178D02*
D03*
X0168D02*
D03*
X04185Y028065D02*
D03*
X04285D02*
D03*
X04385D02*
D03*
X04485D02*
D03*
X04585D02*
D03*
Y022065D02*
D03*
X04485D02*
D03*
X04385D02*
D03*
X04285D02*
D03*
X04185D02*
D03*
Y04535D02*
D03*
X04285D02*
D03*
X04385D02*
D03*
X04485D02*
D03*
X04585D02*
D03*
Y03935D02*
D03*
X04485D02*
D03*
X04385D02*
D03*
X04285D02*
D03*
X04185D02*
D03*
X0168Y04535D02*
D03*
X0178D02*
D03*
X0188D02*
D03*
X0198D02*
D03*
X0208D02*
D03*
Y03935D02*
D03*
X0198D02*
D03*
X0188D02*
D03*
X0178D02*
D03*
X0168D02*
D03*
D34*
X0639Y01775D02*
D03*
Y01575D02*
D03*
D35*
X04805Y0173D02*
D03*
X05895Y01825D02*
D03*
D36*
X04705Y0173D02*
D03*
X05995Y01825D02*
D03*
D37*
X059632Y0149D02*
D03*
D38*
Y0159D02*
D03*
D39*
X02305Y022315D02*
D03*
Y025015D02*
D03*
Y027715D02*
D03*
X03445Y022322D02*
D03*
Y025022D02*
D03*
Y027722D02*
D03*
Y039607D02*
D03*
Y042307D02*
D03*
Y045007D02*
D03*
X02305Y0396D02*
D03*
Y0423D02*
D03*
Y045D02*
D03*
D40*
X02405Y022315D02*
D03*
Y025015D02*
D03*
Y027715D02*
D03*
X03345Y022322D02*
D03*
Y025022D02*
D03*
Y027722D02*
D03*
Y039607D02*
D03*
Y042307D02*
D03*
Y045007D02*
D03*
X02405Y0396D02*
D03*
Y0423D02*
D03*
Y045D02*
D03*
D41*
X03675Y0251D02*
D03*
X0373Y0245D02*
D03*
X03705Y02555D02*
D03*
X0372Y02325D02*
D03*
X03695Y02075D02*
D03*
X0383Y0232D02*
D03*
X0378Y02505D02*
D03*
X05705Y01925D02*
D03*
X0614Y01875D02*
D03*
X02405Y024D02*
D03*
Y0414D02*
D03*
X03475Y040908D02*
D03*
X0412Y03985D02*
D03*
X03475Y023435D02*
D03*
X0412Y021277D02*
D03*
X01635Y0421D02*
D03*
X0497Y0392D02*
D03*
X02175Y04065D02*
D03*
X04935Y04575D02*
D03*
X04945Y04605D02*
D03*
X0421Y0467D02*
D03*
X04165Y046471D02*
D03*
X057Y03295D02*
D03*
X05075Y01955D02*
D03*
X03985Y0247D02*
D03*
X04Y02525D02*
D03*
X03955D02*
D03*
X0393Y02555D02*
D03*
X043909Y029291D02*
D03*
X04495Y02985D02*
D03*
X04405Y02955D02*
D03*
X04695Y02965D02*
D03*
X04385Y03745D02*
D03*
Y0286D02*
D03*
X0412Y0271D02*
D03*
X04385Y02859D02*
D03*
X0188Y04D02*
D03*
X04635Y0256D02*
D03*
X04085Y02095D02*
D03*
X0403Y0227D02*
D03*
X03295Y02585D02*
D03*
X04405Y022977D02*
D03*
X04335Y03775D02*
D03*
X0197Y0342D02*
D03*
X01356Y02279D02*
D03*
X01475Y0243D02*
D03*
X01525Y0254D02*
D03*
X01425Y0244D02*
D03*
X019Y02295D02*
D03*
X0205Y02435D02*
D03*
X02D02*
D03*
X04355Y040585D02*
D03*
X04555Y04275D02*
D03*
X04485Y0421D02*
D03*
X040305Y0428D02*
D03*
X0403Y04185D02*
D03*
X0395Y0421D02*
D03*
X03866Y03995D02*
D03*
X01525Y0428D02*
D03*
X0205D02*
D03*
X02025Y0421D02*
D03*
X01356Y0399D02*
D03*
X01425Y04205D02*
D03*
X01525Y04195D02*
D03*
Y04165D02*
D03*
X0145Y04265D02*
D03*
X01425Y0429D02*
D03*
X06115Y03225D02*
D03*
Y02695D02*
D03*
X0286Y02875D02*
D03*
X02855Y02955D02*
D03*
X05045Y04435D02*
D03*
X05655Y04475D02*
D03*
X056927Y02545D02*
D03*
X05075Y02015D02*
D03*
X0518Y02175D02*
D03*
X05075Y01985D02*
D03*
X05145Y02175D02*
D03*
X05115D02*
D03*
X03605Y02065D02*
D03*
Y02145D02*
D03*
Y0231D02*
D03*
X0238Y0334D02*
D03*
X04325Y02705D02*
D03*
X0408Y02875D02*
D03*
X0355Y02835D02*
D03*
X03615Y0383D02*
D03*
X03585D02*
D03*
Y03945D02*
D03*
X0435Y0368D02*
D03*
X0434Y0371D02*
D03*
X03615Y0403D02*
D03*
X04355Y04285D02*
D03*
X04455Y0429D02*
D03*
X04335Y044D02*
D03*
X0442Y044365D02*
D03*
X0373Y04175D02*
D03*
X039812Y0429D02*
D03*
X0381Y044D02*
D03*
X0385Y04435D02*
D03*
X044635Y025293D02*
D03*
X0347Y02955D02*
D03*
X03635Y0271D02*
D03*
X036Y02735D02*
D03*
X02515Y02875D02*
D03*
X0192D02*
D03*
X01505Y02955D02*
D03*
X018D02*
D03*
X01975D02*
D03*
X024371D02*
D03*
X04255Y02295D02*
D03*
X0453Y03745D02*
D03*
X04335Y0383D02*
D03*
X0195Y0256D02*
D03*
X01975Y02535D02*
D03*
X03565Y046471D02*
D03*
X018Y024338D02*
D03*
X03565Y02655D02*
D03*
Y02625D02*
D03*
X039812Y02435D02*
D03*
X0225Y032D02*
D03*
X0216Y0329D02*
D03*
X0201Y0344D02*
D03*
X016005Y038495D02*
D03*
X022959Y032441D02*
D03*
X02315Y03265D02*
D03*
X02335Y0329D02*
D03*
X0236Y03315D02*
D03*
X024Y0336D02*
D03*
X020556Y034856D02*
D03*
X02035Y034685D02*
D03*
X0159Y0417D02*
D03*
X017235Y040585D02*
D03*
X02095Y0353D02*
D03*
X0212Y03555D02*
D03*
X02075Y03505D02*
D03*
X02205Y04305D02*
D03*
X0228Y0465D02*
D03*
X04555Y041695D02*
D03*
X04615Y0418D02*
D03*
X055Y03105D02*
D03*
X0553D02*
D03*
X043029Y041845D02*
D03*
X045295Y03835D02*
D03*
X04505Y041845D02*
D03*
X055579Y031071D02*
D03*
X05585Y03105D02*
D03*
X04715Y03735D02*
D03*
X04255Y02445D02*
D03*
X0557Y0372D02*
D03*
X05535Y03795D02*
D03*
X03055Y04355D02*
D03*
X030664Y044864D02*
D03*
X0304Y044863D02*
D03*
X0417Y02105D02*
D03*
X0403Y02435D02*
D03*
X0398Y04185D02*
D03*
X0404Y0403D02*
D03*
X0175Y04165D02*
D03*
X043029Y02445D02*
D03*
X045573Y024377D02*
D03*
X0231Y0345D02*
D03*
X02165Y03595D02*
D03*
X020485Y04165D02*
D03*
X04505Y02435D02*
D03*
X04325Y026715D02*
D03*
X0229Y0343D02*
D03*
X02145Y03575D02*
D03*
X02Y04165D02*
D03*
X0227Y03405D02*
D03*
X018Y04165D02*
D03*
X03795Y02705D02*
D03*
X02245Y0338D02*
D03*
X02205Y03335D02*
D03*
X02225Y03355D02*
D03*
X022767Y03225D02*
D03*
X01275Y04165D02*
D03*
X021867Y03315D02*
D03*
X01225Y04165D02*
D03*
X01195Y0405D02*
D03*
X04255Y04185D02*
D03*
X03985Y0385D02*
D03*
X0175Y024338D02*
D03*
X01525Y02435D02*
D03*
X01445Y0252D02*
D03*
X01425Y02555D02*
D03*
X01495Y02469D02*
D03*
X01195Y0233D02*
D03*
X0159Y0251D02*
D03*
X0181Y02705D02*
D03*
X01565Y023285D02*
D03*
X0378Y04165D02*
D03*
X01225Y0244D02*
D03*
X013Y02705D02*
D03*
Y026715D02*
D03*
X04195Y0253D02*
D03*
X04455Y02555D02*
D03*
X03795Y026715D02*
D03*
X017269Y023285D02*
D03*
X01685Y0253D02*
D03*
X0181Y026715D02*
D03*
X01165Y02525D02*
D03*
X04225Y0406D02*
D03*
X04205Y0427D02*
D03*
X0393Y04295D02*
D03*
X03705Y04065D02*
D03*
X0367Y0427D02*
D03*
X01705Y04265D02*
D03*
X01825Y044323D02*
D03*
X0195Y0429D02*
D03*
X01975Y04265D02*
D03*
X01825Y044015D02*
D03*
X01295Y044065D02*
D03*
X012927Y044373D02*
D03*
X0116Y04255D02*
D03*
D57*
X01Y04825D02*
X06575D01*
X01Y01355D02*
Y04825D01*
X06575Y01355D02*
Y04825D01*
X01Y01355D02*
X06575D01*
D58*
X01175Y026D02*
D03*
X01225D02*
D03*
X01275D02*
D03*
X01325D02*
D03*
X01525D02*
D03*
X01475D02*
D03*
X01425D02*
D03*
X01375D02*
D03*
Y023874D02*
D03*
X01425D02*
D03*
X01475D02*
D03*
X01525D02*
D03*
X01325D02*
D03*
X01275D02*
D03*
X01225D02*
D03*
X01175D02*
D03*
X017Y026D02*
D03*
X0175D02*
D03*
X018D02*
D03*
X0185D02*
D03*
X0205D02*
D03*
X02D02*
D03*
X0195D02*
D03*
X019D02*
D03*
Y023874D02*
D03*
X0195D02*
D03*
X02D02*
D03*
X0205D02*
D03*
X0185D02*
D03*
X018D02*
D03*
X0175D02*
D03*
X017D02*
D03*
X04205Y026D02*
D03*
X04255D02*
D03*
X04305D02*
D03*
X04355D02*
D03*
X04555D02*
D03*
X04505D02*
D03*
X04455D02*
D03*
X04405D02*
D03*
Y023874D02*
D03*
X04455D02*
D03*
X04505D02*
D03*
X04555D02*
D03*
X04355D02*
D03*
X04305D02*
D03*
X04255D02*
D03*
X04205D02*
D03*
X0368Y026D02*
D03*
X0373D02*
D03*
X0378D02*
D03*
X0383D02*
D03*
X0403D02*
D03*
X0398D02*
D03*
X0393D02*
D03*
X0388D02*
D03*
Y023874D02*
D03*
X0393D02*
D03*
X0398D02*
D03*
X0403D02*
D03*
X0383D02*
D03*
X0378D02*
D03*
X0373D02*
D03*
X0368D02*
D03*
X04205Y04335D02*
D03*
X04255D02*
D03*
X04305D02*
D03*
X04355D02*
D03*
X04555D02*
D03*
X04505D02*
D03*
X04455D02*
D03*
X04405D02*
D03*
Y041224D02*
D03*
X04455D02*
D03*
X04505D02*
D03*
X04555D02*
D03*
X04355D02*
D03*
X04305D02*
D03*
X04255D02*
D03*
X04205D02*
D03*
X0368Y04335D02*
D03*
X0373D02*
D03*
X0378D02*
D03*
X0383D02*
D03*
X0403D02*
D03*
X0398D02*
D03*
X0393D02*
D03*
X0388D02*
D03*
Y041224D02*
D03*
X0393D02*
D03*
X0398D02*
D03*
X0403D02*
D03*
X0383D02*
D03*
X0378D02*
D03*
X0373D02*
D03*
X0368D02*
D03*
X017Y04335D02*
D03*
X0175D02*
D03*
X018D02*
D03*
X0185D02*
D03*
X0205D02*
D03*
X02D02*
D03*
X0195D02*
D03*
X019D02*
D03*
Y041224D02*
D03*
X0195D02*
D03*
X02D02*
D03*
X0205D02*
D03*
X0185D02*
D03*
X018D02*
D03*
X0175D02*
D03*
X017D02*
D03*
X01175Y04335D02*
D03*
X01225D02*
D03*
X01275D02*
D03*
X01325D02*
D03*
X01525D02*
D03*
X01475D02*
D03*
X01425D02*
D03*
X01375D02*
D03*
Y041224D02*
D03*
X01425D02*
D03*
X01475D02*
D03*
X01525D02*
D03*
X01325D02*
D03*
X01275D02*
D03*
X01225D02*
D03*
X01175D02*
D03*
M02*
